<svg width="58" height="58" fill="none" xmlns="http://www.w3.org/2000/svg"><path d="M52.399 22.962L58 19.36l-1.362-2.116-5.679 3.651-6.023-15.423H13.063L7.04 20.895l-5.678-3.652L0 19.36l5.6 3.602a6.602 6.602 0 00-3.872 6.004v8.838c0 3.22 2.322 5.908 5.379 6.48v2.197a6.054 6.054 0 006.047 6.047 6.054 6.054 0 006.047-6.047v-2.083h19.597v2.083a6.054 6.054 0 006.048 6.047 6.054 6.054 0 006.046-6.047v-2.195a6.584 6.584 0 005.379-6.482v-8.838a6.602 6.602 0 00-3.872-6.005zM14.783 7.989H27.74v4.856h2.518V7.989h12.958l5.617 14.382H9.166L14.783 7.99zm1.9 38.492a3.533 3.533 0 01-3.529 3.53 3.534 3.534 0 01-3.53-3.53v-2.083h7.06v2.083zm28.162 3.53a3.533 3.533 0 01-3.53-3.53v-2.083h7.06v2.083a3.534 3.534 0 01-3.53 3.53zm8.909-12.207a4.071 4.071 0 01-4.076 4.077H8.322a4.081 4.081 0 01-4.077-4.077v-8.838a4.081 4.081 0 014.077-4.077h41.356a4.081 4.081 0 014.076 4.077v8.838z" fill="#243746"/><path d="M45.821 28.884a5.075 5.075 0 00-5.069 5.07 5.062 5.062 0 005.07 5.07 5.067 5.067 0 005.07-5.069 5.076 5.076 0 00-5.07-5.07zm2.226 6.322c-.624 1.105-2.078 1.583-3.219 1.101a2.55 2.55 0 01-1.559-2.352 2.556 2.556 0 012.553-2.553 2.556 2.556 0 012.225 3.804zm-35.869-6.322a5.076 5.076 0 00-5.07 5.07 5.075 5.075 0 005.07 5.07 5.075 5.075 0 005.07-5.07 5.076 5.076 0 00-5.07-5.07zm0 7.622a2.555 2.555 0 01-2.553-2.551 2.556 2.556 0 012.553-2.553 2.556 2.556 0 012.552 2.553 2.555 2.555 0 01-2.552 2.551zm21.418-3.81h-9.194v2.517h9.194v-2.517z" fill="#243746"/></svg>