<svg width="44" height="44" fill="none" xmlns="http://www.w3.org/2000/svg"><path d="M26.077 6.02H24.71c-1.625 0-3.094.756-4.138 2.128-1.186 1.56-1.788 3.822-1.788 6.723 0 2.508.565 4.605 1.634 6.067 1.13 1.545 2.778 2.361 4.766 2.361h.892a.876.876 0 00.876-.876V6.896a.877.877 0 00-.876-.876zM25.2 21.547h-.015c-2.953 0-4.647-2.434-4.647-6.676 0-5.233 2.156-7.098 4.173-7.098h.49v13.774z" fill="#243746"/><path d="M32.852.765C32.346.272 31.642 0 30.872 0h-6.003c-3.471 0-6.674 1.338-9.02 3.767-2.665 2.761-4.074 6.784-4.074 11.632 0 5.159 2.103 9.334 5.944 11.855l-6.983 12.64c-.503.908-.508 1.95-.013 2.788.486.825 1.366 1.318 2.354 1.318h3.738c1.18 0 2.158-.608 2.62-1.627l5.766-11.28v10.341c0 1.391 1.174 2.566 2.564 2.566h3.265c1.517 0 2.618-1.101 2.618-2.618V2.725c0-.765-.283-1.461-.796-1.96zm-.957 40.617c0 .542-.323.865-.865.865h-3.265a.833.833 0 01-.811-.813v-12.99a.876.876 0 00-.877-.877h-.505c-.33 0-.63.185-.78.478l-6.929 13.551a.8.8 0 00-.021.045c-.178.403-.524.607-1.027.607h-3.738c-.366 0-.674-.166-.844-.455-.176-.298-.162-.69.037-1.049l7.389-13.374a.876.876 0 00-.333-1.186c-3.793-2.162-5.798-5.89-5.798-10.784 0-9.426 5.696-13.646 11.341-13.646h6.003c.316 0 .578.093.758.268.173.169.265.412.265.704v38.657z" fill="#243746"/><path d="M30.24 27.61a.877.877 0 00-.877.876v.35a.877.877 0 001.753 0v-.35a.876.876 0 00-.876-.876zm0 3.418a.877.877 0 00-.877.876v8.678a.876.876 0 001.753 0v-8.678a.877.877 0 00-.876-.876z" fill="#243746"/></svg>