<svg width="43" height="43" fill="none" xmlns="http://www.w3.org/2000/svg"><path d="M16.07 10.863h-2.716a.679.679 0 100 1.358h1.958a2.947 2.947 0 01-2.864 2.263 2.946 2.946 0 01-2.942-2.942A2.945 2.945 0 0112.448 8.6c.718 0 1.409.261 1.946.735a.679.679 0 10.898-1.019 4.296 4.296 0 00-2.844-1.074c-2.37 0-4.3 1.93-4.3 4.3 0 2.371 1.93 4.3 4.3 4.3 2.371 0 4.3-1.929 4.3-4.3a.679.679 0 00-.678-.679zm16.292-7.242a4.305 4.305 0 00-4.3 4.3c0 2.371 1.93 4.3 4.3 4.3 2.371 0 4.3-1.929 4.3-4.3 0-2.37-1.928-4.3-4.3-4.3zm0 7.242a2.946 2.946 0 01-2.942-2.942 2.946 2.946 0 012.942-2.942 2.946 2.946 0 012.943 2.942 2.946 2.946 0 01-2.943 2.942z" fill="#243746"/><path d="M40.55 11.527c.399-.962.64-1.882.64-2.7C41.19 3.958 37.23 0 32.363 0c-1.514 0-2.94.383-4.186 1.058A21.481 21.481 0 0021.5 0 21.359 21.359 0 006.297 6.297 21.359 21.359 0 000 21.5a21.36 21.36 0 006.297 15.203A21.359 21.359 0 0021.5 43a21.359 21.359 0 0015.203-6.297A21.36 21.36 0 0043 21.5c0-3.473-.848-6.917-2.45-9.973zm-8.187-10.17c4.118 0 7.468 3.351 7.468 7.47 0 3.23-5.006 9.128-7.468 11.7-2.462-2.57-7.468-8.468-7.468-11.7 0-4.119 3.35-7.47 7.468-7.47zM1.358 21.5c0-11.106 9.036-20.142 20.142-20.142 1.776 0 3.528.23 5.224.684a8.812 8.812 0 00-3.187 6.784c0 .784.221 1.66.59 2.579L2.039 26.696a20.106 20.106 0 01-.681-5.196zM21.5 41.642c-7.109 0-13.369-3.702-16.955-9.279l5.859-4.28a.672.672 0 00.078-1.019l-.01-.01a.672.672 0 00-.871-.067l-5.753 4.205a20.046 20.046 0 01-1.392-3.132l22.248-15.404c.393.762.86 1.535 1.368 2.295l-13.78 10.07a.672.672 0 00-.079 1.017l.01.01a.672.672 0 00.872.068l2.718-1.987 11.632 16.617c-1.88.582-3.877.896-5.945.896zm7.277-1.36L16.909 23.327l2.557-1.868 12.197 17.424a20.062 20.062 0 01-2.886 1.397zm4.035-2.125l-12.25-17.499 6.286-4.593c2.247 3.1 4.843 5.723 5.034 5.914a.68.68 0 00.962 0c.25-.251 4.647-4.692 6.956-8.904a20.213 20.213 0 011.842 8.425c0 6.916-3.504 13.029-8.83 16.657z" fill="#243746"/></svg>