<svg width="49" height="20" fill="none" xmlns="http://www.w3.org/2000/svg"><g clip-path="url(#clip0_207_395)" fill="#243746"><path d="M20.842 10c0-1.23-.243-2.403-.666-3.492-.113 3.582-3.907 6.356-6.135 8.192h5.576c.78-1.402 1.225-3 1.225-4.7zM16.81 2.112A10.638 10.638 0 0010.42 0C4.665 0 0 4.477 0 10s4.665 10 10.42 10c2.637 0 5.037-.946 6.87-2.494H9.747l-.022-2.127c4.545-3.792 7.332-6.357 7.332-8.834 0-.92-.365-2.082-2.01-2.082-1.301 0-2.558.723-2.33 3.748h-2.65c-.662-3.507 1.325-6.292 5.117-6.292.587 0 1.132.068 1.627.193zm13.697 4.8h2.465c.084-1.8-.548-4.65-4.614-4.65-2.992 0-5.163 1.718-5.163 5.297 0 .485.022 2.992.022 4.549 0 3.881 2.802 4.73 5.162 4.73 1.412 0 3.455-.303 4.403-1.293V9.358h-4.635v2.245h2.065v2.728c-1.56.506-4.403.709-4.403-2.728V7.559c0-2.406 1.158-3.236 2.443-3.236 1.328 0 2.255.648 2.255 2.589zm18.334 6.005c.106-5.54-6.51-3.7-6.446-6.794.02-1.091.758-1.8 1.96-1.8 1.284 0 2.043.729 2.02 2.63H48.8c.064-1.72-.357-4.651-4.36-4.651-2.486 0-4.53 1.173-4.572 3.78-.106 5.318 6.551 3.58 6.446 6.794-.042 1.314-1.032 1.9-2.149 1.9-1.306 0-2.36-.728-2.149-2.91h-2.444c-.273 2.89 1.054 4.953 4.572 4.953 2.97 0 4.656-1.578 4.698-3.902zm-11.13 3.72h-2.485V2.483h2.486v14.152zm0 0h-2.485V2.483h2.486v14.152z"/></g><defs><clipPath id="clip0_207_395"><path fill="#fff" d="M0 0h48.843v20H0z"/></clipPath></defs></svg>