<svg width="58" height="58" fill="none" xmlns="http://www.w3.org/2000/svg"><path d="M41.263 36.854c-2.563 0-4.648 2.142-4.648 4.775 0 2.632 2.085 4.774 4.648 4.774 2.564 0 4.649-2.142 4.649-4.774 0-2.633-2.085-4.775-4.649-4.775zm0 7.081c-1.202 0-2.18-1.035-2.18-2.306 0-1.273.978-2.307 2.18-2.307 1.203 0 2.18 1.034 2.18 2.306 0 1.273-.977 2.307-2.18 2.307zm-24.527-7.081c-2.563 0-4.648 2.142-4.648 4.775 0 2.632 2.085 4.774 4.648 4.774 2.563 0 4.648-2.142 4.648-4.774 0-2.633-2.085-4.775-4.648-4.775zm0 7.081c-1.202 0-2.18-1.035-2.18-2.306 0-1.273.978-2.307 2.18-2.307 1.202 0 2.18 1.034 2.18 2.306 0 1.273-.978 2.307-2.18 2.307zm16.122-3.541h-7.72v2.468h7.72v-2.468z" fill="#243746"/><path d="M54.605 6.932h-2.138C51.925 3.022 48.562 0 44.505 0h-31.01c-4.057 0-7.42 3.021-7.963 6.932H3.395C1.523 6.932 0 8.49 0 10.407v11c0 1.916 1.523 3.474 3.395 3.474h2.059v18.24c0 3.874 2.753 7.116 6.405 7.874v2.17c0 2.666 2.054 4.835 4.577 4.835h.72c2.523 0 4.577-2.169 4.577-4.834v-2.003h14.534v2.003c0 2.665 2.054 4.834 4.577 4.834h.72c2.523 0 4.576-2.169 4.576-4.834v-2.171c3.652-.758 6.406-4 6.406-7.873v-18.24h2.06c1.871 0 3.394-1.56 3.394-3.475v-11c0-1.916-1.523-3.475-3.395-3.475zm-41.11-4.464h31.01a5.58 5.58 0 015.573 5.573v2.503H7.922V8.041a5.58 5.58 0 015.573-5.573zM7.922 13.012h19.703v18.6H7.922v-18.6zm22.17 0h19.986v18.6H30.092v-18.6zM3.396 22.413c-.511 0-.927-.451-.927-1.006v-11c0-.555.416-1.007.927-1.007h2.059v13.013h-2.06zm15.87 30.753c0 1.304-.947 2.366-2.11 2.366h-.719c-1.163 0-2.109-1.062-2.109-2.366v-2.003h4.938v2.003zm22.298 2.366h-.719c-1.162 0-2.108-1.062-2.108-2.366v-2.003h4.936v2.003c0 1.304-.946 2.366-2.109 2.366zm2.941-6.837h-31.01a5.58 5.58 0 01-5.573-5.573V34.08h42.156v9.04a5.58 5.58 0 01-5.574 5.574zm11.028-27.288c0 .555-.416 1.006-.927 1.006h-2.06V9.4h2.06c.511 0 .927.452.927 1.007v11z" fill="#243746"/></svg>