<svg width="52" height="52" fill="none" xmlns="http://www.w3.org/2000/svg"><path d="M49.202 33.917h-3.15L45.205 8.24a2.152 2.152 0 00-2.16-2.09 2.152 2.152 0 00-2.16 2.09l-.846 25.678h-5.523a.763.763 0 000 1.527h14.686c.701 0 1.272.57 1.272 1.272v6.336c0 .702-.571 1.272-1.272 1.272h-32.04a.763.763 0 100 1.527h32.04A2.802 2.802 0 0052 43.053v-6.337a2.802 2.802 0 00-2.798-2.799zM42.412 8.29a.632.632 0 01.634-.613c.344 0 .622.27.634.613l.845 25.628h-2.959l.845-25.628z" fill="#243746"/><path d="M14.109 44.324H2.799c-.702 0-1.273-.57-1.273-1.272v-6.336c0-.702.571-1.272 1.272-1.272h28.665a.763.763 0 100-1.527H11.962L11.115 8.24a2.152 2.152 0 00-2.16-2.09 2.152 2.152 0 00-2.16 2.09L6.41 19.923a.763.763 0 101.526.05L8.32 8.29a.632.632 0 01.634-.613c.344 0 .623.27.634.613l.845 25.628H7.476l.359-10.893a.763.763 0 10-1.526-.05l-.36 10.943h-3.15A2.802 2.802 0 000 36.716v6.336a2.802 2.802 0 002.798 2.799h11.31a.763.763 0 000-1.527z" fill="#243746"/><path d="M5.916 40.746a.763.763 0 100 1.526h2.438a.763.763 0 100-1.526H5.916zm8.192 0h-2.439a.763.763 0 100 1.526h2.439a.763.763 0 100-1.526zm3.319 0a.763.763 0 100 1.526h2.438a.763.763 0 100-1.526h-2.438zm5.754 0a.763.763 0 100 1.526h2.438a.763.763 0 100-1.526h-2.438zm17.255 1.526a.763.763 0 000-1.526h-2.438a.763.763 0 100 1.526h2.438zm5.675 0a.763.763 0 000-1.526h-2.438a.763.763 0 100 1.526h2.438zM16.658 18.701c5.152-5.152 13.536-5.152 18.688 0a.76.76 0 001.08 0 .763.763 0 000-1.079c-5.748-5.747-15.1-5.747-20.847 0a.763.763 0 001.08 1.08z" fill="#243746"/><path d="M33.527 21.596a.763.763 0 000-1.08c-4.147-4.146-10.892-4.15-15.044-.012a.763.763 0 101.07 1.089c3.556-3.553 9.34-3.552 12.894.003a.763.763 0 001.08 0z" fill="#243746"/><path d="M30.15 24.66a.763.763 0 00.54-1.303A6.586 6.586 0 0026 21.416c-1.77 0-3.435.69-4.688 1.941a.763.763 0 101.08 1.08A5.07 5.07 0 0126 22.941a5.07 5.07 0 013.609 1.494c.149.15.344.224.54.224z" fill="#243746"/><path d="M23.8 25.84a.764.764 0 00-.226.543c-.01.676.848 1.018 1.308.535A1.577 1.577 0 0126 26.457c.424 0 .823.165 1.123.465.74.69 1.77-.34 1.08-1.08a3.118 3.118 0 00-4.402-.002z" fill="#243746"/></svg>