<svg width="36" height="36" fill="none" xmlns="http://www.w3.org/2000/svg"><g clip-path="url(#clip0_416_196)" fill="#243746"><path d="M10.54 14h5.333a.833.833 0 100-1.666H10.54a.833.833 0 000 1.667zm10.333 3.75H10.54a.833.833 0 000 1.667h10.333a.833.833 0 000-1.666zm0 5.417H10.54a.833.833 0 000 1.667h10.333a.833.833 0 000-1.667z"/><path d="M32.79 29.417V3.167A3.042 3.042 0 0029.664.002H11.747c-1.833 0-3.541 1.333-3.541 3.167v1.416H6.749a3.625 3.625 0 00-3.542 3.459v26.29c.054.508.37.95.833 1.167.48.212 1.04.113 1.417-.25l2.541-2.292 3.042 2.709c.227.21.524.329.833.333.308-.012.603-.13.834-.333l3-2.709 3 2.709a1.25 1.25 0 001.666 0l3.042-2.709 2.5 2.292a1 1 0 001.25.25 1.25 1.25 0 00.625-1.167v-5.916l.5-.375 2.541 2.291c.235.225.55.345.875.334a.75.75 0 00.417-.084c.438-.218.7-.678.666-1.166zm-6.667 4L24.165 31.5a1.167 1.167 0 00-1.625-.041l-3.042 2.708-2.958-2.709a1.333 1.333 0 00-1.667 0l-3 2.709-3.041-2.709a1.375 1.375 0 00-1.792.042l-2.166 1.917V8.043A1.958 1.958 0 016.748 6.25h17.917c.916 0 1.458.875 1.458 1.792v25.374zm5-30.25V28.5l-2.084-1.916c-.333-.334-.416-.417-1.25-.292V8.042c0-1.833-1.291-3.458-3.124-3.458H9.873V3.168c0-.917.959-1.5 1.875-1.5h17.916a1.375 1.375 0 011.459 1.5z"/></g><defs><clipPath id="clip0_416_196"><path fill="#fff" d="M0 0h36v36H0z"/></clipPath></defs></svg>