<svg width="52" height="52" fill="none" xmlns="http://www.w3.org/2000/svg"><path d="M51.188 30.875h-16.25V29.25h.812a.813.813 0 000-1.625h-.813v-.813a3.25 3.25 0 016.5 0 .813.813 0 001.626 0 4.875 4.875 0 10-9.75 0v4.063H19.678a2.421 2.421 0 00.634-1.625v-4.875a.813.813 0 00-.813-.813H7.312a.813.813 0 00-.812.813v4.875c.002.602.228 1.18.634 1.625H.812a.813.813 0 00-.812.813v19.5c0 .448.364.812.813.812h50.374a.813.813 0 00.813-.813v-19.5a.813.813 0 00-.813-.812zM8.124 25.187h10.563v4.063a.813.813 0 01-.813.813H8.937a.813.813 0 01-.812-.813v-4.063zM13 50.376H1.625v-9.75H13v9.75zM13 39H1.625v-6.5h2.438c0 .449.363.813.812.813H9.75a.813.813 0 00.813-.813H13V39zm24.375 11.375h-22.75V32.5h22.75v17.875zm13 0H39v-9.75h11.375v9.75zm0-11.375H39v-6.5h2.438c0 .449.363.813.812.813h4.875a.813.813 0 00.813-.813h2.437V39z" fill="#243746"/><path d="M16.25 44.688h19.5a.813.813 0 00.813-.813V35.75a.813.813 0 00-.813-.813h-19.5a.813.813 0 00-.813.813v8.125c0 .449.364.813.813.813zm.813-8.126h17.875v6.5H17.061v-6.5zm13.812 10.563h-9.75a.813.813 0 000 1.625h9.75a.813.813 0 000-1.625zM8.938 12.188h34.124a.813.813 0 00.813-.813V.812A.813.813 0 0043.062 0H8.938a.813.813 0 00-.813.813v10.562c0 .449.364.813.813.813zM26.811 1.624H42.25v8.938H26.812V1.624zm-17.062 0h15.438v8.938H9.75V1.624z" fill="#243746"/><path d="M20.313 5.688h-6.5a.813.813 0 000 1.625h6.5a.813.813 0 000-1.625zm17.875 0h-6.5a.813.813 0 000 1.625h6.5a.813.813 0 000-1.625zM9.262 20.069a2.275 2.275 0 00-1.137 1.869.813.813 0 001.625 0c0-.172.081-.262.488-.57a2.275 2.275 0 001.137-1.868 2.275 2.275 0 00-1.137-1.869c-.41-.308-.488-.398-.488-.569 0-.17.081-.26.488-.568a2.275 2.275 0 001.137-1.869.813.813 0 00-1.625 0c0 .17-.081.26-.488.569a2.275 2.275 0 00-1.137 1.868 2.275 2.275 0 001.137 1.87c.407.307.488.397.488.568 0 .17-.081.26-.488.569zm5.038-3.575a2.275 2.275 0 001.137-1.869.813.813 0 00-1.624 0c0 .17-.082.26-.488.569a2.275 2.275 0 00-1.137 1.868 2.275 2.275 0 001.137 1.87c.406.307.488.397.488.568 0 .17-.082.262-.488.569a2.275 2.275 0 00-1.137 1.869.813.813 0 001.624 0c0-.172.082-.262.488-.57a2.275 2.275 0 001.137-1.868 2.275 2.275 0 00-1.137-1.869c-.406-.308-.488-.398-.488-.569 0-.17.082-.262.488-.568zm4.063 0a2.275 2.275 0 001.137-1.869.813.813 0 00-1.625 0c0 .17-.081.26-.488.569a2.275 2.275 0 00-1.137 1.868 2.275 2.275 0 001.137 1.87c.407.307.488.397.488.568 0 .17-.081.262-.488.569a2.275 2.275 0 00-1.137 1.869.813.813 0 001.625 0c0-.172.081-.262.488-.57A2.275 2.275 0 0019.5 19.5a2.275 2.275 0 00-1.137-1.869c-.407-.308-.488-.398-.488-.569 0-.17.081-.262.488-.568z" fill="#243746"/></svg>