<svg width="52" height="52" fill="none" xmlns="http://www.w3.org/2000/svg"><path d="M45.5 26.813a3.25 3.25 0 10-6.5 0 3.25 3.25 0 006.5 0zm-4.875 0a1.625 1.625 0 113.25 0 1.625 1.625 0 01-3.25 0zM45.5 5.688a4.875 4.875 0 100 9.75 4.875 4.875 0 000-9.75zm0 8.125a3.25 3.25 0 110-6.5 3.25 3.25 0 010 6.5zm-11.375 8.125a4.063 4.063 0 100-8.127 4.063 4.063 0 000 8.127zm0-6.5a2.438 2.438 0 110 4.875 2.438 2.438 0 010-4.875zM22.75 23.563H13a.812.812 0 00-.813.812v4.875a.812.812 0 00.813.813h9.75a.812.812 0 00.813-.813v-4.875a.812.812 0 00-.813-.813zm-.813 4.875h-8.125v-3.25h8.126v3.25z" fill="#243746"/><path d="M49.563 44.688h-5.974a7.309 7.309 0 00-4.589-13c-.82 0-1.609.177-2.443.364-.98.22-1.993.448-3.245.448-1.251 0-2.264-.228-3.244-.448-.834-.187-1.622-.364-2.443-.364V19.5a4.067 4.067 0 00-4.063-4.063h-.812V13a.812.812 0 00-.813-.813h-1.625V7.314h3.25V9.75a.812.812 0 00.813.813h3.25a.812.812 0 00.813-.813V6.5a4.067 4.067 0 00-4.063-4.063h-9.75a2.44 2.44 0 00-2.438 2.438V6.5a.812.812 0 00.813.813h2.438v4.875h-1.626A.812.812 0 0013 13v2.438h-.813A4.067 4.067 0 008.125 19.5v22.75c0 .88.285 1.735.815 2.438H2.438a.812.812 0 00-.813.812 4.067 4.067 0 004.063 4.063h40.624a4.067 4.067 0 004.063-4.063.812.812 0 00-.813-.813zm-19.851-11.05c1.016.228 2.169.487 3.6.487 1.433 0 2.585-.259 3.601-.487.777-.175 1.447-.325 2.087-.325a5.688 5.688 0 110 11.374H27.625a5.688 5.688 0 110-11.374c.64 0 1.31.15 2.087.325zM20.312 39c0 .272.016.543.047.813H9.75V21.936H26v9.935A7.324 7.324 0 0020.312 39zm-6.5-34.125a.813.813 0 01.813-.813h9.75A2.44 2.44 0 0126.813 6.5v2.438h-1.625V6.5a.812.812 0 00-.813-.813H13.812v-.812zm3.25 2.438h1.625v4.875h-1.625V7.311zm-2.437 6.5h6.5v1.624h-6.5v-1.624zm-2.438 3.25h11.376A2.44 2.44 0 0126 19.5v.813H9.75V19.5a2.44 2.44 0 012.438-2.438zM9.75 42.25v-.813h10.982a7.34 7.34 0 002.304 3.25H12.187A2.44 2.44 0 019.75 42.25zm36.563 5.688H5.687a2.442 2.442 0 01-2.298-1.626h45.222a2.442 2.442 0 01-2.298 1.626z" fill="#243746"/><path d="M26.813 35.75a.812.812 0 00.812.813c.64 0 1.31.15 2.087.325 1.016.228 2.169.487 3.6.487 1.433 0 2.585-.259 3.601-.487.777-.175 1.447-.325 2.087-.325a.812.812 0 100-1.626c-.82 0-1.609.178-2.443.365-.98.22-1.993.448-3.245.448-1.251 0-2.264-.228-3.244-.448-.834-.187-1.622-.364-2.443-.364a.812.812 0 00-.813.812z" fill="#243746"/></svg>