<svg width="52" height="52" fill="none" xmlns="http://www.w3.org/2000/svg"><path d="M36.563 17.063H15.436a.812.812 0 100 1.625h21.126a.812.812 0 100-1.625zm-21.125 4.062a.812.812 0 00-.813.813V32.5a.812.812 0 101.625 0V21.937a.812.812 0 00-.813-.812zm0-6.5a.812.812 0 00.812-.813v-3.25a.812.812 0 10-1.625 0v3.25a.812.812 0 00.813.813z" fill="#243746"/><path d="M33.313 1.625H18.687a7.324 7.324 0 00-7.312 7.313v39a2.445 2.445 0 002.438 2.437h24.374a2.445 2.445 0 002.438-2.438v-39a7.324 7.324 0 00-7.313-7.312zM39 47.938a.812.812 0 01-.813.812H13.814a.812.812 0 01-.813-.813v-39a5.694 5.694 0 015.688-5.687h14.625A5.694 5.694 0 0139 8.938v39z" fill="#243746"/><path d="M33.889 40.048a.82.82 0 010 1.154.824.824 0 01-1.154 0l-1.381-1.39h-3.396l2.437 2.438h1.292a.812.812 0 110 1.625h-.813v.813a.812.812 0 11-1.625 0v-1.292l-2.437-2.438v3.396l1.39 1.382a.82.82 0 010 1.153.824.824 0 01-1.155 0L26 45.833l-1.048 1.056a.816.816 0 01-1.154-1.153l1.39-1.382v-3.396l-2.438 2.438v1.291a.812.812 0 11-1.625 0v-.812h-.812a.812.812 0 110-1.625h1.292l2.437-2.438h-3.396l-1.381 1.39a.824.824 0 01-1.154 0 .82.82 0 010-1.154L19.166 39l-1.056-1.048a.816.816 0 011.154-1.154l1.381 1.39h3.396l-2.437-2.438h-1.292a.812.812 0 110-1.625h.812v-.813a.812.812 0 111.625 0v1.292l2.438 2.438v-3.396l-1.39-1.382a.817.817 0 011.154-1.153L26 32.167l1.049-1.056a.817.817 0 011.153 1.153l-1.39 1.382v3.396l2.438-2.438v-1.291a.812.812 0 111.625 0v.812h.813a.812.812 0 110 1.625h-1.292l-2.438 2.438h3.397l1.381-1.39a.816.816 0 011.154 1.154L32.833 39l1.056 1.048zM19.5 9.019c.07 0 .163.113.347.382a2.027 2.027 0 001.684 1.08 2.026 2.026 0 001.682-1.08c.376-.542.325-.536.696 0a1.85 1.85 0 003.365 0c.188-.27.277-.382.349-.382.071 0 .14.081.349.382a1.854 1.854 0 003.369 0c.208-.3.284-.382.35-.382a.813.813 0 000-1.625 2.032 2.032 0 00-1.685 1.08c-.208.3-.284.382-.35.382s-.141-.081-.35-.382a1.852 1.852 0 00-3.366 0c-.373.535-.32.54-.696 0a1.85 1.85 0 00-3.365 0c-.375.538-.32.537-.695 0a2.027 2.027 0 00-1.684-1.08.812.812 0 100 1.625z" fill="#243746"/></svg>