<svg width="52" height="52" fill="none" xmlns="http://www.w3.org/2000/svg"><path d="M11.25 36.311c0-2.516-4.62-1.535-4.62-4.947 0-2.104 1.764-2.729 3.285-2.729.924 0 2.587.242 2.587 1.024 0 .284-.2.81-.626.81-.384 0-.753-.54-1.961-.54-1.038 0-1.777.398-1.777 1.293 0 2.104 4.62 1.152 4.62 4.933 0 2.033-1.365 3.028-3.241 3.028-1.849 0-3.142-.966-3.142-1.678 0-.34.298-.81.654-.81.512 0 .853 1.123 2.43 1.123 1.024 0 1.792-.483 1.792-1.507zm2.191 2.133c0-.043 0-.086.014-.128l2.83-9.212c.113-.341.525-.512.952-.512.426 0 .853.17.966.512l2.815 9.212a.414.414 0 01.028.128c0 .355-.526.625-.952.625-.242 0-.44-.085-.512-.313L19 36.738h-3.512l-.583 2.018c-.07.228-.27.313-.526.313-.412 0-.938-.256-.938-.625zm5.217-2.915l-1.421-4.875-1.422 4.875h2.843zm8.457-6.368c0-.341.37-.484.753-.484.37 0 .753.143.753.484v6.823c0 2.303-1.421 3.17-3.255 3.17-1.82 0-3.241-.867-3.241-3.17v-6.823c0-.341.37-.484.753-.484.37 0 .754.143.754.484v6.823c0 1.251.654 1.834 1.734 1.834 1.094 0 1.749-.583 1.749-1.834v-6.823zm8.246 9.354l-3.397-6.468v6.525c0 .326-.37.497-.754.497-.37 0-.753-.17-.753-.498v-9.396c0-.355.37-.498.753-.498.54 0 .796.2 1.137.854l3.156 6.155V29.16c0-.341.384-.484.754-.484.383 0 .753.143.753.484v9.41c0 .327-.37.498-.753.498-.37 0-.697-.184-.896-.554zm2.784-.071c0-.043 0-.086.014-.128l2.829-9.212c.113-.341.526-.512.952-.512.427 0 .853.17.967.512l2.814 9.212a.39.39 0 01.029.128c0 .355-.526.625-.953.625-.241 0-.44-.085-.511-.313l-.583-2.018h-3.511l-.583 2.018c-.071.228-.27.313-.526.313-.413 0-.938-.256-.938-.625zm5.216-2.915l-1.421-4.875-1.421 4.875h2.843z" fill="#243746"/><path d="M49.578 19.503h-5.329a2.751 2.751 0 00-.497-.53l-7.405-6.046a.762.762 0 00-.964 1.18l6.607 5.396h-3.83l-8.207-6.739a5.544 5.544 0 001.275-2.049l1.414 1.154a.762.762 0 00.964-1.18l-2.07-1.69c0-.037.003-.073.003-.109A5.545 5.545 0 0026 3.352a5.545 5.545 0 00-5.539 5.538c0 .04.002.078.003.116-4.181 3.43-12.608 10.35-12.713 10.497H2.422A2.425 2.425 0 000 21.925V46.16a2.425 2.425 0 002.422 2.423h9.316a.762.762 0 100-1.525H2.422a.9.9 0 01-.898-.898v-2.864h48.952v2.864a.9.9 0 01-.898.898h-34.3a.762.762 0 100 1.525h34.3A2.425 2.425 0 0052 46.16V21.925a2.425 2.425 0 00-2.422-2.422zm-26.29-5.786a5.5 5.5 0 002.712.712c.985 0 1.91-.26 2.712-.712l7.046 5.786H16.242l7.046-5.786zM26 4.876a4.02 4.02 0 014.015 4.014A4.02 4.02 0 0126 12.905a4.02 4.02 0 01-4.015-4.015A4.02 4.02 0 0126 4.876zm-5.229 5.84a5.545 5.545 0 001.276 2.048l-8.208 6.739h-3.83l10.762-8.788zm29.705 31.056H1.524V26.314h48.952v15.458zm0-16.982H1.524v-2.865a.9.9 0 01.898-.898h47.156a.9.9 0 01.898.898v2.865z" fill="#243746"/></svg>