<svg width="52" height="52" fill="none" xmlns="http://www.w3.org/2000/svg"><path d="M51.238 42.666H47.24V14.314h1.524c.42 0 .762-.342.762-.763V9.334h1.71A.762.762 0 0052 8.57V2.575c0-.42-.34-.762-.762-.762H23.764a.762.762 0 000 1.525h26.711v4.471H14.55a.762.762 0 000 1.525h33.454v3.455H3.997V9.334H11.5a.762.762 0 100-1.525H1.524V3.338h19.191a.762.762 0 000-1.525H.762A.762.762 0 000 2.575v5.996c0 .421.34.763.762.763h1.71v4.217c0 .421.342.763.763.763h1.524v28.352H.762A.762.762 0 000 43.43v5.996c0 .42.34.762.762.762H11.5a.762.762 0 100-1.524H1.524V44.19h19.191a.762.762 0 000-1.525H14.06V20.868h23.88v21.798H23.764a.762.762 0 000 1.525h26.711v4.471H14.55a.762.762 0 000 1.525h36.689a.762.762 0 00.762-.762v-5.996a.762.762 0 00-.762-.763zm-5.522 0h-6.25v-22.56a.763.763 0 00-.762-.763H13.296a.763.763 0 00-.762.762v22.561h-6.25V14.314h39.432v28.352z" fill="#243746"/><path d="M33.032 30.376a.762.762 0 00-1.49.227c.007 1.06-.25 1.679-.493 2.025-2.128-3.521-1.127-9.686-1.115-9.75a.762.762 0 00-1.101-.805c-3.017 1.552-4.51 4.551-4.843 7.954a15.956 15.956 0 01-.246-2.457.763.763 0 00-1.305-.526c-2.537 2.578-2.341 4.882-1.738 6.44-.463-.29-.916-.79-1.15-1.65-.218-.808-1.402-.717-1.493.115-.01.087-.224 2.138.41 4.417 2.583 9.239 15.276 7.16 15.515-.883.054-1.798-.48-3.556-.95-5.107zm-.573 5.062c-.196 6.609-11.51 8.306-12.8-.828.893.648 1.913.825 2.55.793a.763.763 0 00.605-1.168c-.592-.938-1.601-2.536-.437-4.631.21 1.545.734 3.677 2.292 3.831a.762.762 0 00.83-.855c-.007-.06-.65-5.405 2.738-8.288-.188 2.394-.196 6.814 1.848 9.64.176.243.448.409.747.451.618.091 1.093-.352 1.456-.867a8.9 8.9 0 01.17 1.922z" fill="#243746"/><path d="M29.182 36.154c-.52-1.046-.66-2.465-.626-3.633 0-.992-1.177-1.343-1.733-.64-1.09 1.371-1.44 2.665-1.517 3.616-.305-.185-.558-.298-.875-.298-.58 0-1.084.393-1.23.956-.364 1.422.172 2.7 1.146 3.443 1.191 1.1 3.636 1.034 4.663-.36.695-.943.69-2.039.172-3.084zm-3.816 2.31c-.175-.17-.845-.605-.749-1.598.58.397.703.778 1.275.778.6 0 1.06-.536.966-1.128-.104-.644-.035-1.404.26-2.159.267 2.133.91 2.514.91 3.263 0 1.382-2.017 1.466-2.662.844z" fill="#243746"/></svg>