<svg width="36" height="36" fill="none" xmlns="http://www.w3.org/2000/svg"><g clip-path="url(#clip0_416_52)" fill="#243746"><path d="M9.82 17.182a.818.818 0 10-1.636 0c0 2.148 2.37 5.098 2.64 5.428a.82.82 0 001.152.114.82.82 0 00.113-1.152c-.877-1.07-2.269-3.206-2.269-4.39zm17.179-.818a.818.818 0 00-.818.818c0 1.18-1.392 3.319-2.27 4.39a.819.819 0 001.266 1.038c.27-.33 2.64-3.28 2.64-5.428a.818.818 0 00-.818-.818zm-8.997 0a.818.818 0 00-.818.818v4.909a.818.818 0 101.636 0v-4.91a.818.818 0 00-.818-.817z"/><path d="M27 3.273a8.57 8.57 0 00-1.552.165A9.793 9.793 0 0018 0a9.793 9.793 0 00-7.448 3.438A8.578 8.578 0 009 3.273c-4.963 0-9 4.037-9 9 0 3.4 1.918 6.492 4.928 8.02l-.016 12.365c0 .892.346 1.731.977 2.362.63.633 1.469.98 2.362.98h19.502a3.342 3.342 0 003.338-3.338v-12.38a9 9 0 004.91-8.01c-.001-4.962-4.038-9-9.001-9zm2.455 29.389c0 .938-.764 1.702-1.702 1.702H8.25c-.455 0-.883-.178-1.205-.5a1.69 1.69 0 01-.497-1.204l.004-3.205h22.902v3.207zm.506-13.654a.802.802 0 00-.373.31.808.808 0 00-.133.465v8.035h-22.9l.01-8.024a.82.82 0 00-.509-.777 7.362 7.362 0 01-4.42-6.744c0-4.06 3.303-7.364 7.364-7.364.159 0 .326.02.49.032a9.747 9.747 0 00-1.308 4.877.818.818 0 101.636 0c0-4.511 3.67-8.182 8.182-8.182 4.511 0 8.182 3.671 8.182 8.182a.818.818 0 101.636 0 9.747 9.747 0 00-1.309-4.877c.165-.013.332-.032.491-.032 4.06 0 7.364 3.303 7.364 7.364a7.365 7.365 0 01-4.403 6.735z"/></g><defs><clipPath id="clip0_416_52"><path fill="#fff" d="M0 0h36v36H0z"/></clipPath></defs></svg>