<svg width="52" height="52" fill="none" xmlns="http://www.w3.org/2000/svg"><g clip-path="url(#clip0_261_1013)" fill="#243746"><path d="M48.345 10.227H12.364a.763.763 0 100 1.527h35.981a2.13 2.13 0 012.128 2.128v16.254a2.13 2.13 0 01-2.128 2.128h-1.828V27.29a.763.763 0 00-.763-.763H6.246a.763.763 0 00-.763.763v4.974H3.655a2.13 2.13 0 01-2.128-2.128V13.882a2.13 2.13 0 012.128-2.128H9.31a.763.763 0 100-1.527H3.655A3.659 3.659 0 000 13.882v16.254a3.659 3.659 0 003.655 3.655H11.6a.763.763 0 100-1.527H7.009v-1.342h30.337a.763.763 0 100-1.527H7.009v-1.342h37.982v1.342h-4.592a.763.763 0 100 1.527h4.592v1.342H14.654a.763.763 0 100 1.526h33.691A3.66 3.66 0 0052 30.137V13.882a3.66 3.66 0 00-3.655-3.655z"/><path d="M45.751 16.434a.763.763 0 000-1.527h-2.257a.763.763 0 100 1.527h2.257zm-5.739 0a.763.763 0 100-1.527H25.564a.763.763 0 000 1.527h14.448zM14.36 35.833a.763.763 0 00-.764.763c0 .023-.024 2.286-2.142 3.791a.763.763 0 10.884 1.244c2.753-1.956 2.785-4.91 2.785-5.035a.763.763 0 00-.763-.763zm5.466 0a.763.763 0 00-.764.763v4.413a.763.763 0 001.527 0v-4.413a.763.763 0 00-.763-.763zm6.39 0a.763.763 0 00-.763.763v4.413a.763.763 0 001.527 0v-4.413a.763.763 0 00-.764-.763zm14.332 4.554c-2.09-1.485-2.141-3.693-2.142-3.794a.763.763 0 00-1.527.003c0 .125.032 3.079 2.784 5.035a.76.76 0 001.065-.18.763.763 0 00-.18-1.064zm-8.375-4.554a.763.763 0 00-.763.763v4.413a.763.763 0 101.527 0v-4.413a.763.763 0 00-.764-.763z"/></g><defs><clipPath id="clip0_261_1013"><path fill="#fff" d="M0 0h52v52H0z"/></clipPath></defs></svg>