<svg width="52" height="52" fill="none" xmlns="http://www.w3.org/2000/svg"><path d="M48.953 5.484H43.91a1.016 1.016 0 100 2.032h5.044c.56 0 1.016.455 1.016 1.015v26c0 .56-.456 1.016-1.016 1.016H3.047c-.56 0-1.016-.456-1.016-1.016v-.975l6.558-6.558a1.016 1.016 0 00-1.436-1.437L2.03 30.683V8.53c0-.56.456-1.015 1.016-1.015h14.001L6.281 18.282a1.016 1.016 0 001.437 1.437l11.95-11.95c.076-.077.137-.162.184-.253h14.92a1.016 1.016 0 100-2.032H3.047A3.05 3.05 0 000 8.531v26a3.05 3.05 0 003.047 3.047H22.14v2.844h-3.453a3.05 3.05 0 00-3.047 3.047V45.5c0 .56.454 1.016 1.015 1.016h18.688c.56 0 1.015-.455 1.015-1.016v-2.031a3.05 3.05 0 00-3.047-3.047H29.86v-2.844h19.094A3.05 3.05 0 0052 34.531v-26a3.05 3.05 0 00-3.047-3.047zM24.172 37.578h3.656v2.844h-3.656v-2.844zm9.14 4.875c.56 0 1.016.456 1.016 1.016v1.015H17.672V43.47c0-.56.456-1.016 1.015-1.016h14.625z" fill="#243746"/><path d="M40.429 5.782a1.023 1.023 0 00-.718-.298c-.267 0-.53.109-.718.298-.189.189-.298.45-.298.718 0 .267.109.53.298.718.189.189.45.298.718.298.267 0 .53-.109.718-.298.189-.189.298-.45.298-.718 0-.267-.11-.53-.298-.718zm-5.252 10.755a1.016 1.016 0 00-1.336.527l-2.637 6.063-2.855-6.09a1.015 1.015 0 10-1.839.863l3.809 8.125c.167.357.526.584.92.584h.014c.399-.005.758-.244.917-.61l3.533-8.125a1.015 1.015 0 00-.526-1.337zm-12.692-.084H17.52a1.016 1.016 0 000 2.031h1.466v7.11a1.016 1.016 0 002.032 0v-7.11h1.467a1.016 1.016 0 000-2.03zm-11.001 6.214a1.023 1.023 0 00-.718-.298c-.268 0-.53.109-.718.298a1.023 1.023 0 00-.298.718 1.02 1.02 0 001.734.718c.189-.19.297-.451.297-.718 0-.267-.108-.53-.297-.718z" fill="#243746"/></svg>