<svg width="52" height="52" fill="none" xmlns="http://www.w3.org/2000/svg"><path d="M48.953 23.719V11.883c0-5.04-4.1-9.14-9.14-9.14h-9.598a1.016 1.016 0 000 2.031h9.598c3.92 0 7.109 3.19 7.109 7.11V22.65a7.48 7.48 0 00-2.438-.408h-.203v-5.823a3.932 3.932 0 00-3.927-3.927H28.912A3.92 3.92 0 0026 13.786a3.918 3.918 0 00-2.912-1.294H11.646a3.932 3.932 0 00-3.927 3.927v5.823h-.203a7.48 7.48 0 00-2.438.408V11.884c0-3.92 3.19-7.11 7.11-7.11h9.8a1.016 1.016 0 000-2.031h-9.8c-5.04 0-9.141 4.1-9.141 9.14V23.72A7.509 7.509 0 000 29.757v13c0 .561.455 1.016 1.016 1.016h2.03v4.469c0 .56.456 1.015 1.017 1.015h5.485c.561 0 1.016-.454 1.016-1.015v-4.469h30.872v4.469c0 .56.455 1.015 1.016 1.015h5.486c.56 0 1.015-.454 1.015-1.015v-4.469h2.031c.561 0 1.016-.455 1.016-1.016v-13a7.51 7.51 0 00-3.047-6.038zm-21.937-7.3c0-1.046.85-1.896 1.896-1.896h11.442c1.046 0 1.896.85 1.896 1.896v5.823H27.016v-5.823zm-17.266 0c0-1.046.85-1.896 1.896-1.896h11.443c1.045 0 1.896.85 1.896 1.896v5.823H9.75v-5.823zM8.532 47.226H5.078v-3.453h3.454v3.453zm38.39 0h-3.454v-3.453h3.454v3.453zm3.047-10.36H9.336a1.016 1.016 0 100 2.032h40.633v2.844h-2.007l-.025-.002h-5.485l-.025.002H9.573l-.025-.002H4.062l-.024.002H2.03V29.757a5.49 5.49 0 015.485-5.484h36.968a5.49 5.49 0 015.485 5.484v7.11z" fill="#243746"/><path d="M26.718 3.04A1.023 1.023 0 0026 2.743c-.267 0-.53.108-.718.297-.189.19-.298.451-.298.718a1.018 1.018 0 001.734.718c.189-.189.298-.45.298-.718 0-.267-.109-.529-.298-.718zM6.011 37.164a1.023 1.023 0 00-.718-.297 1.02 1.02 0 00-1.016 1.015 1.018 1.018 0 001.734.718c.189-.189.298-.45.298-.718 0-.267-.11-.529-.298-.718z" fill="#243746"/></svg>