<svg width="52" height="52" fill="none" xmlns="http://www.w3.org/2000/svg"><path d="M49.4 27.733h-.867v-18.2c0-4.333-3.466-7.8-7.8-7.8-3.836 0-6.595 2.845-6.903 7.012-2.014.381-3.497 2.116-3.497 4.255 0 .52.347.867.867.867h6.933c.52 0 .867-.347.867-.867 0-2.116-1.45-3.836-3.43-4.242.26-2.754 1.914-5.291 5.163-5.291A6.03 6.03 0 0146.8 9.533v18.2H20.716c-.392-1.999-2.12-3.466-4.25-3.466-.866-1.04-2.08-1.734-3.466-1.734-1.646 0-3.12.954-3.813 2.34-.694-.346-1.474-.606-2.254-.606-2.129 0-3.857 1.467-4.25 3.466H2.6c-1.473 0-2.6 1.127-2.6 2.6 0 1.474 1.127 2.6 2.6 2.6h1.042l2.338 9.274c.693 2.686 3.12 4.593 5.893 4.593h.694l-1.127 2.253c-.26.434-.086.954.347 1.127.086.087.26.087.346.087.347 0 .607-.174.78-.434L14.43 46.8h24.05l1.473 2.947c.174.346.434.52.78.52.174 0 .26 0 .347-.174.347-.173.52-.693.347-1.126l-1.086-2.172c2.683-.095 5.004-1.969 5.679-4.502l2.36-9.36h1.02c1.473 0 2.6-1.126 2.6-2.6 0-1.473-1.127-2.6-2.6-2.6zm-12.22-15.6h-4.94c.347-1.04 1.387-1.733 2.513-1.733 1.127 0 2.08.693 2.427 1.733zM6.933 26c.78 0 1.474.347 2.08.953.174.26.52.347.867.26.347-.086.52-.346.607-.693.26-1.3 1.3-2.253 2.6-2.253.953 0 1.82.433 2.253 1.3.173.346.607.52.953.433h.26c1.127 0 2.08.693 2.427 1.733H4.507A2.525 2.525 0 016.933 26zM44.46 41.773c-.52 1.907-2.253 3.294-4.247 3.294H11.96c-1.993 0-3.727-1.387-4.247-3.294l-2.253-8.84h41.08l-2.08 8.84zM49.4 31.2H2.6c-.52 0-.867-.347-.867-.867s.347-.866.867-.866h46.8c.52 0 .867.346.867.866s-.347.867-.867.867z" fill="#243746"/><path d="M31.199 17.767c.52 0 .866-.347.866-.867v-.433c0-.52-.346-.867-.866-.867s-.867.347-.867.867v.433c0 .52.347.867.867.867zm0 3.986c.52 0 .866-.433.866-.866v-.954c0-.52-.346-.866-.866-.866s-.867.346-.867.866v.954c0 .52.347.866.867.866zm0 3.38c.52 0 .866-.346.866-.866v-.434c0-.52-.346-.866-.866-.866s-.867.346-.867.866v.434c0 .52.347.866.867.866zm3.468-7.366c.52 0 .867-.347.867-.867v-.433c0-.52-.347-.867-.867-.867s-.866.347-.866.867v.433c0 .52.346.867.866.867zm-.867 3.12c0 .52.347.866.867.866s.867-.433.867-.866v-.954c0-.52-.347-.866-.867-.866s-.866.346-.866.866v.954zm0 3.38c0 .52.347.866.867.866s.867-.346.867-.866v-.434c0-.52-.347-.866-.867-.866s-.866.346-.866.866v.434zm4.332-6.5c.52 0 .867-.347.867-.867v-.433c0-.52-.347-.867-.867-.867s-.866.347-.866.867v.433c0 .52.346.867.866.867zm-.866 3.12c0 .52.346.866.866.866s.867-.433.867-.866v-.954c0-.52-.347-.866-.867-.866s-.866.346-.866.866v.954zm0 3.38c0 .52.346.866.866.866s.867-.346.867-.866v-.434c0-.52-.347-.866-.867-.866s-.866.346-.866.866v.434z" fill="#243746"/></svg>