<svg width="52" height="52" fill="none" xmlns="http://www.w3.org/2000/svg"><g clip-path="url(#clip0_261_301)" fill="#243746"><path d="M50.426 42.065H18.317c-.367-4.453-3.928-8.013-8.38-8.381V1.575A1.577 1.577 0 008.361.001H1.574C.706.001 0 .707 0 1.575v7.76a.762.762 0 101.523 0v-7.76a.05.05 0 01.051-.05h6.788a.05.05 0 01.05.05v1.791H5.81a.762.762 0 100 1.524h2.604v1.84h-.895a.762.762 0 100 1.524h.895v1.841H5.809a.762.762 0 100 1.524h2.604v1.841h-.895a.762.762 0 100 1.524h.895v1.84H5.809a.762.762 0 100 1.524h2.604v1.842h-.895a.762.762 0 100 1.523h.895v1.843H5.809a.762.762 0 100 1.523h2.604v1.841h-.895a.762.762 0 100 1.524h.895v1.842H5.809a.762.762 0 100 1.523h2.604v1.842h-6.89v-21.27a.762.762 0 10-1.523 0v37.176A2.447 2.447 0 002.444 52h47.982c.868 0 1.574-.706 1.574-1.574v-6.788c0-.868-.706-1.574-1.574-1.574zM1.523 49.557V35.175h7.652c4.218 0 7.65 3.433 7.65 7.651v7.651H2.446a.922.922 0 01-.922-.92zm48.954.87a.05.05 0 01-.051.05H18.349v-6.889h1.842v2.603a.762.762 0 101.523 0v-2.603h1.842v.895a.762.762 0 101.523 0v-.895h1.842v2.603a.762.762 0 101.523 0v-2.603h1.841v.895a.762.762 0 101.524 0v-.895h1.841v2.603a.762.762 0 101.524 0v-2.603h1.841v.895a.762.762 0 101.524 0v-.895h1.842v2.603a.762.762 0 101.523 0v-2.603h1.842v.895a.762.762 0 101.523 0v-.895h1.842v2.603a.762.762 0 101.524 0v-2.603h1.79a.05.05 0 01.052.051v6.788z"/><path d="M9.175 40.381a2.447 2.447 0 00-2.445 2.444 2.447 2.447 0 002.445 2.445 2.447 2.447 0 002.444-2.445 2.447 2.447 0 00-2.444-2.444zm0 3.365a.922.922 0 010-1.841.922.922 0 010 1.841z"/><path d="M9.177 37.016a5.816 5.816 0 00-5.81 5.81 5.816 5.816 0 005.81 5.809 5.816 5.816 0 005.809-5.81 5.816 5.816 0 00-5.81-5.809zm0 10.095a4.29 4.29 0 01-4.286-4.285 4.29 4.29 0 014.286-4.286 4.29 4.29 0 014.286 4.285 4.29 4.29 0 01-4.286 4.286zm12.648-32.526c.18 0 .36-.064.505-.193l2.179-1.936a.762.762 0 10-1.013-1.138l-2.178 1.936a.762.762 0 00.506 1.33zm4.738-4.215c.18 0 .36-.063.506-.191l2.178-1.937a.762.762 0 00-1.012-1.138L26.056 9.04a.762.762 0 00.507 1.33zm-8.977 7.979h1.788a.762.762 0 00.167-1.505.762.762 0 00-1.125-1.014l-1.336 1.188a.762.762 0 00.506 1.331zm9.941-.762a.762.762 0 00-.761-.761h-3.332a.762.762 0 100 1.523h3.332c.42 0 .761-.341.761-.762zm2.993 19.27h1.446v1.842h-.92a.762.762 0 100 1.523h3.364a.762.762 0 100-1.523h-.92v-1.842h3.603a.762.762 0 100-1.523H33.49V18.349h10.255v16.985H40.14a.762.762 0 100 1.523h4.366a.76.76 0 00.761-.762V18.35h2.604a.761.761 0 00.506-1.331L33.49 3.785V1.523h.92a.762.762 0 100-1.523h-3.365a.762.762 0 100 1.523h.921v2.262l-1.08.96a.762.762 0 101.012 1.139l.068-.061v11.002H30.94a.762.762 0 100 1.524h1.026v16.985H30.52a.762.762 0 100 1.523zm15.347-20.031H33.49V5.823l12.377 11.003zM25.8 36.857h2.165a.762.762 0 100-1.523H25.8a.762.762 0 100 1.523zm-4.847 0h2.209a.762.762 0 100-1.523h-1.447v-1.447a.762.762 0 10-1.524 0v2.208c0 .421.341.762.762.762zm0-6.232c.42 0 .762-.34.762-.762v-3.4a.762.762 0 10-1.524 0v3.4c0 .421.341.762.762.762zm0-7.544c.42 0 .762-.34.762-.761v-2.21a.762.762 0 10-1.524 0v2.209c0 .42.341.761.762.761z"/></g><defs><clipPath id="clip0_261_301"><path fill="#fff" d="M0 0h52v52H0z"/></clipPath></defs></svg>