<svg width="238" height="238" fill="none" xmlns="http://www.w3.org/2000/svg"><circle cx="59.293" cy="60.094" r="26.293" stroke="#C4C4C4" stroke-width="2"/><g clip-path="url(#clip0_421_153)"><path d="M101.142 88.889c-.044 1.234-.383 2.375-1.26 3.265-2.488 2.525-4.944 5.088-7.533 7.506-2.047 1.91-4.848 1.797-6.865-.157-2.399-2.318-4.74-4.695-7.087-7.066-.909-.909-1.134-2.01-.684-3.237a.918.918 0 00.008-.588c-.496-1.337-.157-2.457.822-3.437 1.312-1.3 2.619-2.604 3.922-3.912.935-.934 1.877-1.861 2.805-2.803.995-1.01 2.14-1.346 3.496-.836.215.053.442.037.647-.046 1.138-.388 2.188-.225 3.037.607a569.406 569.406 0 017.303 7.293 4.74 4.74 0 011.389 3.41zm-1.89.03c0-.983-.44-1.76-1.124-2.439a2464.14 2464.14 0 01-6.637-6.616 2.539 2.539 0 00-.585-.472.974.974 0 00-1.21.205.986.986 0 00-.182 1.214c.127.215.286.41.473.577 2.167 2.167 4.334 4.332 6.501 6.493.822.822.819 1.2-.019 2.036l-6.411 6.396c-.868.864-1.22.864-2.083 0a4979.608 4979.608 0 01-6.636-6.616c-.544-.527-1.174-.57-1.618-.145-.485.458-.463 1.09.104 1.659 2.31 2.317 4.613 4.64 6.955 6.92 1.334 1.307 3.118 1.328 4.446.03 2.385-2.328 4.725-4.699 7.087-7.057.59-.577.928-1.363.94-2.187v.001zm-11.6-9.6l-.136-.114c-.276.17-.594.297-.82.52a978.886 978.886 0 00-6.855 6.845c-.227.228-.35.56-.52.844 1.611-.333 2.749.239 3.753 1.324.98 1.058 2.03 2.044 2.955 2.974l5.827-5.801c-.967-.96-1.967-2.008-3.028-2.987-1.062-.98-1.612-2.124-1.177-3.606zm-.084 13.766l1.4 1.483 5.687-5.692-1.369-1.467c-.113.105-.208.189-.296.277l-5.422 5.399z" fill="#C4C4C4"/></g><g clip-path="url(#clip1_421_153)"><path d="M67.883 109.78c-.904.842-1.95 1.409-3.2 1.418-3.545.026-7.093.102-10.634-.019-2.798-.097-4.698-2.157-4.743-4.966-.057-3.334-.032-6.671-.015-10.007 0-1.285.619-2.223 1.806-2.773a.919.919 0 00.42-.41c.595-1.295 1.627-1.849 3.012-1.849 1.847.009 3.693.011 5.54.007 1.321.002 2.643.012 3.965.002 1.418-.01 2.465.561 3.064 1.88.114.19.286.34.49.426 1.078.53 1.706 1.388 1.718 2.576.033 3.443.035 6.883.006 10.321a4.743 4.743 0 01-1.429 3.394zm-1.357-1.315c.695-.695.932-1.556.929-2.52-.01-3.123-.016-6.247-.015-9.37a2.537 2.537 0 00-.08-.747.973.973 0 00-1-.711.986.986 0 00-.987.729 2.404 2.404 0 00-.074.742c0 3.065.002 6.128.006 9.189 0 1.162-.27 1.427-1.453 1.426l-9.056-.011c-1.225-.002-1.474-.251-1.472-1.472a4954.43 4954.43 0 01-.015-9.372c-.012-.756-.427-1.232-1.042-1.246-.666-.02-1.098.443-1.099 1.247-.006 3.271-.019 6.542.024 9.812.02 1.867 1.267 3.143 3.123 3.164 3.332.04 6.664.018 10.002.021.825.01 1.62-.308 2.21-.882l-.001.001zM65.11 93.473l-.016-.175c-.315-.075-.63-.21-.946-.213-3.229-.018-6.458-.02-9.688-.007-.322.001-.643.149-.965.23 1.375.903 1.775 2.112 1.718 3.59-.055 1.44-.01 2.88-.014 4.192l8.223.018c-.005-1.363.029-2.81-.03-4.254-.057-1.443.363-2.64 1.718-3.38zm-9.794 9.676l-.058 2.038 8.046-.003.07-2.005c-.155-.006-.28-.014-.406-.014l-7.651-.016z" fill="#C4C4C4"/></g><g clip-path="url(#clip2_421_153)"><path d="M17.444 29.48c.044-1.235.383-2.376 1.26-3.266 2.488-2.525 4.944-5.088 7.533-7.506 2.047-1.91 4.848-1.797 6.865.158 2.399 2.317 4.74 4.694 7.087 7.065.909.909 1.134 2.01.684 3.237a.918.918 0 00-.008.588c.496 1.337.157 2.458-.822 3.437a860.887 860.887 0 00-3.922 3.912c-.935.934-1.877 1.861-2.805 2.803-.995 1.01-2.14 1.346-3.496.837a1.054 1.054 0 00-.648.045c-1.137.388-2.187.225-3.036-.607a569.406 569.406 0 01-7.303-7.293 4.744 4.744 0 01-1.39-3.41zm1.89-.03c0 .982.44 1.759 1.124 2.438 2.217 2.201 4.43 4.407 6.637 6.616.17.185.367.344.584.472a.973.973 0 001.21-.205.986.986 0 00.183-1.213 2.403 2.403 0 00-.473-.577 6313.672 6313.672 0 00-6.501-6.494c-.822-.822-.82-1.2.019-2.036l6.411-6.396c.868-.864 1.22-.864 2.082 0a5168.78 5168.78 0 016.637 6.616c.544.527 1.173.57 1.618.145.485-.457.463-1.09-.104-1.659-2.31-2.317-4.613-4.64-6.955-6.92-1.334-1.307-3.119-1.327-4.446-.03-2.385 2.328-4.725 4.699-7.087 7.057a3.118 3.118 0 00-.94 2.187v-.001zm11.6 9.6l.136.113c.276-.17.594-.297.82-.519a983.236 983.236 0 006.855-6.845c.227-.228.35-.56.52-.845-1.611.334-2.749-.239-3.753-1.323-.98-1.059-2.03-2.044-2.955-2.975l-5.827 5.801c.967.96 1.967 2.008 3.028 2.987 1.062.98 1.611 2.125 1.177 3.606zm.084-13.767l-1.4-1.482-5.687 5.691L25.3 30.96c.113-.105.208-.189.296-.277l5.422-5.399z" fill="#C4C4C4"/></g><g clip-path="url(#clip3_421_153)"><path d="M50.703 8.588c.903-.841 1.95-1.41 3.2-1.418 3.545-.026 7.093-.102 10.634.02 2.798.096 4.698 2.156 4.743 4.965.057 3.335.032 6.671.015 10.007 0 1.285-.619 2.223-1.806 2.773a.918.918 0 00-.42.41c-.595 1.296-1.627 1.849-3.013 1.849-1.846-.008-3.692-.01-5.538-.007-1.322-.001-2.644-.011-3.966-.001-1.418.01-2.465-.562-3.064-1.881a1.054 1.054 0 00-.49-.426c-1.078-.53-1.706-1.388-1.718-2.576a570.019 570.019 0 01-.007-10.321 4.744 4.744 0 011.43-3.394zm1.357 1.315c-.695.695-.932 1.556-.929 2.52.01 3.123.016 6.247.015 9.37-.01.252.016.504.08.748a.973.973 0 001 .71.985.985 0 00.987-.729c.063-.242.088-.492.074-.742 0-3.065-.002-6.128-.006-9.188 0-1.163.269-1.428 1.453-1.427l9.056.011c1.225.003 1.473.25 1.472 1.473.008 3.12.013 6.244.015 9.37.012.757.427 1.233 1.042 1.247.666.02 1.097-.443 1.099-1.247.006-3.27.019-6.542-.024-9.811-.02-1.867-1.267-3.144-3.123-3.165-3.332-.04-6.664-.018-10.002-.021a3.118 3.118 0 00-2.21.882h.001zm1.415 14.992l.016.175c.315.075.63.21.946.213 3.229.018 6.458.02 9.688.007.322 0 .643-.148.965-.23-1.376-.903-1.775-2.112-1.718-3.59.055-1.44.01-2.88.014-4.192l-8.223-.018c.005 1.363-.029 2.81.03 4.254.057 1.443-.363 2.64-1.718 3.38zm9.793-9.675l.059-2.039-8.046.003-.07 2.005c.155.006.28.014.405.014l7.652.017z" fill="#C4C4C4"/></g><g clip-path="url(#clip4_421_153)"><path d="M29.59 101.035c-1.233-.044-2.375-.383-3.265-1.26-2.525-2.489-5.087-4.944-7.505-7.533-1.91-2.048-1.797-4.848.157-6.866 2.317-2.398 4.695-4.74 7.065-7.087.91-.908 2.01-1.134 3.238-.683.19.067.396.07.588.008 1.336-.496 2.457-.158 3.436.822 1.3 1.311 2.604 2.618 3.912 3.921.934.936 1.862 1.878 2.803 2.805 1.01.996 1.346 2.14.837 3.497-.053.215-.038.441.045.647.389 1.137.225 2.188-.607 3.037a569.406 569.406 0 01-7.293 7.302 4.749 4.749 0 01-3.41 1.39zm-.029-1.89c.983 0 1.76-.441 2.439-1.125 2.2-2.216 4.406-4.429 6.615-6.637.186-.17.345-.367.472-.584a.974.974 0 00-.204-1.21.985.985 0 00-1.214-.182c-.216.126-.41.286-.577.472a6215.048 6215.048 0 00-6.493 6.502c-.823.822-1.2.819-2.036-.02l-6.396-6.41c-.865-.869-.865-1.22 0-2.083 2.201-2.212 4.406-4.424 6.616-6.637.526-.543.569-1.173.144-1.617-.457-.485-1.09-.463-1.658.104-2.318 2.309-4.64 4.613-6.921 6.955-1.307 1.334-1.327 3.118-.03 4.446 2.328 2.384 4.7 4.725 7.058 7.087.576.59 1.362.927 2.187.939h-.002zm9.6-11.601l.113-.136c-.17-.275-.297-.594-.519-.819a983.236 983.236 0 00-6.845-6.855c-.228-.227-.56-.35-.844-.52.333 1.611-.24 2.748-1.324 3.753-1.058.98-2.044 2.03-2.975 2.954l5.802 5.828c.96-.967 2.007-1.967 2.987-3.029.98-1.061 2.124-1.611 3.605-1.176zm-13.766-.084l-1.483 1.4 5.691 5.687 1.467-1.368c-.105-.114-.188-.208-.276-.296l-5.4-5.423z" fill="#C4C4C4"/></g><g clip-path="url(#clip5_421_153)"><path d="M8.697 67.772c-.841-.904-1.409-1.95-1.418-3.2-.026-3.545-.101-7.093.02-10.634.097-2.799 2.157-4.699 4.965-4.743 3.335-.058 6.672-.033 10.008-.016 1.285 0 2.222.62 2.772 1.806a.92.92 0 00.41.422c1.296.594 1.85 1.626 1.85 3.011-.01 1.846-.011 3.693-.008 5.54-.001 1.32-.011 2.643-.001 3.965.01 1.417-.562 2.465-1.88 3.063-.19.115-.34.286-.426.49-.53 1.079-1.388 1.706-2.577 1.718a570.02 570.02 0 01-10.32.007 4.744 4.744 0 01-3.395-1.429zm1.316-1.358c.695.695 1.556.933 2.52.93 3.123-.011 6.247-.016 9.37-.015.252.01.503-.016.747-.08a.973.973 0 00.71-1 .985.985 0 00-.728-.987 2.407 2.407 0 00-.742-.074c-3.066 0-6.128.002-9.19.006-1.162 0-1.426-.27-1.425-1.453l.01-9.056c.003-1.226.251-1.474 1.473-1.473 3.12-.008 6.245-.013 9.371-.015.757-.011 1.232-.427 1.246-1.04.02-.667-.443-1.099-1.246-1.1-3.272-.006-6.543-.02-9.812.024-1.867.02-3.143 1.266-3.165 3.122-.04 3.333-.018 6.664-.02 10.002-.01.825.307 1.62.882 2.21h-.001zM25.004 65l.176-.015c.075-.315.21-.63.212-.946.018-3.23.02-6.459.007-9.688 0-.322-.148-.643-.23-.965-.903 1.375-2.111 1.775-3.589 1.718-1.44-.056-2.88-.01-4.193-.014l-.018 8.223c1.363-.005 2.81.028 4.254-.03 1.443-.058 2.641.363 3.381 1.718zm-9.675-9.793l-2.039-.058.004 8.046 2.005.07c.005-.155.013-.281.013-.406l.017-7.652z" fill="#C4C4C4"/></g><g clip-path="url(#clip6_421_153)"><path d="M88.995 17.334c1.234.044 2.376.382 3.266 1.26 2.525 2.488 5.087 4.943 7.505 7.532 1.911 2.048 1.797 4.848-.157 6.866-2.317 2.398-4.694 4.74-7.065 7.087-.91.909-2.01 1.134-3.238.683a.918.918 0 00-.588-.008c-1.336.497-2.457.158-3.437-.822a860.887 860.887 0 00-3.911-3.921c-.934-.936-1.862-1.878-2.803-2.805-1.01-.996-1.346-2.14-.837-3.497a1.054 1.054 0 00-.046-.647c-.388-1.137-.224-2.188.607-3.036a569.406 569.406 0 017.294-7.303 4.743 4.743 0 013.41-1.39zm.03 1.89c-.983 0-1.76.44-2.439 1.124a2464.14 2464.14 0 01-6.615 6.637c-.186.17-.345.367-.472.584a.973.973 0 00.204 1.21.985.985 0 001.214.182c.216-.126.41-.286.577-.472 2.168-2.167 4.332-4.334 6.493-6.502.823-.822 1.2-.818 2.036.02l6.396 6.411c.865.868.865 1.219 0 2.082a4979.608 4979.608 0 01-6.616 6.637c-.526.543-.569 1.173-.144 1.617.457.485 1.09.463 1.658-.104 2.318-2.308 4.64-4.613 6.921-6.955 1.307-1.334 1.327-3.118.03-4.446-2.328-2.384-4.7-4.724-7.058-7.087a3.118 3.118 0 00-2.187-.938h.002zm-9.6 11.6l-.113.136c.17.276.297.594.519.819a981.058 981.058 0 006.845 6.856c.228.226.56.35.844.52-.333-1.612.24-2.749 1.324-3.754 1.058-.98 2.044-2.03 2.975-2.954l-5.802-5.828c-.96.967-2.007 1.968-2.987 3.029s-2.124 1.611-3.605 1.177zm13.766.084l1.483-1.4-5.692-5.687-1.466 1.368c.105.114.188.208.276.296l5.4 5.423z" fill="#C4C4C4"/></g><g clip-path="url(#clip7_421_153)"><path d="M109.892 50.595c.842.904 1.41 1.95 1.418 3.2.026 3.545.102 7.093-.019 10.634-.097 2.799-2.157 4.699-4.965 4.743-3.335.058-6.672.033-10.008.016-1.285 0-2.222-.62-2.772-1.806a.918.918 0 00-.41-.421c-1.296-.594-1.85-1.627-1.85-3.012.009-1.846.011-3.693.008-5.539 0-1.322.01-2.644 0-3.965-.009-1.418.563-2.466 1.882-3.064.19-.115.338-.286.425-.49.53-1.079 1.388-1.706 2.576-1.718 3.443-.034 6.884-.036 10.322-.007a4.736 4.736 0 013.393 1.43zm-1.315 1.358c-.695-.695-1.556-.933-2.519-.93-3.124.011-6.248.016-9.371.015a2.537 2.537 0 00-.747.08.973.973 0 00-.71 1 .986.986 0 00.728.987c.242.063.493.088.742.074 3.065 0 6.128-.001 9.189-.006 1.163 0 1.427.27 1.426 1.453l-.011 9.057c-.002 1.225-.25 1.473-1.472 1.472-3.121.008-6.245.013-9.371.015-.757.011-1.232.427-1.246 1.041-.02.667.443 1.098 1.246 1.1 3.271.006 6.543.018 9.812-.025 1.867-.019 3.143-1.266 3.165-3.122.039-3.333.018-6.664.021-10.002a3.119 3.119 0 00-.883-2.21h.001zm-14.991 1.415l-.176.015c-.075.315-.21.63-.212.946-.019 3.23-.021 6.459-.008 9.688.001.322.149.644.23.965.903-1.375 2.112-1.774 3.59-1.718 1.44.056 2.88.01 4.192.014l.019-8.222c-1.363.004-2.811-.029-4.254.029-1.443.058-2.641-.363-3.381-1.717zm9.675 9.793l2.038.058-.003-8.046-2.005-.069c-.005.155-.013.28-.013.405l-.017 7.652z" fill="#C4C4C4"/></g><circle cx="177.926" cy="60.094" r="26.293" stroke="#C4C4C4" stroke-width="2"/><g clip-path="url(#clip8_421_153)"><path d="M219.775 88.889c-.044 1.234-.383 2.375-1.26 3.265-2.489 2.525-4.944 5.088-7.533 7.506-2.047 1.91-4.848 1.797-6.865-.157-2.399-2.318-4.741-4.695-7.087-7.066-.909-.909-1.134-2.01-.684-3.237a.918.918 0 00.008-.588c-.496-1.337-.158-2.457.822-3.437a887.34 887.34 0 003.922-3.912c.935-.934 1.877-1.861 2.805-2.803.995-1.01 2.14-1.346 3.496-.836.215.053.442.037.647-.046 1.137-.388 2.188-.225 3.037.607a571.348 571.348 0 017.303 7.293 4.74 4.74 0 011.389 3.41zm-1.89.03c0-.983-.441-1.76-1.125-2.439a2523.841 2523.841 0 01-6.636-6.616 2.56 2.56 0 00-.585-.472.973.973 0 00-1.209.205.982.982 0 00-.183 1.214c.127.215.286.41.473.577a6313.38 6313.38 0 006.501 6.493c.822.822.819 1.2-.019 2.036l-6.412 6.396c-.867.864-1.219.864-2.082 0a4920.215 4920.215 0 01-6.636-6.616c-.544-.527-1.174-.57-1.618-.145-.485.458-.463 1.09.104 1.659 2.309 2.317 4.613 4.64 6.955 6.92 1.334 1.307 3.118 1.328 4.446.03 2.384-2.328 4.725-4.699 7.087-7.057.59-.577.928-1.363.939-2.187v.001zm-11.601-9.6l-.136-.114c-.275.17-.593.297-.819.52a980.955 980.955 0 00-6.855 6.845c-.227.228-.35.56-.52.844 1.611-.333 2.748.239 3.753 1.324.98 1.058 2.03 2.044 2.955 2.974l5.827-5.801c-.967-.96-1.967-2.008-3.029-2.987-1.061-.98-1.611-2.124-1.176-3.606zm-.084 13.766l1.401 1.483 5.687-5.692-1.369-1.467c-.113.105-.208.189-.296.277l-5.423 5.399z" fill="#C4C4C4"/></g><g clip-path="url(#clip9_421_153)"><path d="M186.516 109.78c-.904.842-1.95 1.409-3.2 1.418-3.545.026-7.093.102-10.634-.019-2.798-.097-4.698-2.157-4.743-4.966-.057-3.334-.033-6.671-.015-10.007 0-1.285.619-2.223 1.805-2.773a.92.92 0 00.422-.41c.594-1.295 1.626-1.849 3.011-1.849 1.847.009 3.693.011 5.539.007 1.322.002 2.644.012 3.966.002 1.417-.01 2.465.561 3.064 1.88.114.19.286.34.49.426 1.078.53 1.705 1.388 1.718 2.576.033 3.443.035 6.883.006 10.321a4.732 4.732 0 01-1.429 3.394zm-1.357-1.315c.694-.695.932-1.556.929-2.52-.011-3.123-.016-6.247-.015-9.37a2.507 2.507 0 00-.08-.747.971.971 0 00-.999-.71.989.989 0 00-.988.728 2.41 2.41 0 00-.074.742c0 3.065.002 6.128.006 9.189 0 1.162-.269 1.427-1.453 1.426l-9.056-.011c-1.225-.002-1.474-.251-1.473-1.472a5845.19 5845.19 0 01-.014-9.372c-.012-.756-.428-1.232-1.042-1.246-.666-.02-1.098.443-1.099 1.247-.006 3.271-.019 6.542.024 9.812.019 1.867 1.267 3.143 3.123 3.164 3.332.04 6.664.018 10.002.021a3.12 3.12 0 002.21-.882l-.001.001zm-1.415-14.992l-.016-.175c-.315-.075-.63-.21-.946-.213a980.73 980.73 0 00-9.688-.007c-.322.001-.643.149-.965.23 1.375.903 1.775 2.112 1.718 3.59-.055 1.44-.01 2.88-.014 4.192l8.223.018c-.005-1.363.028-2.81-.03-4.254-.058-1.443.363-2.64 1.718-3.38zm-9.794 9.676l-.058 2.038 8.046-.003.069-2.005c-.154-.006-.28-.014-.405-.014l-7.652-.016z" fill="#C4C4C4"/></g><g clip-path="url(#clip10_421_153)"><path d="M136.077 29.48c.044-1.235.382-2.376 1.26-3.266 2.488-2.525 4.943-5.088 7.533-7.506 2.047-1.91 4.847-1.797 6.865.158 2.398 2.317 4.74 4.694 7.087 7.065.909.909 1.134 2.01.684 3.237a.918.918 0 00-.008.588c.496 1.337.157 2.458-.822 3.437a831.324 831.324 0 00-3.922 3.912c-.936.934-1.877 1.861-2.805 2.803-.995 1.01-2.14 1.346-3.496.837a1.056 1.056 0 00-.648.045c-1.137.388-2.187.225-3.036-.607a571.348 571.348 0 01-7.303-7.293 4.744 4.744 0 01-1.389-3.41zm1.89-.03c0 .982.441 1.759 1.124 2.438 2.217 2.201 4.429 4.407 6.637 6.616.17.185.367.344.584.472a.974.974 0 001.21-.205.986.986 0 00.183-1.213 2.408 2.408 0 00-.473-.577 6313.525 6313.525 0 00-6.501-6.494c-.822-.822-.819-1.2.019-2.036l6.411-6.396c.868-.864 1.219-.864 2.082 0a5904.84 5904.84 0 016.637 6.616c.543.527 1.173.57 1.617.145.486-.457.464-1.09-.103-1.659-2.309-2.317-4.613-4.64-6.955-6.92-1.334-1.307-3.119-1.327-4.446-.03-2.385 2.328-4.725 4.699-7.088 7.057a3.116 3.116 0 00-.938 2.187v-.001zm11.601 9.6l.135.113c.276-.17.594-.297.819-.519a983.279 983.279 0 006.856-6.845c.227-.228.349-.56.52-.845-1.612.334-2.749-.239-3.754-1.323-.979-1.059-2.03-2.044-2.954-2.975l-5.827 5.801c.967.96 1.967 2.008 3.028 2.987 1.062.98 1.611 2.125 1.177 3.606zm.083-13.767l-1.4-1.482-5.687 5.691 1.369 1.467c.113-.105.207-.189.296-.277l5.422-5.399z" fill="#C4C4C4"/></g><g clip-path="url(#clip11_421_153)"><path d="M169.335 8.588c.904-.841 1.951-1.41 3.2-1.418 3.545-.026 7.094-.102 10.634.02 2.799.096 4.699 2.156 4.744 4.965.057 3.335.032 6.671.015 10.007 0 1.285-.619 2.223-1.806 2.773a.921.921 0 00-.421.41c-.594 1.296-1.626 1.849-3.012 1.849a929.61 929.61 0 00-5.539-.007c-1.322-.001-2.643-.011-3.965-.001-1.418.01-2.465-.562-3.064-1.881a1.057 1.057 0 00-.49-.426c-1.079-.53-1.706-1.388-1.718-2.576a572.778 572.778 0 01-.007-10.321 4.753 4.753 0 011.429-3.394zm1.358 1.315c-.695.695-.932 1.556-.929 2.52.011 3.123.016 6.247.015 9.37a2.54 2.54 0 00.079.748.975.975 0 001 .71.983.983 0 00.987-.729 2.38 2.38 0 00.074-.742c.001-3.065-.001-6.128-.005-9.188 0-1.163.269-1.428 1.453-1.427l9.056.011c1.225.003 1.473.25 1.472 1.473.008 3.12.013 6.244.015 9.37.012.757.427 1.233 1.041 1.247.667.02 1.098-.443 1.1-1.247.006-3.27.019-6.542-.024-9.811-.02-1.867-1.267-3.144-3.123-3.165-3.333-.04-6.664-.018-10.002-.021a3.118 3.118 0 00-2.21.882h.001zm1.415 14.992l.016.175c.315.075.63.21.946.213 3.229.018 6.458.02 9.688.007.321 0 .643-.148.964-.23-1.375-.903-1.774-2.112-1.717-3.59.055-1.44.009-2.88.014-4.192l-8.223-.018c.004 1.363-.029 2.81.029 4.254.058 1.443-.362 2.64-1.717 3.38zm9.793-9.675l.059-2.039-8.046.003-.07 2.005c.155.006.281.014.405.014l7.652.017z" fill="#C4C4C4"/></g><g clip-path="url(#clip12_421_153)"><path d="M148.224 101.035c-1.235-.044-2.376-.383-3.266-1.26-2.525-2.489-5.088-4.944-7.506-7.533-1.91-2.048-1.797-4.848.158-6.866 2.317-2.398 4.694-4.74 7.065-7.087.909-.908 2.009-1.134 3.237-.683.19.067.397.07.588.008 1.337-.496 2.458-.158 3.437.822 1.3 1.311 2.604 2.618 3.912 3.921.934.936 1.861 1.878 2.803 2.805 1.01.996 1.346 2.14.837 3.497-.054.215-.038.441.045.647.389 1.137.225 2.188-.607 3.037a568.724 568.724 0 01-7.293 7.302 4.744 4.744 0 01-3.41 1.39zm-.03-1.89c.982 0 1.759-.441 2.438-1.125 2.201-2.216 4.407-4.429 6.616-6.637.186-.17.344-.367.472-.584a.968.968 0 00-.205-1.21.98.98 0 00-1.213-.182 2.386 2.386 0 00-.577.472 6521.903 6521.903 0 00-6.494 6.502c-.822.822-1.199.819-2.036-.02l-6.395-6.41c-.865-.869-.865-1.22 0-2.083 2.201-2.212 4.406-4.424 6.616-6.637.526-.543.569-1.173.144-1.617-.457-.485-1.089-.463-1.658.104-2.318 2.309-4.64 4.613-6.921 6.955-1.307 1.334-1.327 3.118-.03 4.446 2.328 2.384 4.699 4.725 7.057 7.087a3.12 3.12 0 002.187.939h-.001zm9.6-11.601l.113-.136c-.17-.275-.297-.594-.519-.819a983.178 983.178 0 00-6.845-6.855c-.228-.227-.56-.35-.845-.52.334 1.611-.239 2.748-1.323 3.753-1.058.98-2.044 2.03-2.975 2.954l5.801 5.828c.961-.967 2.008-1.967 2.988-3.029.979-1.061 2.124-1.611 3.605-1.176zm-13.767-.084l-1.482 1.4 5.691 5.687 1.467-1.368c-.105-.114-.189-.208-.277-.296l-5.399-5.423z" fill="#C4C4C4"/></g><g clip-path="url(#clip13_421_153)"><path d="M127.326 67.772c-.841-.904-1.409-1.95-1.418-3.2-.026-3.545-.102-7.093.019-10.634.097-2.799 2.158-4.699 4.966-4.743 3.335-.058 6.672-.033 10.008-.016 1.285 0 2.222.62 2.772 1.806a.92.92 0 00.41.422c1.296.594 1.849 1.626 1.849 3.011a852.232 852.232 0 00-.007 5.54c-.001 1.32-.011 2.643-.001 3.965.01 1.417-.562 2.465-1.881 3.063a1.05 1.05 0 00-.425.49c-.53 1.079-1.388 1.706-2.577 1.718a563.65 563.65 0 01-10.321.007 4.745 4.745 0 01-3.394-1.429zm1.316-1.358c.694.695 1.555.933 2.519.93 3.124-.011 6.247-.016 9.371-.015.252.01.503-.016.747-.08a.976.976 0 00.711-1 .989.989 0 00-.729-.987 2.412 2.412 0 00-.743-.074c-3.065 0-6.128.002-9.188.006-1.163 0-1.428-.27-1.426-1.453l.011-9.056c.002-1.226.25-1.474 1.472-1.473 3.121-.008 6.244-.013 9.371-.015.757-.011 1.232-.427 1.246-1.04.02-.667-.443-1.099-1.246-1.1-3.272-.006-6.543-.02-9.812.024-1.867.02-3.143 1.266-3.165 3.122-.04 3.333-.018 6.664-.021 10.002a3.12 3.12 0 00.883 2.21h-.001zM143.633 65l.176-.015c.075-.315.21-.63.212-.946.018-3.23.021-6.459.007-9.688-.001-.322-.148-.643-.229-.965-.904 1.375-2.112 1.775-3.59 1.718-1.441-.056-2.881-.01-4.193-.014l-.018 8.223c1.363-.005 2.811.028 4.254-.03 1.443-.058 2.641.363 3.381 1.718zm-9.675-9.793l-2.039-.058.003 8.046 2.005.07c.006-.155.014-.281.014-.406l.017-7.652z" fill="#C4C4C4"/></g><g clip-path="url(#clip14_421_153)"><path d="M207.628 17.334c1.234.044 2.376.382 3.265 1.26 2.525 2.488 5.088 4.943 7.506 7.532 1.91 2.048 1.797 4.848-.157 6.866-2.318 2.398-4.695 4.74-7.066 7.087-.908.909-2.009 1.134-3.237.683a.918.918 0 00-.588-.008c-1.336.497-2.457.158-3.437-.822a831.014 831.014 0 00-3.911-3.921c-.934-.936-1.862-1.878-2.804-2.805-1.009-.996-1.345-2.14-.836-3.497a1.055 1.055 0 00-.046-.647c-.388-1.137-.224-2.188.607-3.036a568.799 568.799 0 017.294-7.303 4.735 4.735 0 013.41-1.39zm.03 1.89c-.983 0-1.76.44-2.439 1.124a2379.076 2379.076 0 01-6.616 6.637c-.185.17-.344.367-.471.584a.975.975 0 00.204 1.21.987.987 0 001.214.182c.216-.126.41-.286.577-.472 2.167-2.167 4.332-4.334 6.493-6.502.822-.822 1.2-.818 2.036.02l6.396 6.411c.865.868.865 1.219 0 2.082a5231.85 5231.85 0 01-6.616 6.637c-.527.543-.569 1.173-.145 1.617.458.485 1.09.463 1.659-.104 2.318-2.308 4.64-4.613 6.921-6.955 1.306-1.334 1.327-3.118.03-4.446-2.329-2.384-4.7-4.724-7.058-7.087a3.12 3.12 0 00-2.187-.938h.002zm-9.6 11.6l-.113.136c.169.276.297.594.518.819 2.271 2.296 4.553 4.581 6.846 6.856.228.226.56.35.844.52-.333-1.612.239-2.749 1.324-3.754 1.058-.98 2.044-2.03 2.975-2.954l-5.802-5.828c-.961.967-2.008 1.968-2.987 3.029-.98 1.061-2.124 1.611-3.605 1.177zm13.766.084l1.483-1.4-5.692-5.687-1.467 1.368c.106.114.189.208.277.296l5.399 5.423z" fill="#C4C4C4"/></g><g clip-path="url(#clip15_421_153)"><path d="M228.521 50.595c.842.904 1.409 1.95 1.418 3.2.026 3.545.102 7.093-.019 10.634-.097 2.799-2.157 4.699-4.965 4.743-3.335.058-6.672.033-10.008.016-1.285 0-2.223-.62-2.772-1.806a.917.917 0 00-.411-.421c-1.295-.594-1.849-1.627-1.848-3.012.008-1.846.01-3.693.007-5.539.001-1.322.011-2.644.001-3.965-.01-1.418.562-2.466 1.881-3.064.189-.115.338-.286.425-.49.53-1.079 1.388-1.706 2.576-1.718 3.443-.034 6.884-.036 10.322-.007a4.74 4.74 0 013.393 1.43zm-1.315 1.358c-.695-.695-1.556-.933-2.519-.93-3.124.011-6.248.016-9.372.015a2.531 2.531 0 00-.746.08.973.973 0 00-.711 1 .989.989 0 00.729.987c.242.063.492.088.742.074 3.065 0 6.128-.001 9.189-.006 1.163 0 1.427.27 1.426 1.453l-.011 9.057c-.002 1.225-.251 1.473-1.472 1.472-3.121.008-6.245.013-9.371.015-.757.011-1.232.427-1.246 1.041-.02.667.443 1.098 1.246 1.1 3.271.006 6.543.018 9.812-.025 1.867-.019 3.143-1.266 3.165-3.122.039-3.333.018-6.664.021-10.002a3.119 3.119 0 00-.883-2.21h.001zm-14.991 1.415l-.176.015c-.075.315-.21.63-.212.946a977.69 977.69 0 00-.008 9.688c.001.322.149.644.23.965.903-1.375 2.112-1.774 3.59-1.718 1.441.056 2.88.01 4.192.014l.019-8.222c-1.363.004-2.811-.029-4.254.029-1.443.058-2.641-.363-3.381-1.717zm9.675 9.793l2.038.058-.003-8.046-2.005-.069c-.005.155-.013.28-.013.405l-.017 7.652z" fill="#C4C4C4"/></g><circle cx="118.973" cy="178.804" r="26.293" stroke="#C4C4C4" stroke-width="2"/><g clip-path="url(#clip16_421_153)"><path d="M160.822 207.599c-.044 1.234-.383 2.375-1.26 3.265-2.489 2.525-4.944 5.088-7.533 7.506-2.048 1.91-4.848 1.797-6.865-.157-2.399-2.318-4.741-4.695-7.088-7.066-.908-.909-1.134-2.009-.683-3.237a.918.918 0 00.008-.588c-.496-1.337-.158-2.458.822-3.437 1.311-1.3 2.618-2.604 3.921-3.912.936-.934 1.878-1.861 2.805-2.803.996-1.009 2.141-1.346 3.497-.836.215.053.442.037.647-.046 1.137-.388 2.188-.225 3.037.607a577.225 577.225 0 017.303 7.293 4.748 4.748 0 011.389 3.411zm-1.89.029c0-.982-.441-1.759-1.125-2.438a2586.95 2586.95 0 01-6.637-6.616 2.558 2.558 0 00-.584-.472.973.973 0 00-1.209.205.98.98 0 00-.183 1.214c.126.215.286.41.472.577 2.168 2.167 4.335 4.332 6.502 6.493.822.822.819 1.199-.019 2.036l-6.412 6.396c-.868.864-1.219.864-2.082 0a5902.171 5902.171 0 01-6.637-6.616c-.543-.527-1.173-.569-1.617-.145-.485.458-.463 1.09.104 1.659 2.309 2.317 4.613 4.639 6.955 6.921 1.334 1.306 3.118 1.327 4.446.03 2.384-2.329 4.725-4.7 7.087-7.058.59-.577.927-1.363.939-2.187v.001zm-11.601-9.6l-.136-.113c-.275.17-.593.297-.819.519a961.836 961.836 0 00-6.855 6.846c-.227.228-.35.559-.52.844 1.611-.333 2.748.239 3.753 1.324.98 1.058 2.03 2.044 2.955 2.974l5.827-5.801c-.967-.961-1.967-2.008-3.029-2.987-1.061-.98-1.611-2.124-1.176-3.606zm-.084 13.767l1.4 1.482 5.688-5.691-1.369-1.467c-.113.105-.208.189-.296.277l-5.423 5.399z" fill="#C4C4C4"/></g><g clip-path="url(#clip17_421_153)"><path d="M127.563 228.491c-.904.842-1.95 1.409-3.2 1.418-3.545.026-7.093.102-10.634-.019-2.798-.097-4.698-2.157-4.743-4.966-.058-3.334-.033-6.671-.016-10.007 0-1.285.619-2.223 1.806-2.773a.916.916 0 00.422-.41c.594-1.296 1.626-1.849 3.011-1.849 1.846.009 3.693.011 5.539.007 1.322.001 2.644.012 3.966.002 1.417-.01 2.465.561 3.063 1.88.115.19.286.339.49.426 1.079.529 1.706 1.388 1.718 2.576.034 3.443.036 6.883.007 10.321a4.736 4.736 0 01-1.429 3.394zm-1.358-1.315c.695-.695.933-1.556.93-2.52a2439.01 2439.01 0 01-.015-9.371 2.535 2.535 0 00-.08-.746.971.971 0 00-1-.711.981.981 0 00-.987.729 2.409 2.409 0 00-.074.742c0 3.065.002 6.128.006 9.189 0 1.162-.269 1.427-1.453 1.426l-9.056-.011c-1.226-.002-1.474-.251-1.473-1.473-.008-3.12-.013-6.244-.014-9.371-.012-.756-.428-1.232-1.042-1.246-.666-.019-1.098.443-1.099 1.247-.006 3.271-.019 6.542.024 9.811.019 1.868 1.266 3.144 3.122 3.165 3.333.04 6.664.018 10.002.021a3.12 3.12 0 002.211-.882l-.002.001zm-1.414-14.992l-.016-.175c-.315-.075-.63-.21-.946-.213-3.229-.018-6.459-.02-9.688-.007-.322.001-.643.149-.965.23 1.375.903 1.774 2.112 1.718 3.589-.056 1.441-.01 2.881-.014 4.193l8.223.018c-.005-1.363.028-2.81-.03-4.254-.058-1.443.363-2.641 1.718-3.381zm-9.794 9.676l-.058 2.038 8.046-.003.069-2.005c-.154-.006-.28-.014-.405-.014l-7.652-.016z" fill="#C4C4C4"/></g><g clip-path="url(#clip18_421_153)"><path d="M77.124 148.19c.044-1.234.382-2.375 1.26-3.265 2.488-2.525 4.943-5.088 7.532-7.506 2.048-1.91 4.848-1.797 6.866.157 2.398 2.318 4.74 4.695 7.087 7.066.909.909 1.134 2.009.683 3.237a.918.918 0 00-.007.588c.496 1.337.157 2.458-.823 3.437a881.978 881.978 0 00-3.921 3.912c-.936.934-1.877 1.861-2.805 2.803-.995 1.009-2.14 1.346-3.496.836a1.055 1.055 0 00-.648.046c-1.137.388-2.187.225-3.036-.607a575.243 575.243 0 01-7.303-7.293 4.74 4.74 0 01-1.39-3.411zm1.89-.029c0 .982.44 1.759 1.124 2.438 2.216 2.201 4.429 4.407 6.637 6.616.17.185.367.344.584.472a.974.974 0 001.21-.205.983.983 0 00.182-1.213 2.386 2.386 0 00-.472-.577 6521.903 6521.903 0 00-6.501-6.494c-.823-.822-.82-1.199.018-2.036l6.412-6.396c.868-.864 1.219-.864 2.082 0a5904.75 5904.75 0 016.637 6.616c.543.527 1.173.569 1.617.145.485-.458.463-1.09-.104-1.659-2.308-2.317-4.613-4.639-6.954-6.921-1.335-1.306-3.119-1.327-4.447-.029-2.384 2.328-4.724 4.699-7.087 7.057a3.12 3.12 0 00-.939 2.187v-.001zm11.6 9.6l.136.113c.276-.17.594-.297.819-.519a961.932 961.932 0 006.856-6.846c.227-.227.35-.559.52-.844-1.612.334-2.749-.239-3.754-1.324-.98-1.058-2.03-2.043-2.954-2.974l-5.828 5.801c.967.961 1.967 2.008 3.03 2.987 1.06.98 1.61 2.125 1.176 3.606zm.084-13.767l-1.4-1.482-5.687 5.691 1.368 1.467c.114-.105.208-.189.296-.277l5.423-5.399z" fill="#C4C4C4"/></g><g clip-path="url(#clip19_421_153)"><path d="M110.382 127.298c.904-.841 1.951-1.409 3.2-1.418 3.545-.026 7.094-.102 10.634.019 2.799.097 4.699 2.157 4.744 4.966.057 3.334.032 6.671.015 10.007 0 1.285-.619 2.223-1.806 2.773a.91.91 0 00-.421.41c-.594 1.296-1.627 1.849-3.012 1.849a786.608 786.608 0 00-5.539-.007c-1.322-.001-2.644-.011-3.965-.001-1.418.009-2.465-.562-3.064-1.881a1.058 1.058 0 00-.49-.426c-1.079-.529-1.706-1.388-1.718-2.576a572.748 572.748 0 01-.007-10.321 4.736 4.736 0 011.429-3.394zm1.358 1.315c-.695.695-.932 1.556-.929 2.52.011 3.123.015 6.247.014 9.371-.01.251.017.503.08.747a.972.972 0 001 .71.981.981 0 00.987-.729c.063-.242.088-.492.074-.742.001-3.065-.001-6.128-.005-9.188 0-1.163.269-1.428 1.453-1.427l9.056.011c1.225.003 1.473.251 1.472 1.473.008 3.12.013 6.244.015 9.371.012.756.427 1.232 1.041 1.246.667.019 1.098-.443 1.1-1.247.006-3.271.018-6.542-.024-9.811-.02-1.867-1.267-3.144-3.123-3.165-3.333-.04-6.664-.018-10.002-.021a3.116 3.116 0 00-2.21.882l.001-.001zm1.415 14.992l.016.176c.314.074.629.209.945.212 3.23.018 6.459.021 9.689.007.321-.001.643-.149.964-.229-1.375-.904-1.774-2.113-1.718-3.59.056-1.441.01-2.881.015-4.193l-8.223-.018c.004 1.363-.029 2.81.029 4.254.058 1.443-.363 2.641-1.717 3.381zm9.793-9.676l.058-2.038-8.045.003-.07 2.005c.155.006.28.014.405.014l7.652.016z" fill="#C4C4C4"/></g><g clip-path="url(#clip20_421_153)"><path d="M89.27 219.745c-1.234-.045-2.375-.383-3.265-1.26-2.525-2.489-5.088-4.944-7.506-7.533-1.91-2.048-1.797-4.848.157-6.865 2.318-2.399 4.695-4.741 7.066-7.088.909-.908 2.01-1.134 3.237-.683.19.067.397.07.588.008 1.337-.496 2.458-.158 3.437.822 1.3 1.311 2.604 2.618 3.912 3.921.934.936 1.861 1.878 2.803 2.805 1.009.996 1.346 2.141.837 3.497-.054.215-.038.441.045.647.388 1.137.225 2.188-.607 3.036a564.926 564.926 0 01-7.293 7.303 4.743 4.743 0 01-3.41 1.39zm-.03-1.89c.983 0 1.76-.441 2.44-1.125 2.2-2.216 4.406-4.429 6.615-6.637.185-.17.344-.367.472-.584a.973.973 0 00-.205-1.21.986.986 0 00-1.213-.182c-.216.126-.41.286-.577.472a5450.079 5450.079 0 00-6.494 6.502c-.822.822-1.2.819-2.036-.019l-6.395-6.412c-.865-.868-.865-1.219 0-2.082 2.2-2.212 4.406-4.424 6.615-6.637.527-.543.57-1.173.145-1.617-.457-.485-1.09-.463-1.659.104-2.317 2.309-4.64 4.613-6.92 6.955-1.307 1.334-1.328 3.118-.03 4.446 2.328 2.384 4.699 4.725 7.057 7.087a3.12 3.12 0 002.187.939h-.001zm9.6-11.601l.114-.136c-.17-.275-.297-.594-.519-.819-2.27-2.296-4.552-4.581-6.845-6.856-.228-.226-.56-.349-.845-.519.334 1.611-.239 2.748-1.324 3.753-1.058.979-2.043 2.03-2.974 2.954l5.801 5.828c.961-.967 2.008-1.967 2.988-3.029.979-1.061 2.124-1.611 3.605-1.176zm-13.766-.084l-1.482 1.4 5.691 5.687 1.467-1.368c-.105-.114-.189-.208-.277-.296l-5.399-5.423z" fill="#C4C4C4"/></g><g clip-path="url(#clip21_421_153)"><path d="M68.377 186.483c-.841-.904-1.409-1.951-1.418-3.2-.026-3.545-.102-7.093.02-10.634.096-2.799 2.156-4.699 4.965-4.743 3.335-.058 6.671-.033 10.007-.016 1.286 0 2.223.619 2.773 1.806a.91.91 0 00.41.421c1.296.595 1.849 1.627 1.849 3.012-.008 1.846-.01 3.693-.007 5.539-.001 1.322-.011 2.644-.001 3.966.01 1.417-.562 2.465-1.881 3.063-.19.115-.339.286-.426.49-.53 1.079-1.388 1.706-2.576 1.718-3.443.034-6.883.036-10.321.007a4.735 4.735 0 01-3.394-1.429zm1.315-1.358c.695.695 1.556.933 2.52.93 3.124-.011 6.247-.016 9.37-.015.252.01.504-.016.748-.08a.976.976 0 00.71-1 .984.984 0 00-.729-.987 2.41 2.41 0 00-.742-.074c-3.065 0-6.128.002-9.188.006-1.163 0-1.428-.269-1.427-1.453l.012-9.057c.002-1.225.25-1.473 1.472-1.472 3.12-.008 6.244-.013 9.37-.015.757-.011 1.233-.427 1.247-1.041.02-.667-.443-1.098-1.247-1.099-3.27-.006-6.542-.019-9.811.024-1.867.019-3.144 1.266-3.165 3.122-.04 3.333-.018 6.664-.021 10.002a3.12 3.12 0 00.882 2.211v-.002zm14.992-1.415l.176-.015c.074-.315.21-.63.212-.946.018-3.229.02-6.459.007-9.688 0-.322-.148-.643-.23-.965-.903 1.375-2.112 1.774-3.59 1.718-1.44-.056-2.88-.01-4.192-.014l-.018 8.222c1.363-.004 2.81.029 4.254-.029 1.443-.058 2.64.363 3.38 1.717zm-9.675-9.793l-2.039-.058.003 8.046 2.005.069c.006-.155.014-.28.014-.405l.016-7.652z" fill="#C4C4C4"/></g><g clip-path="url(#clip22_421_153)"><path d="M148.675 136.044c1.234.045 2.375.383 3.265 1.26 2.525 2.489 5.088 4.944 7.506 7.533 1.91 2.048 1.797 4.848-.157 6.866-2.318 2.398-4.695 4.74-7.066 7.087-.908.909-2.009 1.134-3.237.683a.924.924 0 00-.588-.008c-1.336.497-2.457.158-3.437-.822a850.636 850.636 0 00-3.912-3.921c-.933-.936-1.861-1.878-2.803-2.805-1.009-.996-1.346-2.141-.836-3.497a1.055 1.055 0 00-.046-.647c-.388-1.137-.225-2.188.607-3.036a564.328 564.328 0 017.294-7.303 4.736 4.736 0 013.41-1.39zm.03 1.89c-.983 0-1.76.441-2.439 1.125a2435.033 2435.033 0 01-6.616 6.637c-.185.17-.344.367-.471.584a.974.974 0 00.204 1.21.987.987 0 001.214.182c.215-.126.41-.286.577-.472 2.167-2.167 4.332-4.334 6.493-6.502.822-.822 1.2-.819 2.036.019l6.396 6.412c.864.868.864 1.219 0 2.082a5166.735 5166.735 0 01-6.616 6.637c-.527.543-.569 1.173-.145 1.617.458.485 1.09.463 1.659-.104 2.317-2.309 4.64-4.613 6.921-6.955 1.306-1.334 1.327-3.118.03-4.446-2.329-2.384-4.7-4.725-7.058-7.087a3.122 3.122 0 00-2.187-.939h.002zm-9.6 11.601l-.114.136c.17.275.298.594.519.819 2.271 2.296 4.552 4.581 6.846 6.856.228.226.559.349.844.519-.333-1.611.239-2.748 1.324-3.753 1.058-.979 2.044-2.03 2.974-2.954l-5.801-5.828c-.961.967-2.008 1.967-2.987 3.029-.98 1.061-2.124 1.611-3.605 1.176zm13.766.084l1.483-1.4-5.692-5.687-1.467 1.368c.106.114.189.208.277.296l5.399 5.423z" fill="#C4C4C4"/></g><g clip-path="url(#clip23_421_153)"><path d="M169.572 169.306c.842.904 1.409 1.951 1.418 3.2.026 3.545.102 7.093-.019 10.634-.097 2.799-2.157 4.699-4.966 4.743-3.334.058-6.671.033-10.007.016-1.285 0-2.223-.619-2.773-1.806a.904.904 0 00-.41-.421c-1.295-.595-1.849-1.627-1.849-3.012.009-1.846.011-3.693.007-5.539.002-1.322.012-2.644.002-3.966-.01-1.417.561-2.465 1.88-3.063.19-.115.339-.286.426-.49.529-1.079 1.388-1.706 2.576-1.718 3.443-.034 6.883-.036 10.321-.007a4.736 4.736 0 013.394 1.429zm-1.315 1.358c-.695-.695-1.556-.933-2.52-.929-3.123.01-6.247.015-9.371.014a2.569 2.569 0 00-.746.08.971.971 0 00-.711 1 .981.981 0 00.729.987c.242.063.492.088.742.074 3.065 0 6.128-.002 9.189-.006 1.162 0 1.427.27 1.426 1.453l-.011 9.057c-.002 1.225-.251 1.473-1.473 1.472-3.12.008-6.244.013-9.371.015-.756.011-1.232.427-1.246 1.041-.019.667.443 1.098 1.247 1.099 3.271.007 6.542.019 9.812-.024 1.867-.019 3.143-1.266 3.164-3.122.04-3.333.018-6.664.021-10.002a3.116 3.116 0 00-.882-2.21l.001.001zm-14.992 1.415l-.175.015c-.075.315-.21.63-.213.946-.018 3.229-.02 6.459-.007 9.688.001.322.149.643.23.965.903-1.375 2.112-1.774 3.59-1.718 1.44.056 2.88.01 4.192.014l.018-8.222c-1.363.004-2.81-.029-4.253.029-1.444.058-2.642-.363-3.382-1.717zm9.676 9.793l2.038.058-.003-8.046-2.005-.069c-.006.155-.014.28-.014.405l-.016 7.652z" fill="#C4C4C4"/></g><defs><clipPath id="clip0_421_153"><path fill="#fff" transform="translate(77.488 77.38)" d="M0 0h23.654v23.654H0z"/></clipPath><clipPath id="clip1_421_153"><path fill="#fff" transform="rotate(45 -72.856 114.031)" d="M0 0h23.654v23.654H0z"/></clipPath><clipPath id="clip2_421_153"><path fill="#fff" transform="rotate(180 20.549 20.494)" d="M0 0h23.654v23.654H0z"/></clipPath><clipPath id="clip3_421_153"><path fill="#fff" transform="rotate(-135 36.575 4.446)" d="M0 0h23.654v23.654H0z"/></clipPath><clipPath id="clip4_421_153"><path fill="#fff" transform="rotate(90 -18.141 59.239)" d="M0 0h23.654v23.654H0z"/></clipPath><clipPath id="clip5_421_153"><path fill="#fff" transform="rotate(135 4.524 36.543)" d="M0 0h23.654v23.654H0z"/></clipPath><clipPath id="clip6_421_153"><path fill="#fff" transform="rotate(-90 59.238 -18.25)" d="M0 0h23.654v23.654H0z"/></clipPath><clipPath id="clip7_421_153"><path fill="#fff" transform="rotate(-45 113.955 -73.045)" d="M0 0h23.654v23.654H0z"/></clipPath><clipPath id="clip8_421_153"><path fill="#fff" transform="translate(196.121 77.38)" d="M0 0h23.654v23.654H0z"/></clipPath><clipPath id="clip9_421_153"><path fill="#fff" transform="rotate(45 -13.54 257.234)" d="M0 0h23.654v23.654H0z"/></clipPath><clipPath id="clip10_421_153"><path fill="#fff" transform="rotate(180 79.865 20.494)" d="M0 0h23.654v23.654H0z"/></clipPath><clipPath id="clip11_421_153"><path fill="#fff" transform="rotate(-135 95.891 -20.124)" d="M0 0h23.654v23.654H0z"/></clipPath><clipPath id="clip12_421_153"><path fill="#fff" transform="rotate(90 41.175 118.555)" d="M0 0h23.654v23.654H0z"/></clipPath><clipPath id="clip13_421_153"><path fill="#fff" transform="rotate(135 63.838 61.112)" d="M0 0h23.654v23.654H0z"/></clipPath><clipPath id="clip14_421_153"><path fill="#fff" transform="rotate(-90 118.555 -77.566)" d="M0 0h23.654v23.654H0z"/></clipPath><clipPath id="clip15_421_153"><path fill="#fff" transform="rotate(-45 173.269 -216.243)" d="M0 0h23.654v23.654H0z"/></clipPath><clipPath id="clip16_421_153"><path fill="#fff" transform="translate(137.168 196.09)" d="M0 0h23.654v23.654H0z"/></clipPath><clipPath id="clip17_421_153"><path fill="#fff" transform="rotate(45 -186.313 245.427)" d="M0 0h23.654v23.654H0z"/></clipPath><clipPath id="clip18_421_153"><path fill="#fff" transform="rotate(180 50.388 79.85)" d="M0 0h23.654v23.654H0z"/></clipPath><clipPath id="clip19_421_153"><path fill="#fff" transform="rotate(-135 91 51.44)" d="M0 0h23.654v23.654H0z"/></clipPath><clipPath id="clip20_421_153"><path fill="#fff" transform="rotate(90 -47.657 148.434)" d="M0 0h23.654v23.654H0z"/></clipPath><clipPath id="clip21_421_153"><path fill="#fff" transform="rotate(135 9.778 108.259)" d="M0 0h23.654v23.654H0z"/></clipPath><clipPath id="clip22_421_153"><path fill="#fff" transform="rotate(-90 148.434 11.265)" d="M0 0h23.654v23.654H0z"/></clipPath><clipPath id="clip23_421_153"><path fill="#fff" transform="rotate(-45 287.092 -85.73)" d="M0 0h23.654v23.654H0z"/></clipPath></defs></svg>