<svg width="113" height="228" fill="none" xmlns="http://www.w3.org/2000/svg"><path d="M84.654 155.442c-.044.928-.383 1.787-1.26 2.457-2.489 1.9-4.944 3.829-7.533 5.649-2.048 1.437-4.848 1.352-6.865-.119-2.399-1.744-4.74-3.533-7.088-5.317-.908-.684-1.133-1.512-.683-2.436a.532.532 0 00.008-.443c-.496-1.005-.158-1.849.822-2.586a753.244 753.244 0 003.922-2.944c.935-.703 1.877-1.401 2.804-2.109.996-.76 2.14-1.013 3.497-.63.215.04.442.028.647-.034 1.137-.292 2.188-.169 3.037.457a522.91 522.91 0 017.303 5.488c.447.337.8.737 1.04 1.178.238.441.356.913.349 1.389zm-1.89.022c0-.739-.441-1.324-1.125-1.835a2144.404 2144.404 0 01-6.636-4.979 2.563 2.563 0 00-.585-.355 1.26 1.26 0 00-.641-.084c-.22.028-.421.112-.568.238a.707.707 0 00-.304.433.592.592 0 00.12.481c.127.162.287.308.473.434A5434.14 5434.14 0 0080 154.683c.822.619.819.903-.02 1.532l-6.41 4.814c-.868.65-1.22.65-2.083 0a4841.405 4841.405 0 01-6.637-4.979c-.543-.397-1.173-.428-1.617-.109-.485.344-.463.82.104 1.248 2.309 1.744 4.613 3.492 6.955 5.209 1.334.983 3.118.998 4.446.022 2.384-1.752 4.725-3.536 7.087-5.311.59-.434.927-1.026.939-1.646v.001zm-11.601-7.224l-.136-.085c-.275.127-.593.223-.819.39a912.338 912.338 0 00-6.855 5.151c-.227.172-.35.422-.52.636 1.611-.251 2.748.18 3.753.996.98.796 2.03 1.538 2.955 2.239l5.827-4.366c-.967-.723-1.967-1.511-3.029-2.248-1.061-.737-1.61-1.599-1.176-2.713zm-.084 10.36l1.4 1.115 5.688-4.283-1.37-1.104c-.112.08-.207.142-.295.209l-5.423 4.063zm-34.491-37.921c-.841-.681-1.41-1.468-1.418-2.409-.026-2.667-.102-5.338.02-8.002.096-2.106 2.156-3.536 4.965-3.57 3.334-.043 6.672-.024 10.007-.011 1.285 0 2.223.466 2.773 1.359.087.136.23.248.41.317 1.296.447 1.849 1.224 1.849 2.266a486.69 486.69 0 00-.007 4.168c-.001.995-.011 1.99-.001 2.985.01 1.067-.562 1.855-1.881 2.305a.921.921 0 00-.426.369c-.53.812-1.388 1.284-2.576 1.293a755.53 755.53 0 01-10.321.005 6.11 6.11 0 01-1.842-.28 5.021 5.021 0 01-1.552-.795zm1.315-1.022c.695.523 1.556.701 2.52.699 3.123-.008 6.247-.012 9.37-.011.252.008.504-.012.748-.06.215-.045.403-.144.532-.281a.608.608 0 00.178-.471.624.624 0 00-.192-.468 1.035 1.035 0 00-.537-.275 3.118 3.118 0 00-.742-.056c-3.065 0-6.128.001-9.188.004-1.163 0-1.428-.202-1.427-1.093l.011-6.815c.003-.922.25-1.109 1.473-1.108 3.12-.006 6.244-.01 9.37-.012.757-.008 1.233-.321 1.247-.783.02-.502-.443-.826-1.247-.828-3.271-.004-6.542-.014-9.811.019-1.867.014-3.144.953-3.165 2.35-.04 2.507-.018 5.014-.021 7.527-.01.62.308 1.218.883 1.663l-.002-.001zm14.992-1.065l.175-.012c.075-.237.21-.474.213-.712.018-2.43.02-4.86.007-7.29 0-.242-.148-.484-.23-.726-.903 1.034-2.112 1.335-3.59 1.292-1.44-.041-2.88-.007-4.192-.01l-.018 6.188c1.363-.004 2.81.021 4.254-.022 1.443-.044 2.64.273 3.38 1.292zm-9.676-7.37l-2.038-.044.003 6.055 2.005.052c.006-.116.014-.211.014-.304l.016-5.759zM72.51 64c1.235.033 2.376.288 3.266.948 2.525 1.873 5.088 3.72 7.506 5.67 1.91 1.54 1.797 3.647-.157 5.166-2.318 1.805-4.695 3.567-7.066 5.333-.909.684-2.01.853-3.237.514a1.206 1.206 0 00-.588-.005c-1.336.373-2.457.118-3.437-.62a793.36 793.36 0 00-3.912-2.95c-.934-.704-1.861-1.413-2.803-2.111-1.01-.75-1.346-1.61-.836-2.631a.61.61 0 00-.046-.487c-.388-.856-.225-1.647.607-2.286 2.41-1.85 4.842-3.681 7.293-5.495a5.09 5.09 0 011.566-.783A6.125 6.125 0 0172.51 64zm.03 1.422c-.982 0-1.759.332-2.438.847a2283.849 2283.849 0 01-6.616 4.994 2.134 2.134 0 00-.471.44.58.58 0 00-.113.482c.037.166.15.317.317.428.152.123.355.204.575.229.22.025.446-.007.639-.091.215-.096.41-.216.577-.356 2.167-1.63 4.332-3.262 6.493-4.892.822-.62 1.2-.617 2.036.014l6.396 4.825c.864.653.864.917 0 1.567-2.201 1.664-4.407 3.33-6.616 4.994-.527.409-.57.883-.145 1.217.458.365 1.09.349 1.659-.078 2.317-1.737 4.64-3.471 6.92-5.234 1.307-1.004 1.328-2.347.03-3.346-2.328-1.794-4.699-3.555-7.057-5.333-.577-.444-1.363-.698-2.187-.707h.002zm-9.6 8.73l-.113.103c.17.207.297.447.52.616a901.814 901.814 0 006.845 5.16c.228.17.56.262.844.39-.333-1.212.239-2.068 1.324-2.824 1.058-.737 2.044-1.528 2.974-2.223l-5.801-4.386c-.96.728-2.008 1.48-2.987 2.28-.98.798-2.124 1.212-3.605.885zm13.767.064l1.483-1.054-5.692-4.28-1.467 1.03c.106.085.189.156.277.223l5.399 4.08z" fill="#C4C4C4"/><path stroke="#C4C4C4" stroke-width="2" d="M1.109 1h27v226h-27z"/><path stroke="#C4C4C4" stroke-width="2" d="M1.11 28V1h110v27z"/></svg>