<svg width="261" height="261" fill="none" xmlns="http://www.w3.org/2000/svg"><circle cx="130.109" cy="132.107" r="58" stroke="#C4C4C4" stroke-width="4"/><g clip-path="url(#clip0_421_119)"><path d="M222.109 195.41c-.097 2.713-.842 5.223-2.77 7.179-5.47 5.551-10.868 11.184-16.56 16.5-4.501 4.2-10.657 3.951-15.092-.345-5.273-5.095-10.422-10.321-15.581-15.533-1.997-1.998-2.492-4.417-1.502-7.117a2.02 2.02 0 00.017-1.292c-1.09-2.938-.346-5.402 1.807-7.556 2.883-2.857 5.757-5.723 8.622-8.599 2.056-2.053 4.127-4.092 6.166-6.163 2.188-2.218 4.705-2.958 7.686-1.838.473.117.971.082 1.423-.101 2.5-.853 4.809-.494 6.675 1.335a1251.06 1251.06 0 0116.055 16.033 10.428 10.428 0 013.054 7.497zm-4.155.066c0-2.16-.969-3.868-2.472-5.361a5407.33 5407.33 0 01-14.59-14.544 5.568 5.568 0 00-1.285-1.037 2.135 2.135 0 00-2.659.449 2.169 2.169 0 00-.401 2.669 5.28 5.28 0 001.038 1.268c4.764 4.765 9.529 9.523 14.293 14.275 1.807 1.807 1.8 2.637-.042 4.476l-14.095 14.06c-1.908 1.901-2.68 1.901-4.577 0a11097.06 11097.06 0 01-14.59-14.544c-1.194-1.158-2.579-1.252-3.556-.318-1.066 1.005-1.018 2.395.229 3.646 5.075 5.095 10.141 10.2 15.289 15.215 2.933 2.872 6.856 2.917 9.774.065 5.242-5.118 10.387-10.331 15.58-15.515a6.856 6.856 0 002.064-4.808v.004zm-25.503-21.104l-.298-.249c-.606.373-1.305.653-1.8 1.14a2160.033 2160.033 0 00-15.072 15.049c-.498.501-.768 1.23-1.142 1.856 3.542-.733 6.042.525 8.25 2.91 2.154 2.326 4.463 4.493 6.496 6.54l12.81-12.754c-2.126-2.112-4.324-4.414-6.658-6.567-2.333-2.153-3.542-4.67-2.586-7.925zm-.184 30.263l3.078 3.259 12.503-12.512-3.009-3.224c-.249.231-.457.414-.651.608l-11.921 11.869z" fill="#C4C4C4"/></g><g clip-path="url(#clip1_421_119)"><path d="M148.989 241.338c-1.987 1.85-4.287 3.098-7.034 3.118-7.794.056-15.594.223-23.378-.043-6.152-.213-10.329-4.742-10.427-10.916-.126-7.331-.071-14.667-.034-22 0-2.825 1.361-4.886 3.97-6.095.399-.191.725-.507.926-.901 1.306-2.849 3.575-4.065 6.621-4.065 4.059.018 8.117.023 12.176.015 2.906.003 5.812.025 8.718.003 3.116-.022 5.419 1.235 6.735 4.135.252.417.629.745 1.077.935 2.372 1.164 3.751 3.051 3.777 5.664.074 7.568.079 15.131.015 22.69a10.424 10.424 0 01-3.142 7.46zm-2.984-2.891c1.528-1.528 2.049-3.421 2.043-5.539-.024-6.867-.035-13.734-.033-20.601a5.577 5.577 0 00-.175-1.642 2.14 2.14 0 00-2.198-1.562 2.166 2.166 0 00-2.171 1.603 5.304 5.304 0 00-.162 1.631c-.001 6.738.003 13.472.012 20.2 0 2.556-.591 3.138-3.194 3.135l-19.909-.024c-2.693-.005-3.239-.551-3.236-3.237-.017-6.86-.028-13.727-.033-20.601-.025-1.663-.939-2.708-2.289-2.739-1.465-.043-2.413.974-2.417 2.74-.013 7.192-.041 14.383.053 21.57.043 4.104 2.785 6.91 6.865 6.958 7.326.087 14.65.039 21.988.046a6.854 6.854 0 004.858-1.941l-.002.003zm-3.111-32.957l-.034-.386c-.692-.165-1.385-.461-2.08-.467-7.098-.04-14.198-.046-21.298-.016-.707.002-1.413.327-2.12.505 3.023 1.986 3.901 4.643 3.776 7.892-.122 3.167-.021 6.332-.031 9.216l18.077.04c-.01-2.996.063-6.178-.065-9.351-.127-3.173.798-5.806 3.775-7.433zm-21.529 21.27l-.128 4.481 17.688-.007.152-4.407c-.34-.013-.616-.03-.89-.031l-16.822-.036z" fill="#C4C4C4"/></g><g clip-path="url(#clip2_421_119)"><path d="M38.11 64.805c.097-2.713.841-5.223 2.77-7.179 5.47-5.55 10.868-11.184 16.56-16.5 4.5-4.2 10.657-3.95 15.092.345 5.273 5.095 10.422 10.32 15.58 15.533 1.998 1.998 2.493 4.417 1.503 7.116a2.019 2.019 0 00-.017 1.293c1.09 2.938.346 5.402-1.808 7.556a1899.348 1899.348 0 00-8.62 8.599c-2.057 2.053-4.128 4.092-6.167 6.162-2.188 2.22-4.705 2.959-7.686 1.84a2.316 2.316 0 00-1.423.1c-2.5.853-4.81.494-6.676-1.335a1253.017 1253.017 0 01-16.054-16.033 10.429 10.429 0 01-3.054-7.497zm4.155-.066c0 2.16.97 3.868 2.472 5.36a5421.85 5421.85 0 0114.59 14.545c.374.407.807.757 1.284 1.037a2.14 2.14 0 002.66-.45 2.166 2.166 0 00.401-2.668 5.284 5.284 0 00-1.039-1.268A14787.39 14787.39 0 0048.341 67.02c-1.807-1.807-1.8-2.637.042-4.476l14.094-14.06c1.908-1.9 2.68-1.9 4.578 0 4.863 4.839 9.726 9.687 14.59 14.544 1.194 1.158 2.58 1.251 3.556.318 1.066-1.006 1.017-2.395-.229-3.646-5.076-5.095-10.141-10.2-15.29-15.215-2.932-2.872-6.855-2.917-9.774-.066-5.241 5.12-10.386 10.331-15.58 15.516a6.856 6.856 0 00-2.063 4.808v-.004zm25.503 21.104l.298.25c.606-.374 1.305-.654 1.8-1.142a2157.722 2157.722 0 0015.071-15.048c.499-.501.769-1.23 1.143-1.856-3.542.733-6.042-.526-8.25-2.91-2.154-2.327-4.464-4.494-6.496-6.54l-12.81 12.754c2.126 2.112 4.324 4.414 6.658 6.567 2.333 2.153 3.541 4.67 2.586 7.925zm.183-30.263l-3.078-3.26-12.502 12.512 3.009 3.225c.25-.231.457-.415.65-.608l11.921-11.87z" fill="#C4C4C4"/></g><g clip-path="url(#clip3_421_119)"><path d="M111.229 18.878c1.987-1.85 4.288-3.098 7.035-3.118 7.793-.057 15.594-.223 23.377.043 6.152.213 10.329 4.742 10.428 10.916.126 7.33.071 14.666.033 22 0 2.825-1.36 4.886-3.969 6.094-.4.191-.725.508-.926.902-1.307 2.849-3.576 4.065-6.621 4.065-4.059-.018-8.118-.023-12.177-.016-2.906-.002-5.812-.024-8.717-.002-3.117.021-5.42-1.235-6.736-4.135a2.31 2.31 0 00-1.077-.935c-2.371-1.164-3.75-3.051-3.777-5.664a1252.72 1252.72 0 01-.014-22.69 10.414 10.414 0 013.141-7.46zm2.985 2.891c-1.528 1.528-2.05 3.42-2.043 5.539.024 6.867.035 13.734.033 20.6a5.54 5.54 0 00.175 1.642 2.135 2.135 0 002.198 1.563 2.167 2.167 0 002.17-1.603 5.276 5.276 0 00.163-1.631 13592.5 13592.5 0 00-.013-20.2c.001-2.556.592-3.138 3.195-3.136l19.908.025c2.693.005 3.239.55 3.237 3.236.017 6.86.028 13.728.032 20.601.026 1.664.94 2.709 2.29 2.74 1.465.042 2.413-.974 2.417-2.74.013-7.192.041-14.383-.053-21.57-.043-4.105-2.785-6.91-6.865-6.958-7.326-.087-14.65-.04-21.988-.046a6.857 6.857 0 00-4.859 1.94l.003-.002zm3.11 32.957l.035.386c.692.165 1.385.461 2.079.467 7.099.04 14.198.045 21.299.016.706-.002 1.413-.327 2.12-.505-3.023-1.986-3.901-4.643-3.776-7.892.122-3.167.021-6.333.031-9.217l-18.077-.04c.01 2.997-.063 6.18.064 9.352.128 3.172-.797 5.806-3.775 7.433zm21.529-21.27l.129-4.481-17.688.007-.153 4.407c.34.013.617.03.891.03l16.821.037z" fill="#C4C4C4"/></g><g clip-path="url(#clip4_421_119)"><path d="M64.809 222.108c-2.713-.097-5.223-.842-7.18-2.77-5.55-5.47-11.184-10.868-16.5-16.56-4.199-4.501-3.95-10.657.346-15.092 5.095-5.273 10.32-10.422 15.533-15.581 1.997-1.997 4.417-2.492 7.116-1.502.418.147.872.153 1.293.017 2.938-1.09 5.402-.346 7.555 1.807a1925.69 1925.69 0 008.6 8.622c2.053 2.056 4.092 4.127 6.162 6.166 2.22 2.188 2.959 4.705 1.839 7.686a2.32 2.32 0 00.1 1.423c.854 2.5.495 4.809-1.334 6.675a1251.758 1251.758 0 01-16.034 16.055 10.416 10.416 0 01-7.496 3.054zm-.066-4.155c2.16 0 3.868-.969 5.36-2.472a5349.44 5349.44 0 0114.545-14.59 5.562 5.562 0 001.037-1.285 2.138 2.138 0 00-.45-2.659 2.167 2.167 0 00-2.668-.401 5.286 5.286 0 00-1.268 1.038c-4.765 4.765-9.524 9.529-14.275 14.293-1.808 1.807-2.637 1.8-4.476-.042l-14.06-14.095c-1.9-1.907-1.9-2.68 0-4.577 4.839-4.863 9.687-9.727 14.544-14.59 1.158-1.194 1.251-2.579.318-3.556-1.006-1.066-2.395-1.018-3.646.229-5.095 5.075-10.2 10.141-15.215 15.289-2.872 2.933-2.917 6.856-.066 9.774 5.12 5.242 10.331 10.387 15.516 15.581a6.858 6.858 0 004.807 2.063h-.003zm21.104-25.503l.249-.298c-.373-.606-.653-1.305-1.14-1.8a2166.56 2166.56 0 00-15.05-15.072c-.5-.498-1.23-.768-1.855-1.142.732 3.542-.526 6.042-2.91 8.25-2.327 2.154-4.494 4.463-6.54 6.496l12.754 12.81c2.112-2.126 4.414-4.324 6.567-6.658 2.153-2.333 4.67-3.542 7.925-2.586zm-30.263-.184l-3.26 3.078 12.512 12.503 3.225-3.009c-.232-.249-.415-.457-.608-.651l-11.87-11.921z" fill="#C4C4C4"/></g><g clip-path="url(#clip5_421_119)"><path d="M18.877 148.985c-1.85-1.987-3.098-4.287-3.118-7.034-.056-7.793-.223-15.594.043-23.378.213-6.152 4.742-10.329 10.916-10.427 7.33-.126 14.667-.071 22-.034 2.825 0 4.886 1.361 6.094 3.97.191.399.508.725.902.926 2.849 1.307 4.065 3.575 4.065 6.621a1900.81 1900.81 0 00-.016 12.176c-.002 2.906-.024 5.812-.002 8.718.021 3.117-1.235 5.419-4.135 6.735a2.318 2.318 0 00-.935 1.078c-1.164 2.371-3.052 3.75-5.664 3.776-7.568.074-15.132.079-22.69.015a10.423 10.423 0 01-7.46-3.142zm2.891-2.984c1.528 1.528 3.42 2.049 5.539 2.043 6.867-.024 13.734-.035 20.6-.033a5.54 5.54 0 001.642-.175 2.135 2.135 0 001.563-2.198 2.168 2.168 0 00-1.603-2.171 5.306 5.306 0 00-1.631-.162c-6.738-.001-13.472.003-20.2.013-2.556-.001-3.138-.592-3.136-3.195l.025-19.908c.005-2.694.55-3.24 3.236-3.237 6.86-.017 13.728-.028 20.601-.032 1.664-.026 2.709-.94 2.74-2.29.042-1.465-.974-2.413-2.74-2.417-7.192-.013-14.383-.041-21.57.053-4.105.043-6.91 2.785-6.958 6.865-.087 7.326-.04 14.65-.046 21.988a6.857 6.857 0 001.94 4.859l-.002-.003zm32.957-3.11l.386-.035c.165-.692.461-1.385.467-2.08.04-7.098.045-14.198.016-21.298-.002-.707-.327-1.413-.505-2.12-1.986 3.023-4.643 3.901-7.892 3.776-3.167-.122-6.333-.021-9.217-.031l-.04 18.077c2.997-.01 6.18.063 9.352-.065 3.172-.127 5.806.798 7.433 3.776zm-21.27-21.53l-4.481-.128.007 17.688 4.407.153c.013-.34.03-.617.03-.891l.037-16.822z" fill="#C4C4C4"/></g><g clip-path="url(#clip6_421_119)"><path d="M195.41 38.107c2.713.097 5.223.841 7.179 2.77 5.551 5.47 11.184 10.868 16.5 16.56 4.2 4.501 3.951 10.657-.345 15.092-5.095 5.273-10.321 10.422-15.533 15.58-1.998 1.998-4.417 2.493-7.117 1.503a2.017 2.017 0 00-1.292-.017c-2.938 1.09-5.402.346-7.556-1.808a1858.847 1858.847 0 00-8.599-8.62c-2.053-2.057-4.092-4.128-6.163-6.167-2.218-2.188-2.958-4.705-1.838-7.686a2.312 2.312 0 00-.101-1.423c-.853-2.5-.494-4.81 1.335-6.676a1251.672 1251.672 0 0116.033-16.054 10.41 10.41 0 017.497-3.054zm.066 4.155c-2.16 0-3.868.97-5.361 2.472a5481.287 5481.287 0 01-14.544 14.59 5.586 5.586 0 00-1.037 1.284 2.137 2.137 0 00.449 2.66 2.167 2.167 0 002.669.401 5.28 5.28 0 001.268-1.039c4.765-4.764 9.523-9.528 14.275-14.292 1.807-1.807 2.637-1.8 4.475.042l14.061 14.095c1.901 1.907 1.901 2.68 0 4.577a11097.06 11097.06 0 01-14.544 14.59c-1.158 1.194-1.252 2.58-.318 3.556 1.005 1.066 2.395 1.018 3.646-.229 5.095-5.076 10.2-10.141 15.215-15.29 2.872-2.932 2.917-6.855.065-9.773-5.118-5.242-10.331-10.387-15.515-15.58a6.856 6.856 0 00-4.808-2.064h.004zm-21.104 25.503l-.249.298c.373.606.653 1.305 1.14 1.8a2149.088 2149.088 0 0015.049 15.071c.501.499 1.23.77 1.856 1.143-.733-3.542.525-6.042 2.91-8.25 2.326-2.154 4.493-4.463 6.54-6.496l-12.754-12.81c-2.112 2.126-4.414 4.324-6.567 6.658-2.153 2.333-4.67 3.542-7.925 2.586zm30.263.183l3.259-3.077-12.512-12.503-3.224 3.009c.231.25.414.457.608.65l11.869 11.921z" fill="#C4C4C4"/></g><g clip-path="url(#clip7_421_119)"><path d="M241.338 111.229c1.85 1.987 3.098 4.288 3.118 7.035.056 7.793.223 15.594-.043 23.377-.213 6.152-4.742 10.329-10.916 10.428-7.331.126-14.667.071-22 .033-2.825 0-4.886-1.36-6.095-3.969a2.01 2.01 0 00-.901-.926c-2.849-1.307-4.065-3.576-4.065-6.621.018-4.059.023-8.118.015-12.177.003-2.906.025-5.812.003-8.717-.022-3.117 1.235-5.42 4.135-6.736.417-.251.745-.628.935-1.077 1.164-2.371 3.051-3.75 5.664-3.777a1252.72 1252.72 0 0122.69-.014 10.419 10.419 0 017.46 3.141zm-2.891 2.985c-1.528-1.528-3.421-2.05-5.539-2.043-6.867.024-13.734.035-20.601.033a5.544 5.544 0 00-1.642.175 2.136 2.136 0 00-1.562 2.198 2.168 2.168 0 001.603 2.17 5.274 5.274 0 001.631.163c6.738.001 13.472-.004 20.2-.013 2.556.001 3.138.592 3.135 3.195L235.648 140c-.005 2.693-.551 3.239-3.237 3.237-6.86.017-13.727.028-20.601.032-1.663.026-2.708.94-2.739 2.29-.043 1.465.974 2.413 2.74 2.417 7.192.013 14.383.041 21.57-.053 4.104-.043 6.91-2.785 6.958-6.865.087-7.326.039-14.65.046-21.988a6.858 6.858 0 00-1.941-4.859l.003.003zm-32.957 3.11l-.386.035c-.165.692-.461 1.385-.467 2.079-.04 7.099-.046 14.198-.016 21.299.002.706.327 1.413.505 2.12 1.986-3.023 4.643-3.901 7.892-3.776 3.167.122 6.332.021 9.216.031l.04-18.077c-2.996.01-6.178-.063-9.351.064-3.173.128-5.806-.797-7.433-3.775zm21.27 21.529l4.481.129-.007-17.688-4.407-.153c-.013.34-.03.617-.031.891l-.036 16.821z" fill="#C4C4C4"/></g><defs><clipPath id="clip0_421_119"><path fill="#fff" transform="translate(170.109 170.107)" d="M0 0h52v52H0z"/></clipPath><clipPath id="clip1_421_119"><path fill="#fff" transform="rotate(45 -160.285 250.394)" d="M0 0h52v52H0z"/></clipPath><clipPath id="clip2_421_119"><path fill="#fff" transform="rotate(180 45.055 45.054)" d="M0 0h52v52H0z"/></clipPath><clipPath id="clip3_421_119"><path fill="#fff" transform="rotate(-135 80.285 9.823)" d="M0 0h52v52H0z"/></clipPath><clipPath id="clip4_421_119"><path fill="#fff" transform="rotate(90 -39.999 130.108)" d="M0 0h52v52H0z"/></clipPath><clipPath id="clip5_421_119"><path fill="#fff" transform="rotate(135 9.824 80.284)" d="M0 0h52v52H0z"/></clipPath><clipPath id="clip6_421_119"><path fill="#fff" transform="rotate(-90 130.108 -40)" d="M0 0h52v52H0z"/></clipPath><clipPath id="clip7_421_119"><path fill="#fff" transform="rotate(-45 250.391 -160.284)" d="M0 0h52v52H0z"/></clipPath></defs></svg>