<svg width="41" height="58" fill="none" xmlns="http://www.w3.org/2000/svg"><path d="M11.523 42.816c1.773 2.214 3.572 4.99 4.517 6.67 1.152 2.184 1.624 3.658 2.483 6.29.503 1.449.976 1.89 1.978 1.89 1.094 0 1.593-.74 1.978-1.89.797-2.483 1.419-4.369 2.39-6.172 1.917-3.453 4.342-6.526 6.7-9.476.648-.827 4.785-5.699 6.645-9.563 0 0 2.272-4.224 2.272-10.129 0-5.519-2.246-9.358-2.246-9.358l-6.496 1.742-3.956 10.391-.977 1.418-.205.268-.268.323-.441.53-.648.647-3.515 2.862-8.767 5.078-1.444 8.478z" fill="#34A853"/><path d="M2.459 29.855c2.153 4.903 6.259 9.183 9.065 12.96l14.85-17.595s-2.096 2.744-5.873 2.744c-4.224 0-7.646-3.365-7.646-7.615 0-2.924 1.742-4.928 1.742-4.928L4.525 18.108 2.459 29.855z" fill="#FBBC04"/><path d="M26.552 1.248c4.928 1.593 9.152 4.928 11.69 9.861l-11.87 14.142s1.742-2.035 1.742-4.928c0-4.342-3.659-7.616-7.616-7.616-3.751 0-5.904 2.719-5.904 2.719V6.505l11.958-5.257z" fill="#4285F4"/><path d="M5.172 7.476C8.122 3.961 13.292.333 20.434.333c3.453 0 6.08.915 6.08.915L14.59 15.421H6.148l-.976-7.945z" fill="#1A73E8"/><path d="M2.46 29.856S.511 25.986.511 20.41c0-5.282 2.066-9.892 4.691-12.903l9.42 7.94L2.459 29.855z" fill="#EA4335"/></svg>