<svg width="44" height="44" viewBox="0 0 44 44" fill="none" xmlns="http://www.w3.org/2000/svg">
<path d="M26.0768 6.01984H24.7109C23.0864 6.01984 21.6169 6.77574 20.5732 8.14825C19.3867 9.70853 18.7852 11.9703 18.7852 14.8711C18.7852 17.3786 19.3501 19.4764 20.4188 20.9378C21.5489 22.4829 23.1969 23.2995 25.1849 23.2995H26.0769C26.561 23.2995 26.9533 22.9072 26.9533 22.4232V6.89631C26.9533 6.41231 26.5609 6.01984 26.0768 6.01984ZM25.2003 21.5465H25.1848C22.2318 21.5465 20.538 19.1134 20.538 14.8711C20.538 9.63755 22.6936 7.77287 24.7108 7.77287H25.2002V21.5465H25.2003Z" fill="#243746"/>
<path d="M32.8523 0.764586C32.3457 0.271563 31.6423 0 30.8717 0H24.8694C21.3979 0 18.1946 1.33787 15.8497 3.76707C13.1843 6.52824 11.7755 10.5506 11.7755 15.3994C11.7755 20.5576 13.8782 24.733 17.7193 27.2544L10.7357 39.8949C10.2334 40.8018 10.2285 41.8437 10.7227 42.6823C11.2089 43.5075 12.0889 44 13.0767 44H16.8146C17.9956 44 18.9727 43.3923 19.4341 42.3729L25.2008 31.0935V41.4344C25.2008 42.8251 26.3748 43.9999 27.7645 43.9999H31.0299C32.5469 43.9999 33.6479 42.899 33.6478 41.3821V2.72516C33.6478 1.96023 33.3653 1.2638 32.8523 0.764586ZM31.895 41.3822C31.895 41.9237 31.5716 42.247 31.0299 42.247H27.7645C27.3326 42.247 26.9538 41.8674 26.9538 41.4345V28.4426C26.9538 27.9586 26.5614 27.5662 26.0773 27.5662H25.5717C25.2425 27.5662 24.9412 27.7506 24.7914 28.0436L17.8631 41.595C17.8555 41.6096 17.8484 41.6247 17.8417 41.6398C17.6639 42.0427 17.3183 42.2469 16.8147 42.2469H13.0768C12.711 42.2469 12.4034 42.0812 12.233 41.7922C12.0572 41.494 12.0707 41.1024 12.2696 40.7435L19.6588 27.3687C19.8908 26.9491 19.7423 26.421 19.3257 26.1834C15.5331 24.0212 13.5285 20.2921 13.5285 15.3994C13.5285 5.97266 19.2245 1.75304 24.8694 1.75304H30.8717C31.1876 1.75304 31.4496 1.84568 31.6297 2.02082C31.8031 2.1896 31.8947 2.43315 31.8947 2.72516V41.3822H31.895Z" fill="#243746"/>
<path d="M30.2398 27.6096C29.7557 27.6096 29.3633 28.0021 29.3633 28.486V28.8367C29.3633 29.3207 29.7557 29.7132 30.2398 29.7132C30.7238 29.7132 31.1162 29.3207 31.1162 28.8367V28.486C31.1162 28.0021 30.7238 27.6096 30.2398 27.6096Z" fill="#243746"/>
<path d="M30.2398 31.0279C29.7557 31.0279 29.3633 31.4204 29.3633 31.9044V40.5817C29.3633 41.0657 29.7557 41.4581 30.2398 41.4581C30.7238 41.4581 31.1162 41.0657 31.1162 40.5817V31.9044C31.1162 31.4204 30.7238 31.0279 30.2398 31.0279Z" fill="#243746"/>
</svg>
