<svg width="43" height="43" viewBox="0 0 43 43" fill="none" xmlns="http://www.w3.org/2000/svg">
<path d="M16.0695 10.8631H13.3537C12.9787 10.8631 12.6748 11.1671 12.6748 11.542C12.6748 11.917 12.9788 12.221 13.3537 12.221H15.3115C15.0043 13.517 13.8371 14.4841 12.4484 14.4841C10.8262 14.4841 9.5063 13.1642 9.5063 11.542C9.5063 9.91972 10.8263 8.59999 12.4484 8.59999C13.1657 8.59999 13.8565 8.86102 14.3937 9.33477C14.675 9.58286 15.104 9.5559 15.352 9.27472C15.6 8.99354 15.5732 8.56447 15.292 8.31638C14.5066 7.62359 13.4967 7.24205 12.4484 7.24205C10.0775 7.24205 8.14844 9.17109 8.14844 11.542C8.14844 13.913 10.0775 15.842 12.4484 15.842C14.8194 15.842 16.7484 13.913 16.7484 11.542C16.7485 11.1671 16.4445 10.8631 16.0695 10.8631Z" fill="#243746"/>
<path d="M32.3625 3.62108C29.9915 3.62108 28.0625 5.55012 28.0625 7.92108C28.0625 10.292 29.9915 12.2211 32.3625 12.2211C34.7335 12.2211 36.6625 10.292 36.6625 7.92108C36.6625 5.55012 34.7335 3.62108 32.3625 3.62108ZM32.3625 10.8631C30.7403 10.8631 29.4204 9.54324 29.4204 7.921C29.4204 6.29875 30.7403 4.97885 32.3625 4.97885C33.9847 4.97885 35.3046 6.29875 35.3046 7.921C35.3046 9.54324 33.9847 10.8631 32.3625 10.8631Z" fill="#243746"/>
<path d="M40.5499 11.5274C40.9489 10.5647 41.1895 9.64502 41.1895 8.82634C41.1895 3.95944 37.23 0 32.3631 0C30.8491 0 29.4232 0.383305 28.1768 1.0577C26.0277 0.356262 23.7818 0 21.5 0C15.7572 0 10.358 2.23634 6.29723 6.29723C2.23634 10.358 0 15.7572 0 21.5C0 27.2428 2.23634 32.642 6.29723 36.7028C10.358 40.7637 15.7572 43 21.5 43C27.2428 43 32.642 40.7637 36.7028 36.7028C40.7636 32.6419 43 27.2428 43 21.5C43 18.0272 42.1521 14.5831 40.5499 11.5274ZM32.3631 1.35786C36.4813 1.35786 39.8315 4.70816 39.8315 8.82625C39.8315 12.0568 34.8252 17.9552 32.363 20.5277C29.9008 17.9561 24.8947 12.0591 24.8947 8.82625C24.8947 4.70816 28.245 1.35786 32.3631 1.35786ZM1.35786 21.5C1.35786 10.3936 10.3936 1.35786 21.5 1.35786C23.2757 1.35786 25.0277 1.58798 26.7236 2.04208C24.7777 3.66247 23.5369 6.10205 23.5369 8.82634C23.5369 9.61008 23.758 10.4867 24.1269 11.4047L2.0388 26.6963C1.59554 25.0378 1.35786 23.2963 1.35786 21.5ZM21.5 41.6421C14.3913 41.6421 8.13111 37.9404 4.54523 32.3634L10.4036 28.0822C10.7366 27.8389 10.774 27.3558 10.4823 27.0642C10.4791 27.0609 10.4758 27.0577 10.4727 27.0546C10.2384 26.8202 9.86833 26.7917 9.60084 26.9871L3.84766 31.1915C3.29874 30.1956 2.8317 29.1486 2.45554 28.0596L24.7043 12.6564C25.097 13.4177 25.5648 14.1912 26.0717 14.9506L12.292 25.0204C11.9591 25.2637 11.9217 25.7468 12.2133 26.0384C12.2166 26.0417 12.2199 26.045 12.223 26.0481C12.4573 26.2824 12.8274 26.311 13.0948 26.1155L15.8128 24.1294L27.4448 40.7464C25.565 41.3282 23.5685 41.6421 21.5 41.6421ZM28.7767 40.2814L16.9094 23.328L19.4662 21.4596L31.663 38.8838C30.7447 39.4228 29.7802 39.8913 28.7767 40.2814ZM32.8119 38.1572L20.5627 20.6583L26.848 16.0652C29.0947 19.1655 31.6913 21.7878 31.8822 21.9794C32.0096 22.1072 32.1827 22.1791 32.3631 22.1791C32.5435 22.1791 32.7166 22.1073 32.844 21.9794C33.0947 21.7279 37.4914 17.2873 39.7995 13.0754C41.0072 15.7008 41.6421 18.5896 41.6421 21.5C41.6421 28.4162 38.1377 34.5288 32.8119 38.1572Z" fill="#243746"/>
</svg>
