<svg width="58" height="58" viewBox="0 0 58 58" fill="none" xmlns="http://www.w3.org/2000/svg">
<path d="M41.2634 36.8538C38.7002 36.8538 36.6152 38.9959 36.6152 41.6285C36.6152 44.2611 38.7002 46.4032 41.2634 46.4032C43.8268 46.4032 45.9116 44.261 45.9116 41.6285C45.9116 38.9959 43.8268 36.8538 41.2634 36.8538ZM41.2634 43.9351C40.0614 43.9351 39.0833 42.9005 39.0833 41.6285C39.0833 40.3564 40.0613 39.3219 41.2634 39.3219C42.4657 39.3219 43.4435 40.3564 43.4435 41.6285C43.4434 42.9005 42.4655 43.9351 41.2634 43.9351Z" fill="#243746"/>
<path d="M16.7361 36.8538C14.1728 36.8538 12.0879 38.9959 12.0879 41.6285C12.0879 44.2611 14.1728 46.4032 16.7361 46.4032C19.2994 46.4032 21.3842 44.261 21.3842 41.6285C21.3842 38.9959 19.2994 36.8538 16.7361 36.8538ZM16.7361 43.9351C15.534 43.9351 14.556 42.9005 14.556 41.6285C14.556 40.3564 15.5339 39.3219 16.7361 39.3219C17.9383 39.3219 18.9161 40.3564 18.9161 41.6285C18.9161 42.9005 17.9383 43.9351 16.7361 43.9351Z" fill="#243746"/>
<path d="M32.8581 40.3944H25.1387V42.8625H32.8581V40.3944Z" fill="#243746"/>
<path d="M54.6052 6.93183H52.4673C51.9254 3.02133 48.5619 0 44.5045 0H13.4951C9.43766 0 6.07414 3.02133 5.53213 6.93183H3.39489C1.52268 6.93183 0 8.49073 0 10.4067V21.4065C0 23.3226 1.52268 24.8814 3.39489 24.8814H5.45389V43.1216C5.45389 46.9947 8.20712 50.237 11.8591 50.995V53.1656C11.8591 55.8314 13.9127 58 16.4361 58H17.1556C19.679 58 21.7326 55.8314 21.7326 53.1656V51.1627H36.2675V53.1656C36.2675 55.8314 38.3211 58 40.8445 58H41.5634C44.0869 58 46.1404 55.8314 46.1404 53.1656V50.995C49.7924 50.2371 52.5456 46.9947 52.5456 43.1216V24.8815H54.6052C56.4772 24.8815 58 23.3227 58 21.4066V10.4067C58 8.49073 56.4773 6.93183 54.6052 6.93183ZM13.4951 2.46808H44.5046C47.5776 2.46808 50.0777 4.96811 50.0777 8.04058V10.5442H7.92197V8.04058C7.92197 4.96811 10.4219 2.46808 13.4951 2.46808ZM7.92197 13.0122H27.6245V31.6127H7.92197V13.0122ZM30.0925 13.0122H50.0776V31.6127H30.0925V13.0122ZM3.39489 22.4134C2.8839 22.4134 2.46808 21.9615 2.46808 21.4066V10.4067C2.46808 9.85183 2.88378 9.39991 3.39489 9.39991H5.45389V22.4133H3.39489V22.4134ZM19.2645 53.1656C19.2645 54.4703 18.3185 55.5319 17.1556 55.5319H16.4361C15.2732 55.5319 14.3272 54.4703 14.3272 53.1656V51.1627H19.2646V53.1656H19.2645ZM41.5634 55.5319H40.8445C39.6816 55.5319 38.7356 54.4703 38.7356 53.1656V51.1627H43.6723V53.1656C43.6723 54.4703 42.7264 55.5319 41.5634 55.5319ZM44.5045 48.6947H13.4951C10.4219 48.6947 7.92197 46.1946 7.92197 43.1216V34.0808H50.0776V43.1216C50.0776 46.1946 47.5775 48.6947 44.5045 48.6947ZM55.5319 21.4066C55.5319 21.9615 55.1162 22.4134 54.6053 22.4134H52.5457V9.39991H54.6053C55.1162 9.39991 55.5319 9.85183 55.5319 10.4067V21.4066Z" fill="#243746"/>
</svg>
