<svg width="58" height="58" viewBox="0 0 58 58" fill="none" xmlns="http://www.w3.org/2000/svg">
<path d="M52.3987 22.9615L58 19.36L56.6381 17.2435L50.9592 20.8951L44.9363 5.47198H13.0633L7.04025 20.895L1.36193 17.2434L0 19.36L5.60067 22.9616C3.31914 24 1.72816 26.2999 1.72816 28.9657V37.8041C1.72816 41.0248 4.0497 43.7121 7.10678 44.2844V46.4807C7.10678 49.8152 9.81952 52.528 13.154 52.528C16.488 52.528 19.2007 49.8152 19.2007 46.4807V44.3985H38.7984V46.4807C38.7984 49.8152 41.5112 52.528 44.8457 52.528C48.1796 52.528 50.8924 49.8152 50.8924 46.4807V44.2856C52.8518 43.9204 54.5599 42.6836 55.5133 40.877C56.0086 39.9369 56.271 38.8735 56.271 37.8041V28.9657C56.2711 26.2999 54.6801 24 52.3987 22.9615ZM14.7828 7.9893H27.7414V12.8445H30.2586V7.9893H43.2166L48.8338 22.3713H9.16566L14.7828 7.9893ZM16.6835 46.4807C16.6835 48.4276 15.1005 50.0107 13.154 50.0107C11.2077 50.0107 9.62397 48.4276 9.62397 46.4807V44.3985H16.6834V46.4807H16.6835ZM44.8452 50.0107C42.8989 50.0107 41.3158 48.4276 41.3158 46.4807V44.3985H48.3753V46.4807C48.3753 48.4276 46.7916 50.0107 44.8452 50.0107ZM53.7539 37.8041C53.7539 38.4753 53.5966 39.1144 53.2868 39.7019C52.5777 41.0466 51.1948 41.8812 49.6776 41.8812H8.32193C6.07438 41.8812 4.24548 40.0523 4.24548 37.8041V28.9657C4.24548 26.7175 6.07438 24.8886 8.32193 24.8886H49.6776C51.925 24.8886 53.7539 26.7175 53.7539 28.9657V37.8041Z" fill="#243746"/>
<path d="M45.8214 28.8844C43.0258 28.8844 40.752 31.1584 40.752 33.9545C40.752 35.9961 41.9669 37.83 43.8474 38.6253C44.4718 38.8894 45.136 39.0235 45.8214 39.0235C47.6473 39.0235 49.3397 38.0351 50.2383 36.4436C50.6659 35.6876 50.8915 34.826 50.8915 33.9545C50.8915 31.1584 48.6171 28.8844 45.8214 28.8844ZM48.0467 35.2059C47.4229 36.3109 45.969 36.7891 44.8283 36.3073C43.8814 35.9065 43.2693 34.9834 43.2693 33.9547C43.2693 32.5474 44.4141 31.4018 45.8215 31.4018C47.2294 31.4018 48.3743 32.5475 48.3743 33.9547C48.3743 34.3934 48.2613 34.8261 48.0467 35.2059Z" fill="#243746"/>
<path d="M12.1776 28.8844C9.38209 28.8844 7.10742 31.1584 7.10742 33.9545C7.10742 36.7495 9.38197 39.0235 12.1776 39.0235C14.9732 39.0235 17.2478 36.7495 17.2478 33.9545C17.2478 31.1584 14.9732 28.8844 12.1776 28.8844ZM12.1776 36.5063C10.7697 36.5063 9.62474 35.362 9.62474 33.9545C9.62474 32.5473 10.7697 31.4017 12.1776 31.4017C13.5855 31.4017 14.7305 32.5474 14.7305 33.9545C14.7305 35.362 13.5855 36.5063 12.1776 36.5063Z" fill="#243746"/>
<path d="M33.5956 32.696H24.4023V35.2134H33.5956V32.696Z" fill="#243746"/>
</svg>
