<svg width="49" height="20" viewBox="0 0 49 20" fill="none" xmlns="http://www.w3.org/2000/svg">
<g clip-path="url(#clip0_207_395)">
<path d="M20.8417 10C20.8417 8.77019 20.5994 7.59687 20.1755 6.50796C20.0626 10.0899 16.2687 12.8641 14.0411 14.7H19.6174C20.3972 13.2977 20.8417 11.6993 20.8417 10ZM16.8104 2.11223C15.0456 0.792543 12.8319 0 10.4203 0C4.66537 0 0 4.47711 0 10C0 15.5229 4.66537 20 10.4203 20C13.0566 20 15.4567 19.0544 17.2908 17.5058H9.74615L9.72368 15.379C14.2694 11.5869 17.0564 9.02223 17.0564 6.545C17.0564 5.62432 16.6908 4.46253 15.0468 4.46253C13.7447 4.46253 12.4882 5.18645 12.7159 8.21086H10.0668C9.40362 4.70424 11.3914 1.91911 15.1834 1.91911C15.7701 1.91911 16.3148 1.98713 16.8104 2.11223Z" fill="#243746"/>
<path d="M30.5067 6.91182H32.9718C33.0556 5.11236 32.424 2.26164 28.3581 2.26164C25.3665 2.26164 23.1953 3.98033 23.1953 7.55861C23.1953 8.04385 23.2166 10.5508 23.2166 12.108C23.2166 15.9893 26.0193 16.8389 28.3787 16.8389C29.7907 16.8389 31.8337 16.5353 32.7823 15.5448V9.35808H28.1473V11.6027H30.2122V14.3314C28.6526 14.8366 25.8086 15.0395 25.8086 11.6027V7.55861C25.8086 5.15305 26.9673 4.32346 28.2518 4.32346C29.58 4.32346 30.5067 4.97086 30.5067 6.91182ZM48.8409 12.9169C48.9472 7.37703 42.3317 9.21657 42.3949 6.12293C42.4155 5.03159 43.1534 4.32346 44.3541 4.32346C45.6385 4.32346 46.3977 5.05163 46.3758 6.95251H48.799C48.8628 5.23321 48.4419 2.30172 44.4391 2.30172C41.9528 2.30172 39.9086 3.47505 39.8666 6.08284C39.761 11.3999 46.4183 9.66173 46.3127 12.8756C46.2708 14.1898 45.2808 14.7759 44.164 14.7759C42.8583 14.7759 41.8046 14.0483 42.0153 11.8651H39.5709C39.2976 14.7559 40.6252 16.8189 44.1433 16.8189C47.1137 16.8189 48.799 15.2411 48.8409 12.9169ZM37.7119 16.6361H35.2256V2.48391H37.7119V16.6361ZM37.7119 16.6361H35.2256V2.48391H37.7119V16.6361Z" fill="#243746"/>
</g>
<defs>
<clipPath id="clip0_207_395">
<rect width="48.843" height="20" fill="white"/>
</clipPath>
</defs>
</svg>
