<svg width="52" height="52" viewBox="0 0 52 52" fill="none" xmlns="http://www.w3.org/2000/svg">
<path d="M48.9531 23.7188V11.8835C48.9531 6.84339 44.8526 2.7429 39.8125 2.7429H30.2148C29.6539 2.7429 29.1992 3.1976 29.1992 3.75853C29.1992 4.31946 29.6539 4.77416 30.2148 4.77416H39.8125C43.7326 4.77416 46.9219 7.96342 46.9219 11.8835V22.6497C46.1569 22.3866 45.3375 22.2417 44.4844 22.2417H44.2812V16.4188C44.2812 14.2534 42.5195 12.4917 40.3541 12.4917H28.9115C27.7579 12.4917 26.7192 12.9918 26 13.7863C25.2808 12.9918 24.2421 12.4917 23.0885 12.4917H11.6459C9.48045 12.4917 7.71875 14.2534 7.71875 16.4187V22.2416H7.51562C6.6625 22.2416 5.84309 22.3865 5.07812 22.6496V11.8835C5.07812 7.96342 8.26739 4.77416 12.1875 4.77416H21.9883C22.5492 4.77416 23.0039 4.31946 23.0039 3.75853C23.0039 3.1976 22.5492 2.7429 21.9883 2.7429H12.1875C7.14736 2.7429 3.04688 6.84339 3.04688 11.8835V23.7189C1.19966 25.0895 0 27.2858 0 29.7574V42.7574C0 43.3184 0.454695 43.7731 1.01562 43.7731H3.04688V48.2418C3.04688 48.8027 3.50157 49.2574 4.0625 49.2574H9.54809C10.109 49.2574 10.5637 48.8027 10.5637 48.2418V43.7731H41.4363V48.2418C41.4363 48.8027 41.891 49.2574 42.4519 49.2574H47.9375C48.4984 49.2574 48.9531 48.8027 48.9531 48.2418V43.7731H50.9844C51.5453 43.7731 52 43.3184 52 42.7574V29.7574C52 27.2857 50.8003 25.0894 48.9531 23.7188ZM27.0156 16.4187C27.0156 15.3733 27.8661 14.5228 28.9115 14.5228H40.3542C41.3996 14.5228 42.2501 15.3733 42.2501 16.4187V22.2416H27.0156V16.4187ZM9.75 16.4187C9.75 15.3733 10.6005 14.5228 11.6459 14.5228H23.0886C24.134 14.5228 24.9845 15.3733 24.9845 16.4187V22.2416H9.75V16.4187ZM8.53247 47.2261H5.07812V43.7729H8.53247V47.2261ZM46.9219 47.2261H43.4675V43.7729H46.9219V47.2261ZM49.9688 36.8667H9.33573C8.7748 36.8667 8.3201 37.3214 8.3201 37.8823C8.3201 38.4433 8.7748 38.8979 9.33573 38.8979H49.9688V41.7417H47.9621C47.9539 41.7415 47.9458 41.7405 47.9375 41.7405H42.4519C42.4436 41.7405 42.4356 41.7415 42.4273 41.7417H9.57267C9.56445 41.7415 9.55642 41.7405 9.54809 41.7405H4.0625C4.05417 41.7405 4.04615 41.7415 4.03792 41.7417H2.03125V29.7573C2.03125 26.7332 4.4915 24.2729 7.51562 24.2729H8.73438H26H43.2656H44.4844C47.5085 24.2729 49.9688 26.7332 49.9688 29.7573V36.8667Z" fill="#243746"/>
<path d="M26.718 3.04027C26.5291 2.85136 26.2671 2.74269 26 2.74269C25.7329 2.74269 25.4709 2.85136 25.282 3.04027C25.093 3.22918 24.9844 3.49121 24.9844 3.75832C24.9844 4.02543 25.093 4.28746 25.282 4.47636C25.4709 4.66527 25.7329 4.77394 26 4.77394C26.2671 4.77394 26.5291 4.66527 26.718 4.47636C26.907 4.28746 27.0156 4.02644 27.0156 3.75832C27.0156 3.49121 26.907 3.22907 26.718 3.04027Z" fill="#243746"/>
<path d="M6.01102 37.1642C5.82211 36.9753 5.56008 36.8666 5.29297 36.8666C5.02484 36.8666 4.76383 36.9753 4.57492 37.1642C4.38602 37.3531 4.27734 37.6151 4.27734 37.8822C4.27734 38.1493 4.38602 38.4113 4.57492 38.6002C4.76383 38.7892 5.02586 38.8978 5.29297 38.8978C5.56008 38.8978 5.82211 38.7892 6.01102 38.6002C6.19992 38.4113 6.30859 38.1493 6.30859 37.8822C6.30859 37.6151 6.19992 37.3531 6.01102 37.1642Z" fill="#243746"/>
</svg>
