<svg width="36" height="36" viewBox="0 0 36 36" fill="none" xmlns="http://www.w3.org/2000/svg">
<g clip-path="url(#clip0_416_52)">
<path d="M9.82001 17.1818C9.82001 16.7295 9.45405 16.3636 9.0018 16.3636C8.54955 16.3636 8.18359 16.7295 8.18359 17.1818C8.18359 19.3303 10.5535 22.2803 10.8235 22.6102C10.9858 22.8068 11.2206 22.9091 11.4571 22.9091C11.6393 22.9091 11.8231 22.8483 11.9756 22.7237C12.3248 22.4368 12.3751 21.9215 12.0891 21.5715C11.2119 20.5025 9.82001 18.3659 9.82001 17.1818Z" fill="#243746"/>
<path d="M26.999 16.3636C26.5468 16.3636 26.1808 16.7295 26.1808 17.1818C26.1808 18.3619 24.7889 20.5009 23.9117 21.5724C23.6256 21.9215 23.6767 22.4369 24.026 22.7237C24.1778 22.8483 24.3615 22.9091 24.5445 22.9091C24.781 22.9091 25.0151 22.8068 25.1773 22.6102C25.4474 22.2803 27.8172 19.3304 27.8172 17.1818C27.8172 16.7295 27.4513 16.3636 26.999 16.3636Z" fill="#243746"/>
<path d="M18.0018 16.3636C17.5496 16.3636 17.1836 16.7295 17.1836 17.1818V22.0909C17.1836 22.5431 17.5496 22.9091 18.0018 22.9091C18.4541 22.9091 18.82 22.5431 18.82 22.0909V17.1818C18.8199 16.7295 18.454 16.3636 18.0018 16.3636Z" fill="#243746"/>
<path d="M27 3.27276C26.5042 3.27276 25.9861 3.33834 25.448 3.43828C23.646 1.33765 20.9784 0 18 0C15.0217 0 12.354 1.33765 10.5521 3.43821C10.0139 3.33834 9.4958 3.27268 9.00006 3.27268C4.03735 3.27276 0 7.3101 0 12.2727C0 15.6733 1.91761 18.7646 4.92827 20.2931L4.91232 32.6577C4.91155 33.5502 5.25825 34.3892 5.88869 35.0204C6.51989 35.6525 7.35804 36 8.25058 36H27.7527C29.5936 36 31.091 34.5027 31.091 32.6617V20.2812C34.0904 18.7487 36.0001 15.6621 36.0001 12.2727C36 7.3101 31.9627 3.27276 27 3.27276ZM29.4546 32.6618C29.4546 33.5998 28.6907 34.3637 27.7526 34.3637H8.2505C7.79587 34.3637 7.3684 34.1863 7.04639 33.8644C6.72515 33.5424 6.54781 33.1149 6.54858 32.6595L6.55287 29.4546H29.4546V32.6618ZM29.9611 19.0076C29.9179 19.0251 29.8772 19.0459 29.8389 19.0707C29.7358 19.1346 29.6511 19.2193 29.588 19.3167C29.5241 19.4134 29.4809 19.5253 29.4633 19.6451C29.4561 19.6907 29.4537 19.7362 29.4545 19.7826V27.8181H6.55494L6.56545 19.7937C6.56622 19.749 6.56384 19.7034 6.55748 19.6595C6.53991 19.5356 6.49435 19.4205 6.428 19.3207C6.36564 19.2272 6.28418 19.1457 6.18508 19.0833C6.14435 19.0578 6.10116 19.0354 6.05644 19.017C3.37101 17.8426 1.63634 15.1979 1.63634 12.2727C1.63634 8.21215 4.93947 4.90909 8.99998 4.90909C9.15868 4.90909 9.32621 4.92827 9.49058 4.94123C8.66279 6.3799 8.18177 8.0424 8.18177 9.81819C8.18177 10.2704 8.54773 10.6364 8.99998 10.6364C9.45223 10.6364 9.81819 10.2704 9.81819 9.81819C9.81819 5.30696 13.4888 1.63634 18 1.63634C22.5113 1.63634 26.1818 5.30696 26.1818 9.81819C26.1818 10.2704 26.5478 10.6364 27 10.6364C27.4523 10.6364 27.8182 10.2704 27.8182 9.81819C27.8182 8.0424 27.3372 6.37998 26.5094 4.94123C26.6738 4.92827 26.8413 4.90909 27 4.90909C31.0606 4.90909 34.3637 8.21222 34.3637 12.2727C34.3637 15.1875 32.6362 17.829 29.9611 19.0076Z" fill="#243746"/>
</g>
<defs>
<clipPath id="clip0_416_52">
<rect width="36" height="36" fill="white"/>
</clipPath>
</defs>
</svg>
