<svg width="52" height="52" viewBox="0 0 52 52" fill="none" xmlns="http://www.w3.org/2000/svg">
<g clip-path="url(#clip0_261_301)">
<path d="M50.4258 42.0647H18.3172C17.9495 37.6122 14.3889 34.0516 9.93627 33.6838V1.57522C9.93627 0.707164 9.2301 0.000999451 8.36205 0.000999451H1.57422C0.706164 0.000999451 0 0.707164 0 1.57522V9.33419C0 9.75496 0.341047 10.0959 0.761719 10.0959C1.18239 10.0959 1.52344 9.75496 1.52344 9.33419V1.57522C1.52344 1.54729 1.54619 1.52444 1.57422 1.52444H8.36205C8.39008 1.52444 8.41283 1.54729 8.41283 1.57522V3.36617H5.80938C5.3887 3.36617 5.04766 3.70712 5.04766 4.12789C5.04766 4.54866 5.3887 4.88961 5.80938 4.88961H8.41273V6.73114H7.51816C7.09749 6.73114 6.75645 7.07209 6.75645 7.49286C6.75645 7.91363 7.09749 8.25458 7.51816 8.25458H8.41273V10.0961H5.80938C5.3887 10.0961 5.04766 10.4371 5.04766 10.8578C5.04766 11.2786 5.3887 11.6195 5.80938 11.6195H8.41273V13.4611H7.51816C7.09749 13.4611 6.75645 13.802 6.75645 14.2228C6.75645 14.6436 7.09749 14.9845 7.51816 14.9845H8.41273V16.8259H5.80938C5.3887 16.8259 5.04766 17.1669 5.04766 17.5877C5.04766 18.0084 5.3887 18.3494 5.80938 18.3494H8.41273V20.1909H7.51816C7.09749 20.1909 6.75645 20.5319 6.75645 20.9526C6.75645 21.3734 7.09749 21.7144 7.51816 21.7144H8.41273V23.5565H5.80938C5.3887 23.5565 5.04766 23.8974 5.04766 24.3182C5.04766 24.739 5.3887 25.0799 5.80938 25.0799H8.41273V26.9214H7.51816C7.09749 26.9214 6.75645 27.2623 6.75645 27.6831C6.75645 28.1038 7.09749 28.4448 7.51816 28.4448H8.41273V30.2868H5.80938C5.3887 30.2868 5.04766 30.6278 5.04766 31.0486C5.04766 31.4693 5.3887 31.8103 5.80938 31.8103H8.41273V33.6521H1.52344V12.381C1.52344 11.9602 1.18239 11.6192 0.761719 11.6192C0.341047 11.6192 0 11.9602 0 12.381V49.5567C0 50.9044 1.09657 52.0009 2.4443 52.0009H17.5873H50.4258C51.2938 52.0009 52 51.2947 52 50.4267V43.639C52 42.7709 51.2938 42.0647 50.4258 42.0647ZM1.52344 49.5567V35.1753H9.17455C13.3934 35.1753 16.8256 38.6075 16.8256 42.8263V42.8265V50.4775H2.4443C1.93659 50.4775 1.52344 50.0644 1.52344 49.5567ZM50.4766 50.4267C50.4766 50.4546 50.4538 50.4775 50.4258 50.4775H18.349V43.5882H20.1907V46.1915C20.1907 46.6123 20.5318 46.9532 20.9524 46.9532C21.3731 46.9532 21.7142 46.6123 21.7142 46.1915V43.5882H23.5557V44.4827C23.5557 44.9035 23.8967 45.2445 24.3174 45.2445C24.7381 45.2445 25.0791 44.9035 25.0791 44.4827V43.5882H26.9206V46.1915C26.9206 46.6123 27.2616 46.9532 27.6823 46.9532C28.103 46.9532 28.444 46.6123 28.444 46.1915V43.5882H30.2855V44.4827C30.2855 44.9035 30.6266 45.2445 31.0473 45.2445C31.4679 45.2445 31.809 44.9035 31.809 44.4827V43.5882H33.6504V46.1915C33.6504 46.6123 33.9914 46.9532 34.4121 46.9532C34.8328 46.9532 35.1738 46.6123 35.1738 46.1915V43.5882H37.0154V44.4827C37.0154 44.9035 37.3564 45.2445 37.7771 45.2445C38.1978 45.2445 38.5388 44.9035 38.5388 44.4827V43.5882H40.3809V46.1915C40.3809 46.6123 40.722 46.9532 41.1427 46.9532C41.5633 46.9532 41.9044 46.6123 41.9044 46.1915V43.5882H43.7457V44.4827C43.7457 44.9035 44.0868 45.2445 44.5074 45.2445C44.9281 45.2445 45.2691 44.9035 45.2691 44.4827V43.5882H47.1112V46.1915C47.1112 46.6123 47.4522 46.9532 47.8729 46.9532C48.2936 46.9532 48.6346 46.6123 48.6346 46.1915V43.5882H50.4258C50.4538 43.5882 50.4766 43.611 50.4766 43.639V50.4267Z" fill="#243746"/>
<path d="M9.17467 40.3813C7.82684 40.3813 6.73047 41.4777 6.73047 42.8255C6.73047 44.1733 7.82694 45.2697 9.17467 45.2697C10.5224 45.2697 11.6189 44.1732 11.6189 42.8255C11.6189 41.4777 10.5224 40.3813 9.17467 40.3813ZM9.17467 43.7462C8.66696 43.7462 8.25391 43.3332 8.25391 42.8255C8.25391 42.3177 8.66696 41.9047 9.17467 41.9047C9.68238 41.9047 10.0954 42.3177 10.0954 42.8255C10.0954 43.3332 9.68238 43.7462 9.17467 43.7462Z" fill="#243746"/>
<path d="M9.17656 37.0162C5.97328 37.0162 3.36719 39.6222 3.36719 42.8255C3.36719 46.0287 5.97328 48.6348 9.17656 48.6348C12.3798 48.6348 14.9859 46.0287 14.9859 42.8255C14.9858 39.6222 12.3798 37.0162 9.17656 37.0162ZM9.17656 47.1114C6.8133 47.1114 4.89062 45.1887 4.89062 42.8255C4.89062 40.4623 6.8133 38.5396 9.17656 38.5396C11.5398 38.5396 13.4625 40.4623 13.4625 42.8255C13.4624 45.1887 11.5398 47.1114 9.17656 47.1114Z" fill="#243746"/>
<path d="M21.8245 14.5849C22.0045 14.5849 22.1852 14.5215 22.3303 14.3924L24.5085 12.4563C24.8229 12.1768 24.8513 11.6954 24.5718 11.381C24.2923 11.0666 23.8108 11.038 23.4964 11.3177L21.3181 13.2539C21.0037 13.5334 20.9755 14.0148 21.255 14.3292C21.4054 14.4986 21.6144 14.5849 21.8245 14.5849Z" fill="#243746"/>
<path d="M26.5628 10.3709C26.7428 10.3709 26.9235 10.3075 27.0686 10.1785L29.2468 8.24231C29.5612 7.96281 29.5895 7.4814 29.31 7.16696C29.0305 6.85252 28.549 6.82399 28.2346 7.10369L26.0564 9.03977C25.742 9.31927 25.7138 9.80068 25.9932 10.1151C26.1437 10.2845 26.3527 10.3709 26.5628 10.3709Z" fill="#243746"/>
<path d="M17.5859 18.349H19.3737C19.7943 18.349 20.1354 18.008 20.1354 17.5873C20.1354 17.2241 19.8812 16.9202 19.5409 16.844C19.7446 16.561 19.7327 16.165 19.4914 15.8936C19.2119 15.5792 18.7305 15.5505 18.416 15.8303L17.0799 17.018C16.8435 17.228 16.7616 17.5624 16.874 17.858C16.9862 18.1536 17.2696 18.349 17.5859 18.349Z" fill="#243746"/>
<path d="M27.5273 17.5873C27.5273 17.1665 27.1862 16.8256 26.7656 16.8256H23.4336C23.0129 16.8256 22.6719 17.1665 22.6719 17.5873C22.6719 18.008 23.0129 18.349 23.4336 18.349H26.7656C27.1862 18.349 27.5273 18.008 27.5273 17.5873Z" fill="#243746"/>
<path d="M30.5195 36.857H31.9662V38.6987H31.0453C30.6246 38.6987 30.2836 39.0396 30.2836 39.4604C30.2836 39.8812 30.6246 40.2221 31.0453 40.2221H34.4104C34.8311 40.2221 35.1721 39.8812 35.1721 39.4604C35.1721 39.0396 34.8311 38.6987 34.4104 38.6987H33.4895V36.857H37.0933C37.5139 36.857 37.855 36.5161 37.855 36.0953C37.855 35.6745 37.5139 35.3336 37.0933 35.3336H33.4895V18.349H43.744V35.3336H40.1402C39.7196 35.3336 39.3785 35.6745 39.3785 36.0953C39.3785 36.5161 39.7196 36.857 40.1402 36.857H44.5057C44.9264 36.857 45.2674 36.5161 45.2674 36.0953V18.349H47.8708C48.187 18.349 48.4704 18.1536 48.5827 17.8579C48.6952 17.5624 48.6132 17.228 48.3769 17.0179L33.4896 3.78473V1.52344H34.4104C34.8311 1.52344 35.1721 1.18249 35.1721 0.761719C35.1721 0.340945 34.8311 0 34.4104 0H31.0453C30.6246 0 30.2836 0.340945 30.2836 0.761719C30.2836 1.18249 30.6246 1.52344 31.0453 1.52344H31.9662V3.78463L30.8857 4.7451C30.5712 5.0246 30.5429 5.50601 30.8225 5.82045C30.973 5.98985 31.182 6.07608 31.3921 6.07608C31.572 6.07608 31.7527 6.0126 31.8978 5.88362L31.9662 5.82278V16.8254H30.9402C30.5195 16.8254 30.1785 17.1663 30.1785 17.5871C30.1785 18.0078 30.5195 18.3488 30.9402 18.3488H31.9662V35.3336H30.5195C30.0989 35.3336 29.7578 35.6745 29.7578 36.0953C29.7578 36.5161 30.0989 36.857 30.5195 36.857ZM45.8674 16.8256H33.4896V5.82309L45.8674 16.8256Z" fill="#243746"/>
<path d="M25.8008 36.857H27.9645C28.3851 36.857 28.7262 36.5161 28.7262 36.0953C28.7262 35.6745 28.3851 35.3336 27.9645 35.3336H25.8008C25.3801 35.3336 25.0391 35.6745 25.0391 36.0953C25.0391 36.5161 25.38 36.857 25.8008 36.857Z" fill="#243746"/>
<path d="M20.9531 36.857H23.1615C23.5822 36.857 23.9232 36.5161 23.9232 36.0953C23.9232 35.6745 23.5822 35.3336 23.1615 35.3336H21.7148V33.8869C21.7148 33.4662 21.3738 33.1252 20.9531 33.1252C20.5325 33.1252 20.1914 33.4662 20.1914 33.8869V36.0953C20.1914 36.5161 20.5325 36.857 20.9531 36.857Z" fill="#243746"/>
<path d="M20.9531 30.6252C21.3738 30.6252 21.7148 30.2842 21.7148 29.8634V26.4632C21.7148 26.0425 21.3738 25.7015 20.9531 25.7015C20.5325 25.7015 20.1914 26.0425 20.1914 26.4632V29.8634C20.1914 30.2842 20.5325 30.6252 20.9531 30.6252Z" fill="#243746"/>
<path d="M20.9531 23.0812C21.3738 23.0812 21.7148 22.7402 21.7148 22.3195V20.1111C21.7148 19.6903 21.3738 19.3494 20.9531 19.3494C20.5325 19.3494 20.1914 19.6903 20.1914 20.1111V22.3195C20.1914 22.7401 20.5325 23.0812 20.9531 23.0812Z" fill="#243746"/>
</g>
<defs>
<clipPath id="clip0_261_301">
<rect width="52" height="52" fill="white"/>
</clipPath>
</defs>
</svg>
