<svg width="52" height="52" viewBox="0 0 52 52" fill="none" xmlns="http://www.w3.org/2000/svg">
<path d="M49.2017 33.9173H46.0522L45.2052 8.23885C45.1665 7.06702 44.2179 6.1492 43.0456 6.1492C41.8732 6.1492 40.9245 7.06712 40.8859 8.23885L40.0388 33.9173H34.5155C34.0939 33.9173 33.7522 34.2591 33.7522 34.6806C33.7522 35.102 34.0939 35.4438 34.5155 35.4438H49.2016C49.903 35.4438 50.4736 36.0144 50.4736 36.7158V43.0524C50.4736 43.7537 49.903 44.3244 49.2016 44.3244H17.1617C16.7401 44.3244 16.3984 44.6661 16.3984 45.0877C16.3984 45.5093 16.7401 45.8509 17.1617 45.8509H49.2018C50.7448 45.8509 52.0003 44.5955 52.0003 43.0525V36.7159C52.0001 35.1727 50.7447 33.9173 49.2017 33.9173ZM42.4115 8.28912C42.4229 7.94513 42.7014 7.67558 43.0457 7.67558C43.3899 7.67558 43.6684 7.94513 43.6797 8.28912L44.525 33.9173H41.5662L42.4115 8.28912Z" fill="#243746"/>
<path d="M14.1087 44.3244H2.79845C2.09706 44.3244 1.52648 43.7538 1.52648 43.0524V36.7158C1.52648 36.0144 2.09706 35.4438 2.79845 35.4438H31.4626C31.8842 35.4438 32.2259 35.1021 32.2259 34.6806C32.2259 34.2591 31.8842 33.9173 31.4626 33.9173H11.9618L11.1148 8.23885C11.0761 7.06702 10.1275 6.1492 8.95517 6.1492C7.78274 6.1492 6.83404 7.06712 6.79545 8.23885L6.41002 19.9235C6.3961 20.3448 6.72638 20.6975 7.14766 20.7114C7.56671 20.7222 7.92167 20.3951 7.93559 19.9738L8.32102 8.28912C8.33239 7.94513 8.61088 7.67558 8.95517 7.67558C9.29937 7.67558 9.57785 7.94513 9.58923 8.28912L10.4345 33.9173H7.47571L7.83494 23.0243C7.84885 22.603 7.51857 22.2503 7.09729 22.2364C6.67652 22.2231 6.32318 22.5528 6.30937 22.974L5.94841 33.9173H2.79845C1.25541 33.9173 0 35.1727 0 36.7158V43.0524C0 44.5954 1.25541 45.8508 2.79845 45.8508H14.1087C14.5302 45.8508 14.8719 45.509 14.8719 45.0876C14.8719 44.6661 14.5301 44.3244 14.1087 44.3244Z" fill="#243746"/>
<path d="M5.91559 40.7458C5.494 40.7458 5.15234 41.0875 5.15234 41.509C5.15234 41.9305 5.494 42.2722 5.91559 42.2722H8.3537C8.77528 42.2722 9.11694 41.9305 9.11694 41.509C9.11694 41.0875 8.77528 40.7458 8.3537 40.7458H5.91559Z" fill="#243746"/>
<path d="M14.1077 40.7458H11.6695C11.2479 40.7458 10.9062 41.0875 10.9062 41.509C10.9062 41.9305 11.2479 42.2722 11.6695 42.2722H14.1077C14.5293 42.2722 14.8709 41.9305 14.8709 41.509C14.8708 41.0874 14.5292 40.7458 14.1077 40.7458Z" fill="#243746"/>
<path d="M17.4273 40.7458C17.0057 40.7458 16.6641 41.0875 16.6641 41.509C16.6641 41.9305 17.0057 42.2722 17.4273 42.2722H19.8654C20.287 42.2722 20.6287 41.9305 20.6287 41.509C20.6287 41.0875 20.287 40.7458 19.8654 40.7458H17.4273Z" fill="#243746"/>
<path d="M23.1812 40.7458C22.7596 40.7458 22.418 41.0875 22.418 41.509C22.418 41.9305 22.7596 42.2722 23.1812 42.2722H25.6193C26.0409 42.2722 26.3826 41.9305 26.3826 41.509C26.3826 41.0875 26.0409 40.7458 25.6193 40.7458H23.1812Z" fill="#243746"/>
<path d="M40.4357 42.2722C40.8573 42.2722 41.199 41.9304 41.199 41.5089C41.199 41.0874 40.8573 40.7457 40.4357 40.7457H37.9976C37.576 40.7457 37.2344 41.0874 37.2344 41.5089C37.2344 41.9304 37.576 42.2722 37.9976 42.2722H40.4357Z" fill="#243746"/>
<path d="M46.1115 42.2722C46.5331 42.2722 46.8748 41.9304 46.8748 41.5089C46.8748 41.0874 46.5331 40.7457 46.1115 40.7457H43.6734C43.2518 40.7457 42.9102 41.0874 42.9102 41.5089C42.9102 41.9304 43.2518 42.2722 43.6734 42.2722H46.1115Z" fill="#243746"/>
<path d="M16.6584 18.7013C21.8104 13.549 30.1937 13.5492 35.3458 18.7013C35.4948 18.8503 35.6901 18.9249 35.8855 18.9249C36.0808 18.9249 36.2761 18.8503 36.4252 18.7013C36.7231 18.4033 36.7231 17.92 36.4252 17.622C30.6778 11.8747 21.3263 11.8746 15.579 17.622C15.281 17.92 15.281 18.4033 15.579 18.7013C15.877 18.9994 16.3603 18.9994 16.6584 18.7013Z" fill="#243746"/>
<path d="M33.5266 21.5961C33.8246 21.298 33.8246 20.8148 33.5266 20.5168C29.3797 16.37 22.6349 16.3659 18.4827 20.5041C18.2462 20.7294 18.1732 21.0907 18.3269 21.398C18.4605 21.6654 18.7302 21.8201 19.0101 21.8201C19.1248 21.8201 19.2412 21.7942 19.3508 21.7393C19.427 21.7012 19.4949 21.6515 19.5528 21.5927C23.1093 18.04 28.8924 18.0414 32.4472 21.5961C32.7453 21.8941 33.2285 21.8941 33.5266 21.5961Z" fill="#243746"/>
<path d="M30.1495 24.6601C30.3448 24.6601 30.5401 24.5855 30.6892 24.4365C30.9872 24.1386 30.9872 23.6552 30.6892 23.3572C29.4371 22.1051 27.7723 21.4155 26.0013 21.4155C24.2306 21.4155 22.5657 22.1051 21.3134 23.3572C21.0153 23.6552 21.0153 24.1386 21.3134 24.4365C21.6114 24.7346 22.0946 24.7346 22.3928 24.4365C23.3566 23.4727 24.6383 22.9419 26.0012 22.9419C27.3644 22.9419 28.6458 23.4727 29.6096 24.4365C29.7589 24.5856 29.9542 24.6601 30.1495 24.6601Z" fill="#243746"/>
<path d="M23.8008 25.84C23.6564 25.9829 23.5743 26.1782 23.5743 26.3827C23.5649 27.059 24.422 27.4014 24.8816 26.9179C25.181 26.6206 25.5781 26.4569 26.0003 26.4569C26.4245 26.4569 26.8234 26.6222 27.1233 26.9221C27.8627 27.6118 28.8922 26.5814 28.2027 25.8428C26.9891 24.6292 25.0154 24.6284 23.8008 25.84Z" fill="#243746"/>
</svg>
