<svg width="52" height="52" viewBox="0 0 52 52" fill="none" xmlns="http://www.w3.org/2000/svg">
<path d="M48.9531 5.48438H43.9088C43.3479 5.48438 42.8932 5.93907 42.8932 6.5C42.8932 7.06093 43.3479 7.51562 43.9088 7.51562H48.9531C49.5131 7.51562 49.9688 7.97123 49.9688 8.53125V34.5312C49.9688 35.0913 49.5131 35.5469 48.9531 35.5469H3.04688C2.48686 35.5469 2.03125 35.0913 2.03125 34.5312V33.5555L8.58924 26.9975C8.98584 26.6009 8.98584 25.9579 8.58924 25.5611C8.19264 25.1645 7.54955 25.1645 7.15284 25.5611L2.03125 30.6827V8.53125C2.03125 7.97123 2.48686 7.51562 3.04688 7.51562H17.048L6.28123 18.2825C5.88463 18.6791 5.88463 19.3222 6.28123 19.7189C6.47959 19.9172 6.73948 20.0163 6.99938 20.0163C7.25928 20.0163 7.51928 19.9172 7.71753 19.7189L19.668 7.76831C19.7443 7.69204 19.8055 7.60652 19.8524 7.51562H34.7719C35.3328 7.51562 35.7875 7.06093 35.7875 6.5C35.7875 5.93907 35.3328 5.48438 34.7719 5.48438H3.04688C1.36683 5.48438 0 6.8512 0 8.53125V34.5312C0 36.2113 1.36683 37.5781 3.04688 37.5781H22.1406V40.4219H18.6875C17.0075 40.4219 15.6406 41.7887 15.6406 43.4688V45.5C15.6406 46.0609 16.0953 46.5156 16.6562 46.5156H35.3438C35.9047 46.5156 36.3594 46.0609 36.3594 45.5V43.4688C36.3594 41.7887 34.9925 40.4219 33.3125 40.4219H29.8594V37.5781H48.9531C50.6332 37.5781 52 36.2113 52 34.5312V8.53125C52 6.8512 50.6332 5.48438 48.9531 5.48438ZM24.1719 37.5781H27.8281V40.4219H24.1719V37.5781ZM33.3125 42.4531C33.8725 42.4531 34.3281 42.9087 34.3281 43.4688V44.4844H17.6719V43.4688C17.6719 42.9087 18.1275 42.4531 18.6875 42.4531H33.3125Z" fill="#243746"/>
<path d="M40.429 5.78195C40.2401 5.59305 39.978 5.48438 39.7109 5.48438C39.4438 5.48438 39.1818 5.59305 38.9929 5.78195C38.804 5.97086 38.6953 6.23289 38.6953 6.5C38.6953 6.76711 38.804 7.02914 38.9929 7.21805C39.1818 7.40695 39.4438 7.51562 39.7109 7.51562C39.978 7.51562 40.2401 7.40695 40.429 7.21805C40.6179 7.02914 40.7266 6.76711 40.7266 6.5C40.7266 6.23289 40.6179 5.97086 40.429 5.78195Z" fill="#243746"/>
<path d="M35.177 16.5374C34.6625 16.3137 34.0643 16.5494 33.8406 17.0637L31.2038 23.1269L28.3495 17.0376C28.1114 16.5298 27.5068 16.3108 26.9988 16.5491C26.491 16.7872 26.2722 17.3919 26.5103 17.8998L30.3189 26.0248C30.4863 26.3819 30.8449 26.6093 31.2384 26.6093C31.2432 26.6093 31.2481 26.6093 31.2529 26.6092C31.652 26.6036 32.0107 26.3647 32.17 25.9987L35.7034 17.8737C35.9271 17.3594 35.6915 16.7611 35.177 16.5374Z" fill="#243746"/>
<path d="M22.4848 16.4531H17.5195C16.9586 16.4531 16.5039 16.9078 16.5039 17.4688C16.5039 18.0297 16.9586 18.4844 17.5195 18.4844H18.9865V25.5938C18.9865 26.1547 19.4412 26.6094 20.0021 26.6094C20.5631 26.6094 21.0177 26.1547 21.0177 25.5938V18.4844H22.4848C23.0457 18.4844 23.5004 18.0297 23.5004 17.4688C23.5004 16.9078 23.0457 16.4531 22.4848 16.4531Z" fill="#243746"/>
<path d="M11.4837 22.6667C11.2948 22.4778 11.0327 22.3691 10.7656 22.3691C10.4985 22.3691 10.2365 22.4778 10.0476 22.6667C9.85867 22.8556 9.75 23.1177 9.75 23.3848C9.75 23.6519 9.85867 23.9139 10.0476 24.1028C10.2365 24.2917 10.4985 24.4004 10.7656 24.4004C11.0327 24.4004 11.2948 24.2917 11.4837 24.1028C11.6726 23.9139 11.7812 23.6519 11.7812 23.3848C11.7812 23.1177 11.6726 22.8556 11.4837 22.6667Z" fill="#243746"/>
</svg>
