<svg width="36" height="36" viewBox="0 0 36 36" fill="none" xmlns="http://www.w3.org/2000/svg">
<g clip-path="url(#clip0_416_196)">
<path d="M10.5403 14.0008H15.8734C16.3337 14.0008 16.7067 13.6278 16.7067 13.1675C16.7067 12.7073 16.3337 12.3342 15.8734 12.3342H10.5403C10.0801 12.3342 9.70703 12.7073 9.70703 13.1675C9.70703 13.6278 10.0802 14.0008 10.5403 14.0008Z" fill="#243746"/>
<path d="M20.8734 17.7507H10.5403C10.0801 17.7507 9.70703 18.1238 9.70703 18.584C9.70703 19.0443 10.0801 19.4173 10.5403 19.4173H20.8733C21.3335 19.4173 21.7066 19.0443 21.7066 18.584C21.7066 18.1238 21.3335 17.7507 20.8734 17.7507Z" fill="#243746"/>
<path d="M20.8734 23.167H10.5403C10.0801 23.167 9.70703 23.5401 9.70703 24.0003C9.70703 24.4605 10.0801 24.8336 10.5403 24.8336H20.8733C21.3335 24.8336 21.7066 24.4605 21.7066 24.0003C21.7066 23.5401 21.3335 23.167 20.8734 23.167Z" fill="#243746"/>
<path d="M32.7893 29.4169V3.16776C32.859 1.48942 31.5549 0.0723428 29.8766 0.00264139C29.806 -0.000309353 29.7351 -0.000787852 29.6645 0.0012059H11.7483C9.91504 0.0012059 8.20679 1.33447 8.20679 3.16776V4.58435H6.74857C4.84222 4.62622 3.2942 6.1378 3.20703 8.04255V34.3333C3.26126 34.8413 3.57739 35.2839 4.04034 35.5C4.51956 35.7116 5.07916 35.6129 5.45694 35.25L7.99849 32.9583L11.0401 35.6666C11.267 35.877 11.5639 35.9958 11.8734 35.9999C12.1813 35.9884 12.4758 35.8707 12.7067 35.6666L15.7066 32.9583L18.7064 35.6666C19.1809 36.091 19.8985 36.091 20.373 35.6666L23.4146 32.9583L25.9146 35.25C26.2172 35.6225 26.7419 35.7274 27.1645 35.5C27.5785 35.2623 27.821 34.8097 27.7895 34.3333V28.4168L28.2894 28.0418L30.831 30.3335C31.066 30.5576 31.3813 30.6778 31.7059 30.6668C31.8499 30.6798 31.9946 30.6509 32.1225 30.5835C32.5606 30.3654 32.8238 29.9049 32.7893 29.4169ZM26.1229 33.4167L24.1646 31.5001C23.7233 31.0491 23.0034 31.0306 22.5396 31.4585L19.498 34.1667L16.5398 31.4585C16.0527 31.0685 15.3603 31.0685 14.8732 31.4585L11.8733 34.1667L8.83172 31.4585C8.30624 31.0278 7.54503 31.0455 7.04013 31.5001L4.87357 33.4167V8.04263C4.9569 7.05788 5.76094 6.28957 6.74849 6.25105H24.6646C25.5812 6.25105 26.1229 7.12599 26.1229 8.04263V33.4167ZM31.1227 3.16776V28.5002L29.0395 26.5836C28.7061 26.2503 28.6229 26.167 27.7896 26.292V8.04263C27.7896 6.20934 26.4979 4.58443 24.6646 4.58443H9.87341V3.16776C9.87341 2.25111 10.8317 1.66782 11.7483 1.66782H29.6644C30.4222 1.61853 31.0764 2.19281 31.1257 2.9506C31.1305 3.02293 31.1295 3.09558 31.1227 3.16776Z" fill="#243746"/>
</g>
<defs>
<clipPath id="clip0_416_196">
<rect width="36" height="36" fill="white"/>
</clipPath>
</defs>
</svg>
