<svg width="52" height="52" viewBox="0 0 52 52" fill="none" xmlns="http://www.w3.org/2000/svg">
<path d="M51.2378 42.6663H47.2407V14.3136H48.7651C49.1859 14.3136 49.5274 13.9722 49.5274 13.5514V9.33371H51.2378C51.6596 9.33371 52 8.99226 52 8.57149V2.57534C52 2.15456 51.6596 1.81311 51.2378 1.81311H23.7641C23.3433 1.81311 23.0019 2.15456 23.0019 2.57534C23.0019 2.99611 23.3433 3.33756 23.7641 3.33756H50.4755V7.80926C49.0956 7.80926 16.3307 7.80926 14.5493 7.80926C14.1286 7.80926 13.7871 8.15071 13.7871 8.57149C13.7871 8.99226 14.1286 9.33371 14.5493 9.33371C16.4991 9.33371 46.7048 9.33371 48.0029 9.33371V12.7892C45.764 12.7892 5.81598 12.7892 3.99709 12.7892V9.33371H11.5004C11.9222 9.33371 12.2627 8.99226 12.2627 8.57149C12.2627 8.15071 11.9222 7.80926 11.5004 7.80926C10.4427 7.80926 3.53062 7.80926 2.47264 7.80926H1.52445V3.33756H20.7153C21.1361 3.33756 21.4775 2.99611 21.4775 2.57534C21.4775 2.15456 21.1361 1.81311 20.7153 1.81311H0.762227C0.340438 1.81311 0 2.15456 0 2.57534V8.57149C0 8.99226 0.340438 9.33371 0.762227 9.33371H2.47264V13.5514C2.47264 13.9722 2.81409 14.3136 3.23487 14.3136C3.36862 14.3136 4.3748 14.3136 4.75932 14.3136V42.6663H0.762227C0.340438 42.6663 0 43.0078 0 43.4286V49.4247C0 49.8455 0.340438 50.1869 0.762227 50.1869H11.5004C11.9222 50.1869 12.2627 49.8455 12.2627 49.4247C12.2627 49.0039 11.9222 48.6625 11.5004 48.6625H1.52445V44.1908C7.15416 44.1908 10.7691 44.1908 20.7153 44.1908C21.1361 44.1908 21.4775 43.8493 21.4775 43.4286C21.4775 43.0078 21.1361 42.6663 20.7153 42.6663H14.0585V20.8677H37.9415V42.6663H23.7641C23.3433 42.6663 23.0019 43.0078 23.0019 43.4286C23.0019 43.8493 23.3433 44.1908 23.7641 44.1908C25.1514 44.1908 49.5107 44.1908 50.4755 44.1908V48.6625H14.5493C14.1286 48.6625 13.7871 49.0039 13.7871 49.4247C13.7871 49.8455 14.1286 50.1869 14.5493 50.1869H51.2378C51.6596 50.1869 52 49.8455 52 49.4247V43.4286C52 43.0078 51.6596 42.6663 51.2378 42.6663ZM45.7162 42.6663H39.466V20.1054C39.466 19.6847 39.1245 19.3432 38.7037 19.3432H13.2963C12.8755 19.3432 12.534 19.6847 12.534 20.1054V42.6663H6.28377V14.3136H45.7162V42.6663Z" fill="#243746"/>
<path d="M33.0321 30.3762C32.9223 30.0135 32.5636 29.7858 32.1887 29.8437C31.8137 29.9006 31.5383 30.2249 31.5413 30.6029C31.5494 31.6629 31.2913 32.2819 31.0494 32.6284C28.9213 29.1069 29.9224 22.9421 29.9336 22.878C29.9813 22.5934 29.8645 22.3058 29.6317 22.1361C29.3989 21.9653 29.09 21.941 28.8329 22.0731C25.8163 23.6254 24.3221 26.624 23.9902 30.0267C23.8341 29.185 23.7442 28.122 23.7442 27.5703C23.7412 27.2623 23.5532 26.9869 23.2676 26.871C22.982 26.7561 22.6548 26.8243 22.4394 27.0438C19.9016 29.6221 20.0978 31.9261 20.7015 33.484C20.2381 33.1934 19.7848 32.6934 19.551 31.8336C19.3329 31.0256 18.1487 31.1167 18.0581 31.9494C18.0489 32.0359 17.8335 34.0867 18.4687 36.3663C21.0514 45.6049 33.7439 43.5262 33.9835 35.4831C34.0372 33.6852 33.5037 31.9271 33.0321 30.3762ZM32.4589 35.4384C32.2627 42.047 20.9483 43.7437 19.6586 34.6102C20.5519 35.2585 21.5723 35.4354 22.2085 35.4029C22.4789 35.3886 22.7217 35.2321 22.8457 34.9923C22.9707 34.7513 22.9586 34.4638 22.8142 34.2351C22.2217 33.2971 21.2126 31.6994 22.3772 29.6039C22.5863 31.149 23.1108 33.2812 24.669 33.4353C25.1627 33.4829 25.5629 33.0591 25.4992 32.5795C25.4921 32.5196 24.8488 27.1749 28.2372 24.2916C28.0492 26.6861 28.041 31.106 30.0848 33.9312C30.2606 34.1752 30.533 34.3408 30.8318 34.3835C31.4499 34.4743 31.9252 34.0307 32.2881 33.5165C32.4092 34.1568 32.4782 34.7982 32.4589 35.4384Z" fill="#243746"/>
<path d="M29.1824 36.1538C28.6622 35.1076 28.5213 33.6888 28.5564 32.5215C28.5564 31.529 27.3794 31.1784 26.8226 31.8813C25.7321 33.2523 25.3825 34.546 25.3063 35.4973C25.0009 35.3121 24.7485 35.1985 24.4312 35.1985C23.8519 35.1985 23.3468 35.5919 23.2005 36.1548C22.8365 37.5774 23.3728 38.8556 24.3468 39.5981C25.538 40.6971 27.9832 40.6318 29.0096 39.2384C29.7046 38.2947 29.7009 37.1994 29.1824 36.1538ZM25.3662 38.464C25.1908 38.2942 24.5212 37.8592 24.6172 36.8664C25.1975 37.2633 25.3202 37.6439 25.8916 37.6439C26.4915 37.6439 26.9511 37.1083 26.858 36.5158C26.7541 35.8721 26.8233 35.112 27.1172 34.3572C27.3848 36.4899 28.0288 36.8706 28.0288 37.6195C28.0288 39.0019 26.0106 39.0862 25.3662 38.464Z" fill="#243746"/>
</svg>
