<svg width="52" height="52" viewBox="0 0 52 52" fill="none" xmlns="http://www.w3.org/2000/svg">
<path d="M11.2508 36.3114C11.2508 33.7953 6.63049 34.776 6.63049 31.3642C6.63049 29.2603 8.39355 28.6351 9.91461 28.6351C10.8386 28.6351 12.5017 28.8767 12.5017 29.6586C12.5017 29.9427 12.3029 30.4688 11.8764 30.4688C11.4924 30.4688 11.1227 29.9288 9.91461 29.9288C8.87677 29.9288 8.13766 30.3267 8.13766 31.2221C8.13766 33.3264 12.7576 32.3738 12.7576 36.1551C12.7576 38.1879 11.3928 39.1829 9.51669 39.1829C7.66833 39.1829 6.375 38.2165 6.375 37.5055C6.375 37.1643 6.67334 36.695 7.02881 36.695C7.54059 36.695 7.88177 37.8181 9.45956 37.8181C10.4831 37.8181 11.2508 37.3349 11.2508 36.3114Z" fill="#243746"/>
<path d="M13.4414 38.4438C13.4414 38.4009 13.4414 38.3585 13.4553 38.3156L16.2844 29.104C16.3978 28.7628 16.8104 28.5922 17.2369 28.5922C17.663 28.5922 18.0899 28.7628 18.2033 29.104L21.0181 38.3156C21.0324 38.3585 21.0463 38.4009 21.0463 38.4438C21.0463 38.7993 20.5202 39.069 20.0941 39.069C19.8521 39.069 19.6534 38.9837 19.5824 38.7564L18.9996 36.7379H15.4881L14.9053 38.7564C14.8343 38.9837 14.6352 39.069 14.3793 39.069C13.9671 39.069 13.4414 38.8131 13.4414 38.4438ZM18.6584 35.5294L17.2369 30.6536L15.8154 35.5294H18.6584Z" fill="#243746"/>
<path d="M27.1147 29.1611C27.1147 28.8199 27.4844 28.6775 27.868 28.6775C28.2378 28.6775 28.6214 28.8195 28.6214 29.1611V35.9845C28.6214 38.2875 27.2 39.1543 25.3663 39.1543C23.5465 39.1543 22.125 38.2875 22.125 35.9845V29.1611C22.125 28.8199 22.4948 28.6775 22.8784 28.6775C23.2481 28.6775 23.6318 28.8195 23.6318 29.1611V35.9845C23.6318 37.2354 24.2856 37.8181 25.3659 37.8181C26.4604 37.8181 27.1147 37.2354 27.1147 35.9845V29.1611Z" fill="#243746"/>
<path d="M35.3614 38.5148L31.9638 32.0465V38.5715C31.9638 38.8984 31.5941 39.069 31.2104 39.069C30.8407 39.069 30.457 38.8984 30.457 38.5715V29.175C30.457 28.8195 30.8264 28.6775 31.2104 28.6775C31.7504 28.6775 32.0063 28.8767 32.3474 29.5305L35.5034 35.6857V29.1607C35.5034 28.8195 35.8871 28.6775 36.2568 28.6775C36.6404 28.6775 37.0102 28.8195 37.0102 29.1607V38.5715C37.0102 38.8984 36.6404 39.069 36.2568 39.069C35.8871 39.069 35.5605 38.8846 35.3614 38.5148Z" fill="#243746"/>
<path d="M38.1445 38.4438C38.1445 38.4009 38.1445 38.3585 38.1588 38.3156L40.9879 29.104C41.1013 28.7628 41.5135 28.5922 41.94 28.5922C42.3665 28.5922 42.793 28.7628 42.9069 29.104L45.7213 38.3156C45.7355 38.3585 45.7498 38.4009 45.7498 38.4438C45.7498 38.7993 45.2238 39.069 44.7973 39.069C44.5557 39.069 44.3565 38.9837 44.2855 38.7564L43.7031 36.7379H40.1917L39.6089 38.7564C39.5378 38.9837 39.3387 39.069 39.0828 39.069C38.6702 39.069 38.1445 38.8131 38.1445 38.4438ZM43.3615 35.5294L41.94 30.6536L40.5186 35.5294H43.3615Z" fill="#243746"/>
<path d="M49.5776 19.5028H44.2495C44.1095 19.3076 43.9436 19.1295 43.7524 18.9735L36.3467 12.9266C36.021 12.6604 35.5405 12.7088 35.2743 13.0349C35.0081 13.361 35.0565 13.8411 35.3826 14.1073L41.9905 19.5028H38.1605L29.9534 12.7643C30.5175 12.1887 30.9567 11.4912 31.2281 10.7152L32.6416 11.8693C32.9673 12.1355 33.4478 12.0871 33.714 11.761C33.9802 11.4349 33.9318 10.9549 33.6057 10.6887L31.5359 8.9986C31.5367 8.96249 31.5387 8.92639 31.5387 8.89029C31.5387 5.83627 29.054 3.35156 26 3.35156C22.9456 3.35156 20.4613 5.83627 20.4613 8.89029C20.4613 8.92917 20.4633 8.96765 20.4641 9.00613C16.2825 12.4366 7.85641 19.356 7.75128 19.5028H2.42242C1.08664 19.5028 0 20.5894 0 21.9252V46.1602C0 47.4963 1.08664 48.583 2.42242 48.583H11.7384C12.1593 48.583 12.5005 48.2418 12.5005 47.8209C12.5005 47.3995 12.1593 47.0583 11.7384 47.0583H2.42242C1.92731 47.0583 1.52423 46.6557 1.52423 46.1602V43.2958H50.4758V46.1602C50.4758 46.6557 50.0727 47.0583 49.5776 47.0583H15.2784C14.8571 47.0583 14.5159 47.3995 14.5159 47.8209C14.5159 48.2418 14.8571 48.583 15.2784 48.583H49.5776C50.9134 48.583 52 47.4963 52 46.1602V21.9252C52 20.5894 50.9134 19.5028 49.5776 19.5028ZM23.2884 13.7169C24.0905 14.1696 25.0153 14.429 26 14.429C26.9847 14.429 27.9095 14.1696 28.7116 13.7173L35.7583 19.5028H16.2421L23.2884 13.7169ZM26 4.87579C28.2133 4.87579 30.0145 6.67694 30.0145 8.89029C30.0145 11.1036 28.2133 12.9048 26 12.9048C23.7867 12.9048 21.9855 11.1036 21.9855 8.89029C21.9855 6.67694 23.7867 4.87579 26 4.87579ZM20.7715 10.7152C21.0433 11.4912 21.4825 12.1887 22.0466 12.7639L13.8395 19.5028H10.0095L20.7715 10.7152ZM50.4758 41.7715H1.52423V26.3142H50.4758V41.7715ZM50.4758 24.79H1.52423V21.9252C1.52423 21.4301 1.92731 21.027 2.42242 21.027H49.5776C50.0727 21.027 50.4758 21.4301 50.4758 21.9252V24.79Z" fill="#243746"/>
</svg>
