<svg width="52" height="52" viewBox="0 0 52 52" fill="none" xmlns="http://www.w3.org/2000/svg">
<path d="M45.5 26.8125C45.5 26.1697 45.3094 25.5414 44.9523 25.0069C44.5952 24.4724 44.0876 24.0559 43.4937 23.8099C42.8999 23.5639 42.2464 23.4995 41.616 23.6249C40.9855 23.7504 40.4064 24.0599 39.9519 24.5144C39.4974 24.9689 39.1879 25.548 39.0624 26.1785C38.937 26.8089 39.0014 27.4624 39.2474 28.0562C39.4934 28.6501 39.9099 29.1577 40.4444 29.5148C40.9789 29.8719 41.6072 30.0625 42.25 30.0625C43.1117 30.0615 43.9378 29.7188 44.547 29.1095C45.1563 28.5003 45.499 27.6742 45.5 26.8125ZM40.625 26.8125C40.625 26.4911 40.7203 26.1769 40.8989 25.9097C41.0774 25.6425 41.3312 25.4342 41.6281 25.3112C41.9251 25.1882 42.2518 25.156 42.567 25.2187C42.8823 25.2814 43.1718 25.4362 43.3991 25.6635C43.6263 25.8907 43.7811 26.1803 43.8438 26.4955C43.9065 26.8107 43.8743 27.1374 43.7513 27.4344C43.6283 27.7313 43.42 27.9851 43.1528 28.1637C42.8856 28.3422 42.5714 28.4375 42.25 28.4375C41.8192 28.437 41.4062 28.2656 41.1015 27.961C40.7969 27.6564 40.6255 27.2433 40.625 26.8125Z" fill="#243746"/>
<path d="M45.5 5.6875C44.5358 5.6875 43.5933 5.97341 42.7916 6.50909C41.9899 7.04476 41.3651 7.80613 40.9961 8.69692C40.6271 9.58771 40.5306 10.5679 40.7187 11.5136C40.9068 12.4592 41.3711 13.3279 42.0529 14.0096C42.7346 14.6914 43.6033 15.1557 44.5489 15.3438C45.4946 15.5319 46.4748 15.4354 47.3656 15.0664C48.2564 14.6974 49.0177 14.0726 49.5534 13.2709C50.0891 12.4692 50.375 11.5267 50.375 10.5625C50.3735 9.27002 49.8594 8.03091 48.9455 7.11699C48.0316 6.20307 46.7925 5.68898 45.5 5.6875ZM45.5 13.8125C44.8572 13.8125 44.2289 13.6219 43.6944 13.2648C43.1599 12.9077 42.7434 12.4001 42.4974 11.8062C42.2514 11.2124 42.187 10.5589 42.3124 9.92845C42.4379 9.29802 42.7474 8.71892 43.2019 8.2644C43.6564 7.80988 44.2355 7.50035 44.866 7.37495C45.4964 7.24954 46.1499 7.31391 46.7437 7.55989C47.3376 7.80587 47.8452 8.22244 48.2023 8.75689C48.5594 9.29135 48.75 9.91971 48.75 10.5625C48.749 11.4242 48.4063 12.2502 47.797 12.8595C47.1877 13.4688 46.3617 13.8115 45.5 13.8125Z" fill="#243746"/>
<path d="M34.125 21.9375C34.9285 21.9375 35.7139 21.6992 36.382 21.2529C37.0501 20.8065 37.5708 20.172 37.8783 19.4297C38.1858 18.6873 38.2662 17.8705 38.1095 17.0825C37.9527 16.2944 37.5658 15.5705 36.9976 15.0024C36.4295 14.4342 35.7056 14.0473 34.9176 13.8906C34.1295 13.7338 33.3127 13.8143 32.5704 14.1217C31.828 14.4292 31.1935 14.9499 30.7472 15.618C30.3008 16.2861 30.0625 17.0715 30.0625 17.875C30.0637 18.9521 30.4921 19.9847 31.2537 20.7463C32.0153 21.5079 33.0479 21.9363 34.125 21.9375ZM34.125 15.4375C34.6071 15.4375 35.0784 15.5805 35.4792 15.8483C35.8801 16.1161 36.1925 16.4968 36.377 16.9422C36.5615 17.3876 36.6097 17.8777 36.5157 18.3505C36.4216 18.8234 36.1895 19.2577 35.8486 19.5986C35.5077 19.9395 35.0734 20.1716 34.6005 20.2657C34.1277 20.3597 33.6376 20.3115 33.1922 20.127C32.7468 19.9425 32.3661 19.6301 32.0983 19.2292C31.8305 18.8284 31.6875 18.3571 31.6875 17.875C31.6883 17.2288 31.9453 16.6092 32.4023 16.1523C32.8592 15.6953 33.4788 15.4383 34.125 15.4375Z" fill="#243746"/>
<path d="M22.75 23.5625H13C12.7845 23.5625 12.5778 23.6481 12.4255 23.8005C12.2731 23.9528 12.1875 24.1595 12.1875 24.375V29.25C12.1875 29.4655 12.2731 29.6722 12.4255 29.8245C12.5778 29.9769 12.7845 30.0625 13 30.0625H22.75C22.9655 30.0625 23.1722 29.9769 23.3245 29.8245C23.4769 29.6722 23.5625 29.4655 23.5625 29.25V24.375C23.5625 24.1595 23.4769 23.9528 23.3245 23.8005C23.1722 23.6481 22.9655 23.5625 22.75 23.5625ZM21.9375 28.4375H13.8125V25.1875H21.9375V28.4375Z" fill="#243746"/>
<path d="M49.5625 44.6875H43.5891C44.767 43.7385 45.6215 42.4474 46.0346 40.9923C46.4477 39.5371 46.3992 37.9897 45.8957 36.5633C45.3921 35.1369 44.4585 33.9019 43.2234 33.0286C41.9883 32.1553 40.5126 31.6867 39 31.6875C38.1794 31.6875 37.3913 31.8646 36.5568 32.0522C35.5773 32.2723 34.5642 32.5 33.3125 32.5C32.0608 32.5 31.0477 32.2723 30.0682 32.0522C29.2337 31.8646 28.4456 31.6875 27.625 31.6875V19.5C27.6238 18.4229 27.1954 17.3903 26.4338 16.6287C25.6722 15.8671 24.6396 15.4387 23.5625 15.4375H22.75V13C22.75 12.7845 22.6644 12.5778 22.512 12.4255C22.3597 12.2731 22.153 12.1875 21.9375 12.1875H20.3125V7.3125H23.5625V9.75C23.5625 9.96549 23.6481 10.1722 23.8005 10.3245C23.9528 10.4769 24.1595 10.5625 24.375 10.5625H27.625C27.8405 10.5625 28.0472 10.4769 28.1995 10.3245C28.3519 10.1722 28.4375 9.96549 28.4375 9.75V6.5C28.4363 5.42293 28.0079 4.39032 27.2463 3.62871C26.4847 2.86711 25.4521 2.43871 24.375 2.4375H14.625C13.9788 2.43823 13.3592 2.69527 12.9022 3.15223C12.4453 3.60919 12.1882 4.22876 12.1875 4.875V6.5C12.1875 6.71549 12.2731 6.92215 12.4255 7.07452C12.5778 7.2269 12.7845 7.3125 13 7.3125H15.4375V12.1875H13.8125C13.597 12.1875 13.3903 12.2731 13.238 12.4255C13.0856 12.5778 13 12.7845 13 13V15.4375H12.1875C11.1104 15.4387 10.0778 15.8671 9.31621 16.6287C8.55461 17.3903 8.12621 18.4229 8.125 19.5V42.25C8.12408 43.1295 8.41013 43.9853 8.93973 44.6875H2.4375C2.22201 44.6875 2.01535 44.7731 1.86298 44.9255C1.7106 45.0778 1.625 45.2845 1.625 45.5C1.62621 46.5771 2.05461 47.6097 2.81621 48.3713C3.57782 49.1329 4.61043 49.5613 5.6875 49.5625H46.3125C47.3896 49.5613 48.4222 49.1329 49.1838 48.3713C49.9454 47.6097 50.3738 46.5771 50.375 45.5C50.375 45.2845 50.2894 45.0778 50.137 44.9255C49.9847 44.7731 49.778 44.6875 49.5625 44.6875ZM29.7119 33.6375C30.7283 33.8661 31.8805 34.125 33.3125 34.125C34.7445 34.125 35.8967 33.8661 36.9131 33.6375C37.6898 33.4631 38.3602 33.3125 39 33.3125C40.5084 33.3125 41.9551 33.9117 43.0217 34.9783C44.0883 36.0449 44.6875 37.4916 44.6875 39C44.6875 40.5084 44.0883 41.9551 43.0217 43.0217C41.9551 44.0883 40.5084 44.6875 39 44.6875H27.625C26.1166 44.6875 24.6699 44.0883 23.6033 43.0217C22.5367 41.9551 21.9375 40.5084 21.9375 39C21.9375 37.4916 22.5367 36.0449 23.6033 34.9783C24.6699 33.9117 26.1166 33.3125 27.625 33.3125C28.2648 33.3125 28.9352 33.4631 29.7119 33.6375ZM20.3125 39C20.3129 39.2715 20.3283 39.5427 20.3587 39.8125H9.75V21.9375H26V31.8717C24.3856 32.2417 22.9444 33.148 21.9114 34.4426C20.8785 35.7373 20.3148 37.3438 20.3125 39ZM13.8125 4.875C13.8127 4.65959 13.8984 4.45306 14.0507 4.30074C14.2031 4.14842 14.4096 4.06274 14.625 4.0625H24.375C25.0212 4.06323 25.6408 4.32027 26.0978 4.77723C26.5547 5.23419 26.8118 5.85376 26.8125 6.5V8.9375H25.1875V6.5C25.1875 6.28451 25.1019 6.07785 24.9495 5.92548C24.7972 5.7731 24.5905 5.6875 24.375 5.6875H13.8125V4.875ZM17.0625 7.3125H18.6875V12.1875H17.0625V7.3125ZM14.625 13.8125H21.125V15.4375H14.625V13.8125ZM12.1875 17.0625H23.5625C24.2087 17.0632 24.8283 17.3203 25.2853 17.7772C25.7422 18.2342 25.9993 18.8538 26 19.5V20.3125H9.75V19.5C9.75073 18.8538 10.0078 18.2342 10.4647 17.7772C10.9217 17.3203 11.5413 17.0632 12.1875 17.0625ZM9.75 42.25V41.4375H20.7318C21.1855 42.7125 21.9829 43.8373 23.0359 44.6875H12.1875C11.5413 44.6868 10.9217 44.4297 10.4647 43.9728C10.0078 43.5158 9.75073 42.8962 9.75 42.25ZM46.3125 47.9375H5.6875C5.18356 47.9369 4.69214 47.7804 4.28067 47.4895C3.86919 47.1985 3.55781 46.7874 3.38924 46.3125H48.6108C48.4422 46.7874 48.1308 47.1985 47.7193 47.4895C47.3079 47.7804 46.8164 47.9369 46.3125 47.9375Z" fill="#243746"/>
<path d="M26.8125 35.75C26.8125 35.9655 26.8981 36.1722 27.0505 36.3245C27.2028 36.4769 27.4095 36.5625 27.625 36.5625C28.2648 36.5625 28.9352 36.7131 29.7119 36.8875C30.7283 37.1161 31.8805 37.375 33.3125 37.375C34.7445 37.375 35.8967 37.1161 36.9131 36.8875C37.6898 36.7131 38.3602 36.5625 39 36.5625C39.2155 36.5625 39.4222 36.4769 39.5745 36.3245C39.7269 36.1722 39.8125 35.9655 39.8125 35.75C39.8125 35.5345 39.7269 35.3278 39.5745 35.1755C39.4222 35.0231 39.2155 34.9375 39 34.9375C38.1794 34.9375 37.3912 35.1146 36.5568 35.3022C35.5773 35.5223 34.5642 35.75 33.3125 35.75C32.0608 35.75 31.0477 35.5223 30.0682 35.3022C29.2338 35.1146 28.4456 34.9375 27.625 34.9375C27.4095 34.9375 27.2028 35.0231 27.0505 35.1755C26.8981 35.3278 26.8125 35.5345 26.8125 35.75Z" fill="#243746"/>
</svg>
