<svg width="52" height="52" viewBox="0 0 52 52" fill="none" xmlns="http://www.w3.org/2000/svg">
<g clip-path="url(#clip0_261_1013)">
<path d="M48.3452 10.2274H12.364C11.9424 10.2274 11.6006 10.5691 11.6006 10.9907C11.6006 11.4124 11.9424 11.7541 12.364 11.7541H48.3452C49.5187 11.7541 50.4734 12.7088 50.4734 13.8823V30.1356C50.4734 31.3091 49.5187 32.2638 48.3452 32.2638H46.5173V27.2901C46.5173 26.8684 46.1756 26.5268 45.754 26.5268H6.246C5.82443 26.5268 5.48265 26.8684 5.48265 27.2901V32.2638H3.6549C2.48138 32.2638 1.52669 31.3091 1.52669 30.1356V13.8823C1.52669 12.7088 2.48138 11.7541 3.6549 11.7541H9.31057C9.73214 11.7541 10.0739 11.4124 10.0739 10.9907C10.0739 10.5691 9.73214 10.2274 9.31057 10.2274H3.6549C1.63956 10.2274 0 11.867 0 13.8823V30.1356C0 32.1509 1.63956 33.7905 3.6549 33.7905H11.6009C12.0225 33.7905 12.3643 33.4488 12.3643 33.0271C12.3643 32.6055 12.0225 32.2638 11.6009 32.2638H7.00934V30.9219H37.3458C37.7674 30.9219 38.1091 30.5802 38.1091 30.1586C38.1091 29.7369 37.7674 29.3952 37.3458 29.3952H7.00934V28.0534H44.9907V29.3952H40.3992C39.9776 29.3952 39.6358 29.7369 39.6358 30.1586C39.6358 30.5802 39.9776 30.9219 40.3992 30.9219H44.9907V32.2638H14.6542C14.2326 32.2638 13.8908 32.6055 13.8908 33.0271C13.8908 33.4488 14.2326 33.7905 14.6542 33.7905H48.3452C50.3605 33.7905 52.0001 32.1509 52.0001 30.1356V13.8823C52 11.8671 50.3604 10.2274 48.3452 10.2274Z" fill="#243746"/>
<path d="M45.7514 16.434C46.1729 16.434 46.5147 16.0923 46.5147 15.6707C46.5147 15.249 46.1729 14.9073 45.7514 14.9073H43.4938C43.0722 14.9073 42.7305 15.249 42.7305 15.6707C42.7305 16.0923 43.0722 16.434 43.4938 16.434H45.7514Z" fill="#243746"/>
<path d="M40.0123 16.434C40.4339 16.434 40.7757 16.0923 40.7757 15.6707C40.7757 15.249 40.4339 14.9073 40.0123 14.9073H25.5641C25.1426 14.9073 24.8008 15.249 24.8008 15.6707C24.8008 16.0923 25.1426 16.434 25.5641 16.434H40.0123Z" fill="#243746"/>
<path d="M14.3595 35.8329C13.9379 35.8329 13.5961 36.1745 13.5961 36.5962C13.5961 36.6189 13.5716 38.8819 11.454 40.387C11.1104 40.6311 11.0298 41.1078 11.274 41.4514C11.4229 41.6609 11.6581 41.7726 11.8969 41.7726C12.0499 41.7726 12.2044 41.7267 12.3385 41.6313C15.0913 39.6747 15.1229 36.7209 15.1229 36.5961C15.1228 36.1745 14.7811 35.8329 14.3595 35.8329Z" fill="#243746"/>
<path d="M19.8258 35.8329C19.4043 35.8329 19.0625 36.1745 19.0625 36.5962V41.0092C19.0625 41.4308 19.4043 41.7725 19.8258 41.7725C20.2474 41.7725 20.5892 41.4308 20.5892 41.0092V36.5962C20.5892 36.1745 20.2474 35.8329 19.8258 35.8329Z" fill="#243746"/>
<path d="M26.2165 35.8329C25.7949 35.8329 25.4531 36.1745 25.4531 36.5962V41.0092C25.4531 41.4308 25.7949 41.7725 26.2165 41.7725C26.638 41.7725 26.9798 41.4308 26.9798 41.0092V36.5962C26.9798 36.1745 26.638 35.8329 26.2165 35.8329Z" fill="#243746"/>
<path d="M40.5478 40.387C38.4586 38.9021 38.4067 36.6943 38.4056 36.5927C38.4038 36.1727 38.0627 35.8329 37.6423 35.8329C37.2207 35.8329 36.8789 36.1745 36.8789 36.5962C36.8789 36.721 36.9106 39.6748 39.6633 41.6314C39.7974 41.7268 39.9519 41.7727 40.1049 41.7727C40.3437 41.7726 40.5789 41.6608 40.7278 41.4515C40.972 41.1078 40.8914 40.6311 40.5478 40.387Z" fill="#243746"/>
<path d="M32.1735 35.8329C31.7519 35.8329 31.4102 36.1745 31.4102 36.5962V41.0092C31.4102 41.4308 31.7519 41.7725 32.1735 41.7725C32.5951 41.7725 32.9368 41.4308 32.9368 41.0092V36.5962C32.9368 36.1745 32.5951 35.8329 32.1735 35.8329Z" fill="#243746"/>
</g>
<defs>
<clipPath id="clip0_261_1013">
<rect width="52" height="52" fill="white"/>
</clipPath>
</defs>
</svg>
