<svg width="52" height="52" viewBox="0 0 52 52" fill="none" xmlns="http://www.w3.org/2000/svg">
<path d="M51.1875 30.875H34.9375V29.25H35.75C36.1987 29.25 36.5625 28.8862 36.5625 28.4375C36.5625 27.9888 36.1987 27.625 35.75 27.625H34.9375V26.8125C34.9375 25.0176 36.3926 23.5625 38.1875 23.5625C39.9824 23.5625 41.4375 25.0176 41.4375 26.8125C41.4375 27.2612 41.8013 27.625 42.25 27.625C42.6987 27.625 43.0625 27.2612 43.0625 26.8125C43.0625 24.1201 40.8799 21.9375 38.1875 21.9375C35.4951 21.9375 33.3125 24.1201 33.3125 26.8125V30.875H19.6787C20.0845 30.4309 20.3104 29.8516 20.3125 29.25V24.375C20.3125 23.9263 19.9487 23.5625 19.5 23.5625H7.3125C6.8638 23.5625 6.5 23.9263 6.5 24.375V29.25C6.50213 29.8516 6.72801 30.4309 7.13375 30.875H0.8125C0.363797 30.875 0 31.2388 0 31.6875V51.1875C0 51.6362 0.363797 52 0.8125 52H51.1875C51.6362 52 52 51.6362 52 51.1875V31.6875C52 31.2388 51.6362 30.875 51.1875 30.875ZM8.125 25.1875H18.6875V29.25C18.6875 29.6987 18.3237 30.0625 17.875 30.0625H8.9375C8.4888 30.0625 8.125 29.6987 8.125 29.25V25.1875ZM13 50.375H1.625V40.625H13V50.375ZM13 39H1.625V32.5H4.0625C4.0625 32.9487 4.4263 33.3125 4.875 33.3125H9.75C10.1987 33.3125 10.5625 32.9487 10.5625 32.5H13V39ZM37.375 50.375H14.625V32.5H37.375V50.375ZM50.375 50.375H39V40.625H50.375V50.375ZM50.375 39H39V32.5H41.4375C41.4375 32.9487 41.8013 33.3125 42.25 33.3125H47.125C47.5737 33.3125 47.9375 32.9487 47.9375 32.5H50.375V39Z" fill="#243746"/>
<path d="M16.25 44.6875H35.75C36.1987 44.6875 36.5625 44.3237 36.5625 43.875V35.75C36.5625 35.3013 36.1987 34.9375 35.75 34.9375H16.25C15.8013 34.9375 15.4375 35.3013 15.4375 35.75V43.875C15.4375 44.3237 15.8013 44.6875 16.25 44.6875ZM17.0625 36.5625H34.9375V43.0625H17.0625V36.5625Z" fill="#243746"/>
<path d="M30.875 47.125H21.125C20.6763 47.125 20.3125 47.4888 20.3125 47.9375C20.3125 48.3862 20.6763 48.75 21.125 48.75H30.875C31.3237 48.75 31.6875 48.3862 31.6875 47.9375C31.6875 47.4888 31.3237 47.125 30.875 47.125Z" fill="#243746"/>
<path d="M8.9375 12.1875H43.0625C43.5112 12.1875 43.875 11.8237 43.875 11.375V0.8125C43.875 0.363797 43.5112 0 43.0625 0H8.9375C8.4888 0 8.125 0.363797 8.125 0.8125V11.375C8.125 11.8237 8.4888 12.1875 8.9375 12.1875ZM26.8125 1.625H42.25V10.5625H26.8125V1.625ZM9.75 1.625H25.1875V10.5625H9.75V1.625Z" fill="#243746"/>
<path d="M20.3125 5.6875H13.8125C13.3638 5.6875 13 6.0513 13 6.5C13 6.9487 13.3638 7.3125 13.8125 7.3125H20.3125C20.7612 7.3125 21.125 6.9487 21.125 6.5C21.125 6.0513 20.7612 5.6875 20.3125 5.6875Z" fill="#243746"/>
<path d="M38.1875 5.6875H31.6875C31.2388 5.6875 30.875 6.0513 30.875 6.5C30.875 6.9487 31.2388 7.3125 31.6875 7.3125H38.1875C38.6362 7.3125 39 6.9487 39 6.5C39 6.0513 38.6362 5.6875 38.1875 5.6875Z" fill="#243746"/>
<path d="M9.2625 20.0688C8.58904 20.4565 8.16014 21.1612 8.125 21.9375C8.125 22.3862 8.4888 22.75 8.9375 22.75C9.3862 22.75 9.75 22.3862 9.75 21.9375C9.75 21.7661 9.83125 21.6759 10.2375 21.3687C10.911 20.981 11.3399 20.2763 11.375 19.5C11.3399 18.7237 10.911 18.019 10.2375 17.6313C9.82719 17.3233 9.75 17.2331 9.75 17.0625C9.75 16.8919 9.83125 16.8025 10.2375 16.4937C10.911 16.106 11.3399 15.4013 11.375 14.625C11.375 14.1763 11.0112 13.8125 10.5625 13.8125C10.1138 13.8125 9.75 14.1763 9.75 14.625C9.75 14.7948 9.66875 14.885 9.2625 15.1938C8.58904 15.5815 8.16014 16.2862 8.125 17.0625C8.16014 17.8388 8.58904 18.5435 9.2625 18.9312C9.66875 19.2392 9.75 19.3294 9.75 19.5C9.75 19.6706 9.66875 19.76 9.2625 20.0688Z" fill="#243746"/>
<path d="M14.3 16.4937C14.9735 16.106 15.4024 15.4013 15.4375 14.625C15.4375 14.1763 15.0737 13.8125 14.625 13.8125C14.1763 13.8125 13.8125 14.1763 13.8125 14.625C13.8125 14.7948 13.7312 14.885 13.325 15.1938C12.6515 15.5815 12.2226 16.2862 12.1875 17.0625C12.2226 17.8388 12.6515 18.5435 13.325 18.9312C13.7312 19.2392 13.8125 19.3294 13.8125 19.5C13.8125 19.6706 13.7312 19.7616 13.325 20.0688C12.6515 20.4565 12.2226 21.1612 12.1875 21.9375C12.1875 22.3862 12.5513 22.75 13 22.75C13.4487 22.75 13.8125 22.3862 13.8125 21.9375C13.8125 21.7661 13.8938 21.6759 14.3 21.3687C14.9735 20.981 15.4024 20.2763 15.4375 19.5C15.4024 18.7237 14.9735 18.019 14.3 17.6313C13.8938 17.3233 13.8125 17.2331 13.8125 17.0625C13.8125 16.8919 13.8938 16.8001 14.3 16.4937Z" fill="#243746"/>
<path d="M18.3625 16.4937C19.036 16.106 19.4649 15.4013 19.5 14.625C19.5 14.1763 19.1362 13.8125 18.6875 13.8125C18.2388 13.8125 17.875 14.1763 17.875 14.625C17.875 14.7948 17.7937 14.885 17.3875 15.1938C16.714 15.5815 16.2851 16.2862 16.25 17.0625C16.2851 17.8388 16.714 18.5435 17.3875 18.9312C17.7937 19.2392 17.875 19.3294 17.875 19.5C17.875 19.6706 17.7937 19.7616 17.3875 20.0688C16.714 20.4565 16.2851 21.1612 16.25 21.9375C16.25 22.3862 16.6138 22.75 17.0625 22.75C17.5112 22.75 17.875 22.3862 17.875 21.9375C17.875 21.7661 17.9563 21.6759 18.3625 21.3687C19.036 20.981 19.4649 20.2763 19.5 19.5C19.4649 18.7237 19.036 18.019 18.3625 17.6313C17.9563 17.3233 17.875 17.2331 17.875 17.0625C17.875 16.8919 17.9563 16.8001 18.3625 16.4937Z" fill="#243746"/>
</svg>
