<svg width="52" height="52" viewBox="0 0 52 52" fill="none" xmlns="http://www.w3.org/2000/svg">
<path d="M49.4 27.7334H48.5334V9.53337C48.5334 5.2 45.0667 1.73337 40.7334 1.73337C36.8974 1.73337 34.1384 4.57773 33.8298 8.74534C31.8159 9.126 30.3334 10.8605 30.3334 13C30.3334 13.52 30.68 13.8666 31.2 13.8666H38.1334C38.6534 13.8666 39 13.52 39 13C39 10.8841 37.5503 9.16408 35.5705 8.75804C35.8295 6.00407 37.4836 3.46663 40.7334 3.46663C44.1134 3.46663 46.8 6.15326 46.8 9.53326V27.7333H20.7162C20.3242 25.7344 18.5958 24.2666 16.4667 24.2666C15.6001 23.2266 14.3867 22.5333 13.0001 22.5333C11.3535 22.5333 9.8801 23.4866 9.18673 24.8733C8.49337 24.5266 7.71337 24.2666 6.93337 24.2666C4.80431 24.2666 3.07592 25.7344 2.68389 27.7333H2.6C1.12663 27.7333 0 28.8599 0 30.3333C0 31.8066 1.12663 32.9333 2.6 32.9333H3.64152L5.98 42.2066C6.67337 44.8933 9.1 46.8 11.8734 46.8H12.5667L11.4401 49.0534C11.1801 49.4867 11.3535 50.0067 11.7867 50.18C11.8734 50.2666 12.0467 50.2666 12.1334 50.2666C12.48 50.2666 12.74 50.0933 12.9134 49.8333L14.43 46.8H38.48L39.9534 49.7466C40.1267 50.0933 40.3867 50.2666 40.7334 50.2666C40.9067 50.2666 40.9934 50.2666 41.08 50.0933C41.4266 49.9199 41.6 49.3999 41.4266 48.9666L40.341 46.7953C43.0242 46.7001 45.3446 44.826 46.02 42.2933L48.3803 32.9333H49.4C50.8734 32.9333 52 31.8066 52 30.3333C52 28.86 50.8734 27.7334 49.4 27.7334ZM37.18 12.1334H32.24C32.5866 11.0934 33.6266 10.4 34.7534 10.4C35.8801 10.4 36.8334 11.0934 37.18 12.1334ZM6.93337 26C7.71337 26 8.40673 26.3466 9.01337 26.9534C9.18673 27.2134 9.53337 27.3 9.88 27.2134C10.2266 27.1267 10.4 26.8667 10.4866 26.52C10.7466 25.22 11.7866 24.2666 13.0866 24.2666C14.04 24.2666 14.9066 24.7 15.34 25.5666C15.5134 25.9133 15.9466 26.0866 16.2934 26C16.38 26 16.4667 26 16.5534 26C17.68 26 18.6334 26.6934 18.98 27.7334H4.50663C4.85337 26.6934 5.80663 26 6.93337 26ZM44.46 41.7734C43.94 43.68 42.2066 45.0667 40.2134 45.0667H11.96C9.96663 45.0667 8.23337 43.6801 7.71337 41.7734L5.46 32.9334H46.54L44.46 41.7734ZM49.4 31.2H47.6666H4.33337H2.6C2.08 31.2 1.73337 30.8534 1.73337 30.3334C1.73337 29.8134 2.08 29.4667 2.6 29.4667H3.46663H19.9333H49.4C49.92 29.4667 50.2666 29.8134 50.2666 30.3334C50.2666 30.8534 49.92 31.2 49.4 31.2Z" fill="#243746"/>
<path d="M31.1987 17.7666C31.7187 17.7666 32.0653 17.42 32.0653 16.9V16.4666C32.0653 15.9466 31.7187 15.6 31.1987 15.6C30.6787 15.6 30.332 15.9466 30.332 16.4666V16.9C30.332 17.42 30.6787 17.7666 31.1987 17.7666Z" fill="#243746"/>
<path d="M31.1987 21.7534C31.7187 21.7534 32.0653 21.32 32.0653 20.8867V19.9334C32.0653 19.4134 31.7187 19.0667 31.1987 19.0667C30.6787 19.0667 30.332 19.4134 30.332 19.9334V20.8867C30.332 21.4066 30.6787 21.7534 31.1987 21.7534Z" fill="#243746"/>
<path d="M31.1987 25.1334C31.7187 25.1334 32.0653 24.7867 32.0653 24.2667V23.8334C32.0653 23.3134 31.7187 22.9667 31.1987 22.9667C30.6787 22.9667 30.332 23.3134 30.332 23.8334V24.2667C30.332 24.7866 30.6787 25.1334 31.1987 25.1334Z" fill="#243746"/>
<path d="M34.6674 17.7666C35.1874 17.7666 35.534 17.42 35.534 16.9V16.4666C35.534 15.9466 35.1874 15.6 34.6674 15.6C34.1474 15.6 33.8008 15.9466 33.8008 16.4666V16.9C33.8008 17.42 34.1474 17.7666 34.6674 17.7666Z" fill="#243746"/>
<path d="M33.8008 20.8866C33.8008 21.4066 34.1474 21.7533 34.6674 21.7533C35.1874 21.7533 35.534 21.3199 35.534 20.8866V19.9333C35.534 19.4133 35.1874 19.0666 34.6674 19.0666C34.1474 19.0666 33.8008 19.4133 33.8008 19.9333V20.8866Z" fill="#243746"/>
<path d="M33.8008 24.2666C33.8008 24.7866 34.1474 25.1333 34.6674 25.1333C35.1874 25.1333 35.534 24.7866 35.534 24.2666V23.8333C35.534 23.3133 35.1874 22.9666 34.6674 22.9666C34.1474 22.9666 33.8008 23.3133 33.8008 23.8333V24.2666Z" fill="#243746"/>
<path d="M38.1323 17.7666C38.6523 17.7666 38.9989 17.42 38.9989 16.9V16.4666C38.9989 15.9466 38.6523 15.6 38.1323 15.6C37.6123 15.6 37.2656 15.9466 37.2656 16.4666V16.9C37.2655 17.42 37.6123 17.7666 38.1323 17.7666Z" fill="#243746"/>
<path d="M37.2656 20.8866C37.2656 21.4066 37.6123 21.7533 38.1323 21.7533C38.6523 21.7533 38.999 21.32 38.999 20.8866V19.9333C38.999 19.4133 38.6524 19.0666 38.1324 19.0666C37.6124 19.0666 37.2657 19.4133 37.2657 19.9333V20.8866H37.2656Z" fill="#243746"/>
<path d="M37.2656 24.2666C37.2656 24.7866 37.6123 25.1333 38.1323 25.1333C38.6523 25.1333 38.9989 24.7866 38.9989 24.2666V23.8333C38.9989 23.3133 38.6523 22.9666 38.1323 22.9666C37.6123 22.9666 37.2656 23.3133 37.2656 23.8333V24.2666Z" fill="#243746"/>
</svg>
