<svg width="52" height="52" viewBox="0 0 52 52" fill="none" xmlns="http://www.w3.org/2000/svg">
<path d="M36.5625 17.0625H15.4375C15.222 17.0625 15.0153 17.1481 14.863 17.3005C14.7106 17.4528 14.625 17.6595 14.625 17.875C14.625 18.0905 14.7106 18.2972 14.863 18.4495C15.0153 18.6019 15.222 18.6875 15.4375 18.6875H36.5625C36.778 18.6875 36.9847 18.6019 37.137 18.4495C37.2894 18.2972 37.375 18.0905 37.375 17.875C37.375 17.6595 37.2894 17.4528 37.137 17.3005C36.9847 17.1481 36.778 17.0625 36.5625 17.0625Z" fill="#243746"/>
<path d="M15.4375 21.125C15.222 21.125 15.0153 21.2106 14.863 21.363C14.7106 21.5153 14.625 21.722 14.625 21.9375V32.5C14.625 32.7155 14.7106 32.9222 14.863 33.0745C15.0153 33.2269 15.222 33.3125 15.4375 33.3125C15.653 33.3125 15.8597 33.2269 16.012 33.0745C16.1644 32.9222 16.25 32.7155 16.25 32.5V21.9375C16.25 21.722 16.1644 21.5153 16.012 21.363C15.8597 21.2106 15.653 21.125 15.4375 21.125Z" fill="#243746"/>
<path d="M15.4375 14.625C15.653 14.625 15.8597 14.5394 16.012 14.387C16.1644 14.2347 16.25 14.028 16.25 13.8125V10.5625C16.25 10.347 16.1644 10.1403 16.012 9.98798C15.8597 9.8356 15.653 9.75 15.4375 9.75C15.222 9.75 15.0153 9.8356 14.863 9.98798C14.7106 10.1403 14.625 10.347 14.625 10.5625V13.8125C14.625 14.028 14.7106 14.2347 14.863 14.387C15.0153 14.5394 15.222 14.625 15.4375 14.625Z" fill="#243746"/>
<path d="M33.3125 1.625H18.6875C16.749 1.62801 14.8908 2.3994 13.5201 3.7701C12.1494 5.14081 11.378 6.99903 11.375 8.9375V47.9375C11.3769 48.5834 11.6344 49.2022 12.0911 49.6589C12.5478 50.1156 13.1666 50.3731 13.8125 50.375H38.1875C38.8334 50.3731 39.4522 50.1156 39.9089 49.6589C40.3656 49.2022 40.6231 48.5834 40.625 47.9375V8.9375C40.622 6.99903 39.8506 5.14081 38.4799 3.7701C37.1092 2.3994 35.251 1.62801 33.3125 1.625ZM39 47.9375C39 48.153 38.9144 48.3597 38.762 48.512C38.6097 48.6644 38.403 48.75 38.1875 48.75H13.8125C13.597 48.75 13.3903 48.6644 13.238 48.512C13.0856 48.3597 13 48.153 13 47.9375V8.9375C13.0017 7.42961 13.6015 5.98397 14.6677 4.91773C15.734 3.85149 17.1796 3.25172 18.6875 3.25H33.3125C34.8204 3.25172 36.266 3.85149 37.3323 4.91773C38.3985 5.98397 38.9983 7.42961 39 8.9375V47.9375Z" fill="#243746"/>
<path d="M33.8888 40.0481C34.041 40.2015 34.1264 40.4089 34.1264 40.625C34.1264 40.8411 34.041 41.0485 33.8888 41.2019C33.7348 41.3529 33.5276 41.4375 33.3119 41.4375C33.0962 41.4375 32.8891 41.3529 32.735 41.2019L31.3538 39.8125H27.9575L30.395 42.25H31.6869C31.9024 42.25 32.1091 42.3356 32.2614 42.488C32.4138 42.6403 32.4994 42.847 32.4994 43.0625C32.4994 43.278 32.4138 43.4847 32.2614 43.637C32.1091 43.7894 31.9024 43.875 31.6869 43.875H30.8744V44.6875C30.8744 44.903 30.7888 45.1097 30.6364 45.262C30.4841 45.4144 30.2774 45.5 30.0619 45.5C29.8464 45.5 29.6398 45.4144 29.4874 45.262C29.335 45.1097 29.2494 44.903 29.2494 44.6875V43.3956L26.8119 40.9581V44.3544L28.2013 45.7356C28.3535 45.889 28.4389 46.0964 28.4389 46.3125C28.4389 46.5286 28.3535 46.736 28.2013 46.8894C28.0473 47.0404 27.8401 47.125 27.6244 47.125C27.4087 47.125 27.2016 47.0404 27.0475 46.8894L25.9994 45.8331L24.9513 46.8894C24.7983 47.0424 24.5908 47.1283 24.3744 47.1283C24.158 47.1283 23.9505 47.0424 23.7975 46.8894C23.6445 46.7364 23.5586 46.5289 23.5586 46.3125C23.5586 46.0961 23.6445 45.8886 23.7975 45.7356L25.1869 44.3544V40.9581L22.7494 43.3956V44.6875C22.7494 44.903 22.6638 45.1097 22.5114 45.262C22.3591 45.4144 22.1524 45.5 21.9369 45.5C21.7214 45.5 21.5148 45.4144 21.3624 45.262C21.21 45.1097 21.1244 44.903 21.1244 44.6875V43.875H20.3119C20.0964 43.875 19.8898 43.7894 19.7374 43.637C19.585 43.4847 19.4994 43.278 19.4994 43.0625C19.4994 42.847 19.585 42.6403 19.7374 42.488C19.8898 42.3356 20.0964 42.25 20.3119 42.25H21.6038L24.0413 39.8125H20.645L19.2638 41.2019C19.1098 41.3529 18.9026 41.4375 18.6869 41.4375C18.4712 41.4375 18.2641 41.3529 18.11 41.2019C17.9578 41.0485 17.8724 40.8411 17.8724 40.625C17.8724 40.4089 17.9578 40.2015 18.11 40.0481L19.1663 39L18.11 37.9519C17.957 37.7989 17.8711 37.5914 17.8711 37.375C17.8711 37.1586 17.957 36.9511 18.11 36.7981C18.263 36.6451 18.4705 36.5592 18.6869 36.5592C18.9033 36.5592 19.1108 36.6451 19.2638 36.7981L20.645 38.1875H24.0413L21.6038 35.75H20.3119C20.0964 35.75 19.8898 35.6644 19.7374 35.512C19.585 35.3597 19.4994 35.153 19.4994 34.9375C19.4994 34.722 19.585 34.5153 19.7374 34.363C19.8898 34.2106 20.0964 34.125 20.3119 34.125H21.1244V33.3125C21.1244 33.097 21.21 32.8903 21.3624 32.738C21.5148 32.5856 21.7214 32.5 21.9369 32.5C22.1524 32.5 22.3591 32.5856 22.5114 32.738C22.6638 32.8903 22.7494 33.097 22.7494 33.3125V34.6044L25.1869 37.0419V33.6456L23.7975 32.2644C23.7218 32.1886 23.6617 32.0987 23.6207 31.9997C23.5797 31.9007 23.5586 31.7946 23.5586 31.6875C23.5586 31.5804 23.5797 31.4743 23.6207 31.3753C23.6617 31.2763 23.7218 31.1864 23.7975 31.1106C23.8733 31.0349 23.9632 30.9748 24.0622 30.9338C24.1612 30.8928 24.2673 30.8717 24.3744 30.8717C24.4815 30.8717 24.5876 30.8928 24.6866 30.9338C24.7856 30.9748 24.8755 31.0349 24.9513 31.1106L25.9994 32.1669L27.0475 31.1106C27.1233 31.0349 27.2132 30.9748 27.3122 30.9338C27.4112 30.8928 27.5173 30.8717 27.6244 30.8717C27.7315 30.8717 27.8376 30.8928 27.9366 30.9338C28.0356 30.9748 28.1255 31.0349 28.2013 31.1106C28.277 31.1864 28.3371 31.2763 28.3781 31.3753C28.4191 31.4743 28.4402 31.5804 28.4402 31.6875C28.4402 31.7946 28.4191 31.9007 28.3781 31.9997C28.3371 32.0987 28.277 32.1886 28.2013 32.2644L26.8119 33.6456V37.0419L29.2494 34.6044V33.3125C29.2494 33.097 29.335 32.8903 29.4874 32.738C29.6398 32.5856 29.8464 32.5 30.0619 32.5C30.2774 32.5 30.4841 32.5856 30.6364 32.738C30.7888 32.8903 30.8744 33.097 30.8744 33.3125V34.125H31.6869C31.9024 34.125 32.1091 34.2106 32.2614 34.363C32.4138 34.5153 32.4994 34.722 32.4994 34.9375C32.4994 35.153 32.4138 35.3597 32.2614 35.512C32.1091 35.6644 31.9024 35.75 31.6869 35.75H30.395L27.9575 38.1875H31.3538L32.735 36.7981C32.888 36.6451 33.0955 36.5592 33.3119 36.5592C33.5283 36.5592 33.7358 36.6451 33.8888 36.7981C34.0418 36.9511 34.1277 37.1586 34.1277 37.375C34.1277 37.5914 34.0418 37.7989 33.8888 37.9519L32.8325 39L33.8888 40.0481Z" fill="#243746"/>
<path d="M19.5 9.01875C19.5707 9.01875 19.6625 9.13168 19.8469 9.40062C20.0101 9.71112 20.2512 9.97394 20.5464 10.1634C20.8416 10.3528 21.181 10.4623 21.5312 10.4812C21.8811 10.4619 22.2199 10.3522 22.5147 10.1628C22.8095 9.97337 23.0501 9.71078 23.2131 9.40062C23.5893 8.85868 23.5381 8.86518 23.9094 9.40062C24.0569 9.7229 24.2939 9.99603 24.5921 10.1875C24.8903 10.379 25.2373 10.4808 25.5917 10.4808C25.9461 10.4808 26.2931 10.379 26.5913 10.1875C26.8896 9.99603 27.1265 9.7229 27.274 9.40062C27.4617 9.13168 27.5511 9.01875 27.6226 9.01875C27.6941 9.01875 27.7631 9.1 27.9719 9.40143C28.1199 9.72376 28.3573 9.99686 28.6558 10.1883C28.9544 10.3798 29.3016 10.4815 29.6562 10.4815C30.0109 10.4815 30.3581 10.3798 30.6567 10.1883C30.9552 9.99686 31.1926 9.72376 31.3406 9.40143C31.5494 9.10081 31.6249 9.01875 31.6908 9.01875C31.9062 9.01875 32.1129 8.93314 32.2653 8.78077C32.4176 8.6284 32.5033 8.42173 32.5033 8.20625C32.5033 7.99076 32.4176 7.78409 32.2653 7.63172C32.1129 7.47935 31.9062 7.39375 31.6908 7.39375C31.3407 7.41307 31.0016 7.52268 30.7064 7.7119C30.4113 7.90112 30.1701 8.16352 30.0064 8.47356C29.7976 8.77418 29.7221 8.85625 29.6562 8.85625C29.5904 8.85625 29.5149 8.775 29.3061 8.47356C29.1583 8.15137 28.9211 7.87837 28.6228 7.68697C28.3244 7.49558 27.9774 7.39384 27.623 7.39384C27.2685 7.39384 26.9215 7.49558 26.6231 7.68697C26.3248 7.87837 26.0877 8.15137 25.9399 8.47356C25.5669 9.009 25.6197 9.01387 25.2436 8.47356C25.0961 8.15128 24.8591 7.87814 24.5609 7.68665C24.2627 7.49515 23.9157 7.39334 23.5613 7.39334C23.2069 7.39334 22.8599 7.49515 22.5617 7.68665C22.2634 7.87814 22.0265 8.15128 21.879 8.47356C21.5044 9.01225 21.5589 9.01143 21.1843 8.47356C21.021 8.16321 20.7799 7.90056 20.4847 7.71128C20.1895 7.52201 19.8502 7.4126 19.5 7.39375C19.2845 7.39375 19.0778 7.47935 18.9255 7.63172C18.7731 7.78409 18.6875 7.99076 18.6875 8.20625C18.6875 8.42173 18.7731 8.6284 18.9255 8.78077C19.0778 8.93314 19.2845 9.01875 19.5 9.01875Z" fill="#243746"/>
</svg>
