<svg width="238" height="238" viewBox="0 0 238 238" fill="none" xmlns="http://www.w3.org/2000/svg">
<circle cx="59.2931" cy="60.0939" r="26.2931" stroke="#C4C4C4" stroke-width="2"/>
<g clip-path="url(#clip0_421_153)">
<path d="M101.142 88.8886C101.098 90.1228 100.759 91.2643 99.8821 92.1541C97.3937 94.6791 94.9383 97.2418 92.3491 99.6599C90.3017 101.57 87.5015 101.457 85.484 99.5027C83.0853 97.1852 80.7434 94.808 78.3967 92.4371C77.488 91.5284 77.2628 90.4278 77.7132 89.1999C77.7802 89.0101 77.783 88.8035 77.7211 88.6119C77.225 87.2755 77.5636 86.1545 78.5432 85.175C79.8546 83.8753 81.1618 82.5714 82.4648 81.2634C83.4003 80.3295 84.3421 79.4019 85.2698 78.4601C86.2651 77.4507 87.4101 77.1143 88.7661 77.6237C88.9813 77.6769 89.2079 77.661 89.4134 77.5781C90.5506 77.1897 91.601 77.3533 92.4499 78.185C94.9079 80.5957 97.3422 83.0269 99.7529 85.4785C100.2 85.9258 100.554 86.4579 100.792 87.0435C101.031 87.6292 101.15 88.2565 101.142 88.8886ZM99.2521 88.9185C99.2521 87.9359 98.8111 87.1592 98.1276 86.48C95.9111 84.2789 93.6989 82.0736 91.4908 79.8641C91.3205 79.6788 91.1236 79.5198 90.9065 79.3924C90.7121 79.2825 90.4856 79.2428 90.2653 79.28C90.045 79.3172 89.8443 79.4291 89.6969 79.5968C89.5335 79.7487 89.4265 79.9514 89.3933 80.1718C89.3601 80.3923 89.4027 80.6174 89.5142 80.8106C89.6407 81.0262 89.8001 81.2209 89.9867 81.3876C92.1538 83.5551 94.321 85.7196 96.4881 87.8808C97.3102 88.7031 97.307 89.0804 96.4692 89.9169L90.0576 96.3126C89.1898 97.1774 88.8386 97.1774 87.9755 96.3126C85.7633 94.1115 83.551 91.9062 81.3387 89.6967C80.7954 89.1701 80.1654 89.1276 79.7213 89.5521C79.2362 90.0096 79.2582 90.6417 79.8252 91.2108C82.1341 93.5282 84.4382 95.8504 86.7801 98.1317C88.1141 99.4382 89.8985 99.4587 91.2262 98.1616C93.6107 95.8331 95.951 93.4622 98.3134 91.1039C98.9033 90.5272 99.2408 89.741 99.2521 88.9169V88.9185ZM87.6511 79.3185L87.5156 79.2053C87.24 79.3751 86.9219 79.5025 86.6967 79.7242C84.4004 81.9944 82.1152 84.2763 79.841 86.5696C79.6142 86.7976 79.4913 87.1293 79.3212 87.4139C80.9324 87.0806 82.0695 87.6529 83.0743 88.7377C84.0539 89.7958 85.1044 90.7816 86.0289 91.7123L91.8562 85.9108C90.8892 84.9502 89.8891 83.9031 88.8276 82.9236C87.7661 81.9441 87.2164 80.7996 87.6511 79.3185ZM87.5676 93.0849L88.9677 94.5675L94.6548 88.876L93.2862 87.4092C93.1728 87.5145 93.0783 87.5978 92.9901 87.6859L87.5676 93.0849Z" fill="#C4C4C4"/>
</g>
<g clip-path="url(#clip1_421_153)">
<path d="M67.8833 109.78C66.9794 110.622 65.9329 111.189 64.6833 111.198C61.1383 111.224 57.59 111.3 54.0494 111.179C51.2509 111.082 49.3508 109.022 49.3061 106.213C49.2487 102.879 49.2736 99.5417 49.2908 96.2059C49.2908 94.9207 49.9097 93.9833 51.0965 93.4335C51.2781 93.3466 51.4262 93.2025 51.5179 93.0233C52.112 91.7275 53.1441 91.1743 54.5294 91.1744C56.3758 91.1826 58.2221 91.185 60.0684 91.1814C61.3903 91.1825 62.7121 91.1926 64.034 91.1826C65.4516 91.1727 66.4991 91.7444 67.0978 93.0635C67.2123 93.2533 67.3837 93.4022 67.5877 93.4889C68.6664 94.0184 69.2935 94.8768 69.3057 96.0652C69.3391 99.5079 69.3413 102.948 69.3124 106.386C69.3125 107.019 69.1862 107.645 68.9407 108.228C68.6953 108.811 68.3358 109.339 67.8833 109.78ZM66.5258 108.465C67.2206 107.77 67.458 106.909 67.4549 105.945C67.4441 102.822 67.4392 99.698 67.4402 96.5743C67.4508 96.3229 67.424 96.0712 67.3605 95.8276C67.3008 95.6124 67.1688 95.4242 66.9866 95.2947C66.8045 95.1653 66.5835 95.1024 66.3607 95.1168C66.1377 95.1087 65.9187 95.1763 65.7394 95.3087C65.5601 95.4411 65.431 95.6305 65.3733 95.8459C65.3102 96.0879 65.2853 96.3382 65.2994 96.588C65.299 99.6531 65.301 102.716 65.3051 105.777C65.305 106.939 65.0359 107.204 63.852 107.203L54.7959 107.192C53.5708 107.19 53.3224 106.941 53.3236 105.72C53.3157 102.599 53.3108 99.4751 53.3088 96.3484C53.297 95.5918 52.8816 95.1163 52.2674 95.1024C51.6009 95.0829 51.1695 95.5454 51.168 96.3488C51.1619 99.6201 51.1492 102.891 51.1921 106.161C51.2115 108.028 52.4588 109.304 54.3148 109.325C57.6473 109.365 60.9787 109.343 64.3168 109.346C65.1416 109.356 65.9362 109.038 66.5269 108.464L66.5258 108.465ZM65.1109 93.4734L65.0951 93.2976C64.7802 93.2228 64.4652 93.0879 64.1492 93.0854C60.9201 93.067 57.6907 93.0646 54.461 93.0781C54.1394 93.079 53.818 93.2267 53.4965 93.3076C54.8714 94.2112 55.2708 95.4199 55.2142 96.8975C55.1587 98.3384 55.2045 99.7783 55.2 101.09L63.4228 101.108C63.4183 99.7453 63.4516 98.2977 63.3936 96.8545C63.3356 95.4113 63.7562 94.2133 65.1109 93.4734ZM55.3175 103.149L55.2592 105.187L63.3051 105.184L63.3746 103.179C63.2199 103.173 63.0941 103.165 62.9695 103.165L55.3175 103.149Z" fill="#C4C4C4"/>
</g>
<g clip-path="url(#clip2_421_153)">
<path d="M17.4439 29.4795C17.488 28.2453 17.8266 27.1039 18.7039 26.214C21.1923 23.6891 23.6476 21.1263 26.2368 18.7083C28.2842 16.798 31.0845 16.9112 33.102 18.8655C35.5006 21.1829 37.8425 23.5601 40.1892 25.931C41.0979 26.8398 41.3232 27.9403 40.8727 29.1682C40.8057 29.3581 40.8029 29.5647 40.8649 29.7562C41.361 31.0926 41.0223 32.2136 40.0427 33.1931C38.7313 34.4928 37.4241 35.7967 36.1211 37.1048C35.1856 38.0387 34.2438 38.9663 33.3162 39.9081C32.3208 40.9174 31.1758 41.2539 29.8198 40.7445C29.6046 40.6912 29.3781 40.7072 29.1725 40.7901C28.0354 41.1784 26.9849 41.0149 26.136 40.1832C23.678 37.7725 21.2437 35.3413 18.833 32.8897C18.3855 32.4424 18.0321 31.9102 17.7935 31.3246C17.555 30.739 17.4361 30.1117 17.4439 29.4795ZM19.3338 29.4497C19.3338 30.4323 19.7748 31.209 20.4583 31.8882C22.6748 34.0893 24.8871 36.2946 27.0951 38.5041C27.2654 38.6894 27.4623 38.8483 27.6794 38.9757C27.8739 39.0857 28.1003 39.1254 28.3206 39.0882C28.5409 39.0509 28.7417 38.9391 28.889 38.7714C29.0524 38.6195 29.1595 38.4168 29.1927 38.1963C29.2258 37.9759 29.1832 37.7507 29.0717 37.5576C28.9452 37.3419 28.7858 37.1472 28.5992 36.9806C26.4321 34.813 24.265 32.6486 22.0979 30.4873C21.2757 29.6651 21.2789 29.2877 22.1168 28.4513L28.5283 22.0555C29.3961 21.1908 29.7473 21.1908 30.6104 22.0555C32.8227 24.2566 35.0349 26.4619 37.2472 28.6714C37.7906 29.1981 38.4205 29.2406 38.8647 28.8161C39.3498 28.3585 39.3277 27.7265 38.7607 27.1574C36.4519 24.8399 34.1477 22.5178 31.8058 20.2365C30.4718 18.9299 28.6874 18.9095 27.3597 20.2066C24.9753 22.535 22.6349 24.906 20.2725 27.2643C19.6826 27.8409 19.3452 28.6271 19.3338 29.4512L19.3338 29.4497ZM30.9349 39.0496L31.0703 39.1628C31.3459 38.993 31.664 38.8657 31.8893 38.644C34.1855 36.3737 36.4708 34.0919 38.745 31.7986C38.9718 31.5706 39.0946 31.2389 39.2647 30.9543C37.6535 31.2876 36.5164 30.7153 35.5116 29.6305C34.532 28.5724 33.4815 27.5866 32.557 26.6558L26.7298 32.4573C27.6968 33.4179 28.6969 34.465 29.7584 35.4445C30.8199 36.424 31.3695 37.5686 30.9349 39.0496ZM31.0183 25.2833L29.6182 23.8007L23.9311 29.4921L25.2997 30.959C25.4131 30.8537 25.5076 30.7703 25.5958 30.6823L31.0183 25.2833Z" fill="#C4C4C4"/>
</g>
<g clip-path="url(#clip3_421_153)">
<path d="M50.7026 8.58811C51.6065 7.74658 52.6531 7.1789 53.9026 7.16997C57.4476 7.14411 60.9959 7.06817 64.5366 7.18918C67.3351 7.28618 69.2351 9.34629 69.2798 12.1548C69.3372 15.4895 69.3123 18.8265 69.2952 22.1623C69.2951 23.4474 68.6762 24.3849 67.4894 24.9347C67.3078 25.0215 67.1598 25.1656 67.0681 25.3449C66.4739 26.6406 65.4418 27.1939 64.0565 27.1938C62.2102 27.1855 60.3639 27.1832 58.5175 27.1868C57.1957 27.1856 55.8738 27.1756 54.5519 27.1856C53.1344 27.1955 52.0868 26.6238 51.4882 25.3047C51.3737 25.1149 51.2022 24.966 50.9982 24.8792C49.9196 24.3498 49.2924 23.4913 49.2802 22.303C49.2468 18.8603 49.2446 15.4199 49.2735 11.9817C49.2734 11.3489 49.3998 10.7228 49.6452 10.14C49.8906 9.55723 50.2501 9.02959 50.7026 8.58811ZM52.0601 9.90336C51.3653 10.5982 51.1279 11.4592 51.131 12.4228C51.1419 15.5465 51.1468 18.6702 51.1458 21.7939C51.1351 22.0453 51.162 22.2969 51.2254 22.5406C51.2851 22.7558 51.4172 22.944 51.5993 23.0734C51.7814 23.2029 52.0025 23.2657 52.2252 23.2513C52.4482 23.2595 52.6672 23.1918 52.8466 23.0594C53.0259 22.927 53.1549 22.7377 53.2127 22.5222C53.2757 22.2803 53.3007 22.0299 53.2866 21.7801C53.2869 18.7151 53.285 15.6522 53.2809 12.5916C53.281 11.4288 53.55 11.1642 54.7339 11.1652L63.7901 11.1764C65.0152 11.1786 65.2635 11.4269 65.2623 12.6487C65.2702 15.7694 65.2751 18.8931 65.2771 22.0197C65.2889 22.7764 65.7043 23.2518 66.3186 23.2657C66.9851 23.2852 67.4164 22.8227 67.4179 22.0194C67.424 18.7481 67.4367 15.4768 67.3939 12.2077C67.3744 10.3405 66.1271 9.06432 64.2711 9.04269C60.9386 9.00309 57.6072 9.02469 54.2692 9.0218C53.4443 9.01244 52.6498 9.32975 52.059 9.90448L52.0601 9.90336ZM53.4751 24.8947L53.4908 25.0705C53.8058 25.1454 54.1208 25.2803 54.4368 25.2828C57.6658 25.3011 60.8952 25.3036 64.125 25.29C64.4465 25.2892 64.768 25.1415 65.0895 25.0605C63.7145 24.157 63.3151 22.9482 63.3717 21.4706C63.4272 20.0298 63.3815 18.5899 63.3859 17.278L55.1631 17.2598C55.1676 18.6229 55.1344 20.0704 55.1924 21.5136C55.2504 22.9568 54.8297 24.1548 53.4751 24.8947ZM63.2684 15.2195L63.3267 13.1811L55.2809 13.1841L55.2114 15.1891C55.3661 15.1948 55.4918 15.2027 55.6164 15.2028L63.2684 15.2195Z" fill="#C4C4C4"/>
</g>
<g clip-path="url(#clip4_421_153)">
<path d="M29.5909 101.035C28.3567 100.991 27.2152 100.652 26.3254 99.7747C23.8004 97.2862 21.2377 94.8309 18.8196 92.2417C16.9093 90.1943 17.0225 87.394 18.9768 85.3765C21.2943 82.9779 23.6715 80.636 26.0424 78.2893C26.9511 77.3806 28.0517 77.1554 29.2796 77.6058C29.4694 77.6728 29.676 77.6756 29.8676 77.6137C31.204 77.1176 32.325 77.4562 33.3044 78.4358C34.6041 79.7472 35.908 81.0544 37.2161 82.3574C38.15 83.2929 39.0776 84.2347 40.0194 85.1624C41.0288 86.1577 41.3652 87.3027 40.8558 88.6587C40.8025 88.8739 40.8185 89.1005 40.9014 89.306C41.2897 90.4431 41.1262 91.4936 40.2945 92.3425C37.8838 94.8005 35.4526 97.2348 33.001 99.6455C32.5537 100.093 32.0216 100.446 31.4359 100.685C30.8503 100.924 30.223 101.042 29.5909 101.035ZM29.561 99.1447C30.5436 99.1447 31.3203 98.7037 31.9995 98.0202C34.2006 95.8037 36.4059 93.5914 38.6154 91.3834C38.8007 91.2131 38.9597 91.0162 39.0871 90.7991C39.197 90.6046 39.2367 90.3782 39.1995 90.1579C39.1623 89.9376 39.0504 89.7368 38.8827 89.5895C38.7308 89.4261 38.5281 89.319 38.3077 89.2859C38.0872 89.2527 37.8621 89.2953 37.6689 89.4068C37.4532 89.5333 37.2586 89.6927 37.0919 89.8793C34.9244 92.0464 32.7599 94.2135 30.5987 96.3807C29.7764 97.2028 29.3991 97.1996 28.5626 96.3618L22.1668 89.9502C21.3021 89.0824 21.3021 88.7312 22.1668 87.8681C24.368 85.6558 26.5733 83.4436 28.7827 81.2313C29.3094 80.6879 29.3519 80.058 28.9274 79.6138C28.4699 79.1288 27.8378 79.1508 27.2687 79.7178C24.9512 82.0266 22.6291 84.3308 20.3478 86.6727C19.0413 88.0067 19.0208 89.7911 20.3179 91.1188C22.6464 93.5032 25.0173 95.8436 27.3756 98.206C27.9523 98.7959 28.7384 99.1333 29.5626 99.1447L29.561 99.1447ZM39.161 87.5437L39.2742 87.4082C39.1044 87.1326 38.977 86.8145 38.7553 86.5892C36.485 84.293 34.2032 82.0077 31.9099 79.7335C31.6819 79.5067 31.3502 79.3839 31.0656 79.2138C31.3989 80.825 30.8266 81.9621 29.7418 82.9669C28.6837 83.9465 27.6979 84.997 26.7672 85.9215L32.5686 91.7488C33.5293 90.7817 34.5764 89.7817 35.5559 88.7201C36.5354 87.6586 37.6799 87.109 39.161 87.5437ZM25.3946 87.4602L23.912 88.8603L29.6034 94.5474L31.0703 93.1788C30.965 93.0654 30.8817 92.9709 30.7936 92.8827L25.3946 87.4602Z" fill="#C4C4C4"/>
</g>
<g clip-path="url(#clip5_421_153)">
<path d="M8.69748 67.772C7.85596 66.8681 7.28828 65.8215 7.27935 64.572C7.25348 61.027 7.17755 57.4787 7.29856 53.938C7.39556 51.1395 9.45567 49.2395 12.2641 49.1948C15.5989 49.1374 18.9358 49.1623 22.2717 49.1795C23.5568 49.1795 24.4943 49.7984 25.044 50.9852C25.1309 51.1668 25.275 51.3148 25.4543 51.4065C26.75 52.0007 27.3033 53.0328 27.3032 54.4181C27.2949 56.2644 27.2926 58.1107 27.2962 59.9571C27.295 61.2789 27.285 62.6008 27.2949 63.9227C27.3048 65.3402 26.7331 66.3878 25.4141 66.9864C25.2243 67.1009 25.0753 67.2724 24.9886 67.4764C24.4591 68.555 23.6007 69.1822 22.4124 69.1944C18.9697 69.2278 15.5292 69.23 12.0911 69.2011C11.4583 69.2012 10.8322 69.0748 10.2494 68.8294C9.66661 68.584 9.13897 68.2245 8.69748 67.772ZM10.0127 66.4145C10.7076 67.1093 11.5686 67.3467 12.5322 67.3436C15.6559 67.3328 18.7796 67.3278 21.9033 67.3288C22.1547 67.3395 22.4063 67.3126 22.6499 67.2492C22.8652 67.1895 23.0533 67.0574 23.1828 66.8753C23.3123 66.6932 23.3751 66.4721 23.3607 66.2494C23.3689 66.0264 23.3012 65.8074 23.1688 65.6281C23.0364 65.4487 22.847 65.3197 22.6316 65.2619C22.3897 65.1989 22.1393 65.1739 21.8895 65.188C18.8244 65.1877 15.7616 65.1896 12.7009 65.1938C11.5382 65.1936 11.2736 64.9246 11.2746 63.7407L11.2858 54.6845C11.288 53.4595 11.5363 53.2111 12.758 53.2123C15.8788 53.2044 19.0025 53.1995 22.1291 53.1975C22.8857 53.1857 23.3612 52.7703 23.3751 52.1561C23.3946 51.4895 22.9321 51.0582 22.1287 51.0567C18.8574 51.0506 15.5861 51.0379 12.317 51.0807C10.4499 51.1002 9.1737 52.3475 9.15207 54.2035C9.11247 57.536 9.13406 60.8674 9.13118 64.2054C9.12181 65.0303 9.43913 65.8248 10.0139 66.4156L10.0127 66.4145ZM25.0041 64.9995L25.1799 64.9838C25.2547 64.6688 25.3897 64.3538 25.3921 64.0378C25.4105 60.8088 25.4129 57.5794 25.3994 54.3496C25.3986 54.0281 25.2509 53.7066 25.1699 53.3851C24.2663 54.7601 23.0576 55.1595 21.58 55.1029C20.1391 55.0474 18.6993 55.0931 17.3874 55.0887L17.3692 63.3115C18.7322 63.307 20.1798 63.3402 21.623 63.2822C23.0662 63.2242 24.2642 63.6449 25.0041 64.9995ZM15.3288 55.2062L13.2905 55.1479L13.2935 63.1937L15.2985 63.2632C15.3042 63.1086 15.3121 62.9828 15.3122 62.8582L15.3288 55.2062Z" fill="#C4C4C4"/>
</g>
<g clip-path="url(#clip6_421_153)">
<path d="M88.9951 17.3336C90.2293 17.3777 91.3707 17.7163 92.2606 18.5935C94.7856 21.0819 97.3483 23.5372 99.7663 26.1265C101.677 28.1739 101.563 30.9741 99.6091 32.9916C97.2917 35.3903 94.9145 37.7322 92.5436 40.0789C91.6348 40.9876 90.5343 41.2128 89.3064 40.7624C89.1165 40.6954 88.9099 40.6926 88.7184 40.7545C87.382 41.2506 86.261 40.912 85.2815 39.9324C83.9818 38.621 82.6779 37.3138 81.3698 36.0108C80.4359 35.0753 79.5083 34.1335 78.5665 33.2058C77.5572 32.2104 77.2207 31.0655 77.7301 29.7094C77.7834 29.4943 77.7674 29.2677 77.6845 29.0621C77.2962 27.925 77.4597 26.8745 78.2914 26.0257C80.7021 23.5677 83.1333 21.1334 85.5849 18.7227C86.0323 18.2752 86.5644 17.9217 87.15 17.6832C87.7356 17.4446 88.3629 17.3258 88.9951 17.3336ZM89.0249 19.2235C88.0423 19.2235 87.2656 19.6645 86.5864 20.348C84.3853 22.5645 82.18 24.7767 79.9705 26.9848C79.7852 27.155 79.6263 27.352 79.4989 27.5691C79.3889 27.7635 79.3492 27.99 79.3864 28.2103C79.4237 28.4306 79.5356 28.6313 79.7033 28.7787C79.8551 28.9421 80.0578 29.0491 80.2783 29.0823C80.4987 29.1155 80.7239 29.0728 80.917 28.9613C81.1327 28.8349 81.3274 28.6754 81.494 28.4889C83.6616 26.3217 85.826 24.1546 87.9873 21.9875C88.8095 21.1654 89.1869 21.1685 90.0233 22.0064L96.4191 28.418C97.2838 29.2858 97.2838 29.637 96.4191 30.5001C94.218 32.7123 92.0127 34.9246 89.8032 37.1369C89.2765 37.6802 89.234 38.3102 89.6585 38.7543C90.1161 39.2394 90.7481 39.2174 91.3172 38.6504C93.6347 36.3415 95.9569 34.0374 98.2381 31.6954C99.5447 30.3615 99.5651 28.5771 98.268 27.2494C95.9396 24.8649 93.5687 22.5246 91.2103 20.1622C90.6337 19.5723 89.8475 19.2348 89.0234 19.2235L89.0249 19.2235ZM79.425 30.8245L79.3118 30.9599C79.4816 31.2356 79.6089 31.5537 79.8306 31.7789C82.1009 34.0752 84.3827 36.3604 86.676 38.6346C86.904 38.8614 87.2358 38.9843 87.5203 39.1544C87.187 37.5432 87.7593 36.4061 88.8441 35.4013C89.9022 34.4217 90.888 33.3712 91.8188 32.4467L86.0173 26.6194C85.0567 27.5864 84.0096 28.5865 83.0301 29.648C82.0506 30.7095 80.906 31.2592 79.425 30.8245ZM93.1913 30.908L94.6739 29.5079L88.9825 23.8207L87.5156 25.1894C87.621 25.3028 87.7043 25.3973 87.7923 25.4855L93.1913 30.908Z" fill="#C4C4C4"/>
</g>
<g clip-path="url(#clip7_421_153)">
<path d="M109.892 50.5952C110.734 51.4991 111.302 52.5456 111.31 53.7952C111.336 57.3402 111.412 60.8885 111.291 64.4292C111.194 67.2277 109.134 69.1277 106.326 69.1724C102.991 69.2298 99.654 69.2049 96.3182 69.1877C95.033 69.1877 94.0956 68.5688 93.5458 67.382C93.4589 67.2004 93.3148 67.0523 93.1356 66.9607C91.8398 66.3665 91.2866 65.3344 91.2867 63.9491C91.295 62.1028 91.2973 60.2564 91.2937 58.4101C91.2948 57.0882 91.3049 55.7664 91.2949 54.4445C91.285 53.0269 91.8567 51.9794 93.1758 51.3808C93.3656 51.2663 93.5145 51.0948 93.6012 50.8908C94.1307 49.8122 94.9891 49.185 96.1775 49.1728C99.6202 49.1394 103.061 49.1372 106.499 49.1661C107.132 49.166 107.758 49.2924 108.34 49.5378C108.923 49.7832 109.451 50.1427 109.892 50.5952ZM108.577 51.9527C107.882 51.2579 107.021 51.0205 106.058 51.0236C102.934 51.0344 99.8103 51.0394 96.6866 51.0384C96.4352 51.0277 96.1835 51.0546 95.9399 51.118C95.7247 51.1777 95.5365 51.3098 95.407 51.4919C95.2776 51.674 95.2147 51.895 95.2291 52.1178C95.221 52.3408 95.2886 52.5598 95.421 52.7391C95.5535 52.9185 95.7428 53.0475 95.9582 53.1052C96.2002 53.1683 96.4505 53.1932 96.7003 53.1792C99.7654 53.1795 102.828 53.1776 105.889 53.1734C107.052 53.1735 107.316 53.4426 107.315 54.6265L107.304 63.6827C107.302 64.9077 107.054 65.1561 105.832 65.1549C102.711 65.1628 99.5874 65.1677 96.4607 65.1697C95.7041 65.1815 95.2286 65.5969 95.2147 66.2111C95.1952 66.8776 95.6578 67.309 96.4611 67.3105C99.7324 67.3166 103.004 67.3293 106.273 67.2864C108.14 67.267 109.416 66.0197 109.438 64.1637C109.477 60.8312 109.456 57.4998 109.459 54.1617C109.468 53.3369 109.151 52.5424 108.576 51.9516L108.577 51.9527ZM93.5857 53.3677L93.4099 53.3834C93.3351 53.6983 93.2002 54.0134 93.1977 54.3294C93.1793 57.5584 93.1769 60.7878 93.1904 64.0175C93.1913 64.3391 93.339 64.6606 93.4199 64.982C94.3235 63.6071 95.5322 63.2077 97.0098 63.2643C98.4507 63.3198 99.8906 63.274 101.202 63.2785L101.221 55.0557C99.8576 55.0602 98.41 55.027 96.9668 55.085C95.5236 55.143 94.3256 54.7223 93.5857 53.3677ZM103.261 63.161L105.299 63.2193L105.296 55.1734L103.291 55.104C103.286 55.2586 103.278 55.3844 103.278 55.509L103.261 63.161Z" fill="#C4C4C4"/>
</g>
<circle cx="177.926" cy="60.0939" r="26.2931" stroke="#C4C4C4" stroke-width="2"/>
<g clip-path="url(#clip8_421_153)">
<path d="M219.775 88.8886C219.731 90.1228 219.392 91.2643 218.515 92.1541C216.026 94.6791 213.571 97.2418 210.982 99.6599C208.935 101.57 206.134 101.457 204.117 99.5027C201.718 97.1852 199.376 94.808 197.03 92.4371C196.121 91.5284 195.896 90.4278 196.346 89.1999C196.413 89.0101 196.416 88.8035 196.354 88.6119C195.858 87.2755 196.196 86.1545 197.176 85.175C198.487 83.8753 199.795 82.5714 201.098 81.2634C202.033 80.3295 202.975 79.4019 203.903 78.4601C204.898 77.4507 206.043 77.1143 207.399 77.6237C207.614 77.6769 207.841 77.661 208.046 77.5781C209.183 77.1897 210.234 77.3533 211.083 78.185C213.541 80.5957 215.975 83.0269 218.386 85.4785C218.833 85.9258 219.187 86.4579 219.425 87.0435C219.664 87.6292 219.783 88.2565 219.775 88.8886ZM217.885 88.9185C217.885 87.9359 217.444 87.1592 216.76 86.48C214.544 84.2789 212.332 82.0736 210.124 79.8641C209.953 79.6788 209.756 79.5198 209.539 79.3924C209.345 79.2825 209.118 79.2428 208.898 79.28C208.678 79.3172 208.477 79.4291 208.33 79.5968C208.166 79.7487 208.059 79.9514 208.026 80.1718C207.993 80.3923 208.036 80.6174 208.147 80.8106C208.274 81.0262 208.433 81.2209 208.62 81.3876C210.787 83.5551 212.954 85.7196 215.121 87.8808C215.943 88.7031 215.94 89.0804 215.102 89.9169L208.69 96.3126C207.823 97.1774 207.471 97.1774 206.608 96.3126C204.396 94.1115 202.184 91.9062 199.972 89.6967C199.428 89.1701 198.798 89.1276 198.354 89.5521C197.869 90.0096 197.891 90.6417 198.458 91.2108C200.767 93.5282 203.071 95.8504 205.413 98.1317C206.747 99.4382 208.531 99.4587 209.859 98.1616C212.243 95.8331 214.584 93.4622 216.946 91.1039C217.536 90.5272 217.874 89.741 217.885 88.9169V88.9185ZM206.284 79.3185L206.148 79.2053C205.873 79.3751 205.555 79.5025 205.329 79.7242C203.033 81.9944 200.748 84.2763 198.474 86.5696C198.247 86.7976 198.124 87.1293 197.954 87.4139C199.565 87.0806 200.702 87.6529 201.707 88.7377C202.687 89.7958 203.737 90.7816 204.662 91.7123L210.489 85.9108C209.522 84.9502 208.522 83.9031 207.46 82.9236C206.399 81.9441 205.849 80.7996 206.284 79.3185ZM206.2 93.0849L207.601 94.5675L213.288 88.876L211.919 87.4092C211.806 87.5145 211.711 87.5978 211.623 87.6859L206.2 93.0849Z" fill="#C4C4C4"/>
</g>
<g clip-path="url(#clip9_421_153)">
<path d="M186.516 109.78C185.612 110.622 184.566 111.189 183.316 111.198C179.771 111.224 176.223 111.3 172.682 111.179C169.884 111.082 167.984 109.022 167.939 106.213C167.882 102.879 167.906 99.5417 167.924 96.2059C167.924 94.9207 168.543 93.9833 169.729 93.4335C169.911 93.3466 170.059 93.2025 170.151 93.0233C170.745 91.7275 171.777 91.1743 173.162 91.1744C175.009 91.1826 176.855 91.185 178.701 91.1814C180.023 91.1825 181.345 91.1926 182.667 91.1826C184.084 91.1727 185.132 91.7444 185.731 93.0635C185.845 93.2533 186.017 93.4022 186.221 93.4889C187.299 94.0184 187.926 94.8768 187.939 96.0652C187.972 99.5079 187.974 102.948 187.945 106.386C187.945 107.019 187.819 107.645 187.574 108.228C187.328 108.811 186.969 109.339 186.516 109.78ZM185.159 108.465C185.853 107.77 186.091 106.909 186.088 105.945C186.077 102.822 186.072 99.698 186.073 96.5743C186.084 96.3229 186.057 96.0712 185.993 95.8276C185.934 95.6124 185.802 95.4242 185.619 95.2947C185.437 95.1653 185.216 95.1024 184.994 95.1168C184.771 95.1087 184.552 95.1763 184.372 95.3087C184.193 95.4411 184.064 95.6305 184.006 95.8459C183.943 96.0879 183.918 96.3382 183.932 96.588C183.932 99.6531 183.934 102.716 183.938 105.777C183.938 106.939 183.669 107.204 182.485 107.203L173.429 107.192C172.204 107.19 171.955 106.941 171.956 105.72C171.949 102.599 171.944 99.4751 171.942 96.3484C171.93 95.5918 171.514 95.1163 170.9 95.1024C170.234 95.0829 169.802 95.5454 169.801 96.3488C169.795 99.6201 169.782 102.891 169.825 106.161C169.844 108.028 171.092 109.304 172.948 109.325C176.28 109.365 179.612 109.343 182.95 109.346C183.774 109.356 184.569 109.038 185.16 108.464L185.159 108.465ZM183.744 93.4734L183.728 93.2976C183.413 93.2228 183.098 93.0879 182.782 93.0854C179.553 93.067 176.324 93.0646 173.094 93.0781C172.772 93.079 172.451 93.2267 172.129 93.3076C173.504 94.2112 173.904 95.4199 173.847 96.8975C173.792 98.3384 173.837 99.7783 173.833 101.09L182.056 101.108C182.051 99.7453 182.084 98.2977 182.026 96.8545C181.968 95.4113 182.389 94.2133 183.744 93.4734ZM173.95 103.149L173.892 105.187L181.938 105.184L182.007 103.179C181.853 103.173 181.727 103.165 181.602 103.165L173.95 103.149Z" fill="#C4C4C4"/>
</g>
<g clip-path="url(#clip10_421_153)">
<path d="M136.077 29.4795C136.121 28.2453 136.459 27.1039 137.337 26.214C139.825 23.6891 142.28 21.1263 144.87 18.7083C146.917 16.798 149.717 16.9112 151.735 18.8655C154.133 21.1829 156.475 23.5601 158.822 25.931C159.731 26.8398 159.956 27.9403 159.506 29.1682C159.439 29.3581 159.436 29.5647 159.498 29.7562C159.994 31.0926 159.655 32.2136 158.676 33.1931C157.364 34.4928 156.057 35.7967 154.754 37.1048C153.818 38.0387 152.877 38.9663 151.949 39.9081C150.954 40.9174 149.809 41.2539 148.453 40.7445C148.237 40.6912 148.011 40.7072 147.805 40.7901C146.668 41.1784 145.618 41.0149 144.769 40.1832C142.311 37.7725 139.877 35.3413 137.466 32.8897C137.018 32.4424 136.665 31.9102 136.426 31.3246C136.188 30.739 136.069 30.1117 136.077 29.4795ZM137.967 29.4497C137.967 30.4323 138.408 31.209 139.091 31.8882C141.308 34.0893 143.52 36.2946 145.728 38.5041C145.898 38.6894 146.095 38.8483 146.312 38.9757C146.507 39.0857 146.733 39.1254 146.953 39.0882C147.174 39.0509 147.374 38.9391 147.522 38.7714C147.685 38.6195 147.792 38.4168 147.825 38.1963C147.859 37.9759 147.816 37.7507 147.705 37.5576C147.578 37.3419 147.419 37.1472 147.232 36.9806C145.065 34.813 142.898 32.6486 140.731 30.4873C139.909 29.6651 139.912 29.2877 140.75 28.4513L147.161 22.0555C148.029 21.1908 148.38 21.1908 149.243 22.0555C151.455 24.2566 153.668 26.4619 155.88 28.6714C156.423 29.1981 157.053 29.2406 157.497 28.8161C157.983 28.3585 157.961 27.7265 157.394 27.1574C155.085 24.8399 152.781 22.5178 150.439 20.2365C149.105 18.9299 147.32 18.9095 145.993 20.2066C143.608 22.535 141.268 24.906 138.905 27.2643C138.315 27.8409 137.978 28.6271 137.967 29.4512L137.967 29.4497ZM149.568 39.0496L149.703 39.1628C149.979 38.993 150.297 38.8657 150.522 38.644C152.818 36.3737 155.104 34.0919 157.378 31.7986C157.605 31.5706 157.727 31.2389 157.898 30.9543C156.286 31.2876 155.149 30.7153 154.144 29.6305C153.165 28.5724 152.114 27.5866 151.19 26.6558L145.363 32.4573C146.33 33.4179 147.33 34.465 148.391 35.4445C149.453 36.424 150.002 37.5686 149.568 39.0496ZM149.651 25.2833L148.251 23.8007L142.564 29.4921L143.933 30.959C144.046 30.8537 144.14 30.7703 144.229 30.6823L149.651 25.2833Z" fill="#C4C4C4"/>
</g>
<g clip-path="url(#clip11_421_153)">
<path d="M169.335 8.58811C170.239 7.74658 171.286 7.1789 172.535 7.16997C176.08 7.14411 179.629 7.06817 183.169 7.18918C185.968 7.28618 187.868 9.34629 187.913 12.1548C187.97 15.4895 187.945 18.8265 187.928 22.1623C187.928 23.4474 187.309 24.3849 186.122 24.9347C185.941 25.0215 185.793 25.1656 185.701 25.3449C185.107 26.6406 184.075 27.1939 182.689 27.1938C180.843 27.1855 178.997 27.1832 177.15 27.1868C175.828 27.1856 174.507 27.1756 173.185 27.1856C171.767 27.1955 170.72 26.6238 170.121 25.3047C170.006 25.1149 169.835 24.966 169.631 24.8792C168.552 24.3498 167.925 23.4913 167.913 22.303C167.88 18.8603 167.877 15.4199 167.906 11.9817C167.906 11.3489 168.033 10.7228 168.278 10.14C168.523 9.55723 168.883 9.02959 169.335 8.58811ZM170.693 9.90336C169.998 10.5982 169.761 11.4592 169.764 12.4228C169.775 15.5465 169.78 18.6702 169.779 21.7939C169.768 22.0453 169.795 22.2969 169.858 22.5406C169.918 22.7558 170.05 22.944 170.232 23.0734C170.414 23.2029 170.635 23.2657 170.858 23.2513C171.081 23.2595 171.3 23.1918 171.479 23.0594C171.659 22.927 171.788 22.7377 171.845 22.5222C171.909 22.2803 171.933 22.0299 171.919 21.7801C171.92 18.7151 171.918 15.6522 171.914 12.5916C171.914 11.4288 172.183 11.1642 173.367 11.1652L182.423 11.1764C183.648 11.1786 183.896 11.4269 183.895 12.6487C183.903 15.7694 183.908 18.8931 183.91 22.0197C183.922 22.7764 184.337 23.2518 184.951 23.2657C185.618 23.2852 186.049 22.8227 186.051 22.0194C186.057 18.7481 186.07 15.4768 186.027 12.2077C186.007 10.3405 184.76 9.06432 182.904 9.04269C179.571 9.00309 176.24 9.02469 172.902 9.0218C172.077 9.01244 171.283 9.32975 170.692 9.90448L170.693 9.90336ZM172.108 24.8947L172.124 25.0705C172.439 25.1454 172.754 25.2803 173.07 25.2828C176.299 25.3011 179.528 25.3036 182.758 25.29C183.079 25.2892 183.401 25.1415 183.722 25.0605C182.347 24.157 181.948 22.9482 182.005 21.4706C182.06 20.0298 182.014 18.5899 182.019 17.278L173.796 17.2598C173.8 18.6229 173.767 20.0704 173.825 21.5136C173.883 22.9568 173.463 24.1548 172.108 24.8947ZM181.901 15.2195L181.96 13.1811L173.914 13.1841L173.844 15.1891C173.999 15.1948 174.125 15.2027 174.249 15.2028L181.901 15.2195Z" fill="#C4C4C4"/>
</g>
<g clip-path="url(#clip12_421_153)">
<path d="M148.224 101.035C146.989 100.991 145.848 100.652 144.958 99.7747C142.433 97.2862 139.87 94.8309 137.452 92.2417C135.542 90.1943 135.655 87.394 137.61 85.3765C139.927 82.9779 142.304 80.636 144.675 78.2893C145.584 77.3806 146.684 77.1554 147.912 77.6058C148.102 77.6728 148.309 77.6756 148.5 77.6137C149.837 77.1176 150.958 77.4562 151.937 78.4358C153.237 79.7472 154.541 81.0544 155.849 82.3574C156.783 83.2929 157.71 84.2347 158.652 85.1624C159.662 86.1577 159.998 87.3027 159.489 88.6587C159.435 88.8739 159.451 89.1005 159.534 89.306C159.923 90.4431 159.759 91.4936 158.927 92.3425C156.517 94.8005 154.085 97.2348 151.634 99.6455C151.186 100.093 150.654 100.446 150.069 100.685C149.483 100.924 148.856 101.042 148.224 101.035ZM148.194 99.1447C149.176 99.1447 149.953 98.7037 150.632 98.0202C152.833 95.8037 155.039 93.5914 157.248 91.3834C157.434 91.2131 157.592 91.0162 157.72 90.7991C157.83 90.6046 157.87 90.3782 157.832 90.1579C157.795 89.9376 157.683 89.7368 157.515 89.5895C157.364 89.4261 157.161 89.319 156.94 89.2859C156.72 89.2527 156.495 89.2953 156.302 89.4068C156.086 89.5333 155.891 89.6927 155.725 89.8793C153.557 92.0464 151.393 94.2135 149.231 96.3807C148.409 97.2028 148.032 97.1996 147.195 96.3618L140.8 89.9502C139.935 89.0824 139.935 88.7312 140.8 87.8681C143.001 85.6558 145.206 83.4436 147.416 81.2313C147.942 80.6879 147.985 80.058 147.56 79.6138C147.103 79.1288 146.471 79.1508 145.902 79.7178C143.584 82.0266 141.262 84.3308 138.981 86.6727C137.674 88.0067 137.654 89.7911 138.951 91.1188C141.279 93.5032 143.65 95.8436 146.008 98.206C146.585 98.7959 147.371 99.1333 148.195 99.1447L148.194 99.1447ZM157.794 87.5437L157.907 87.4082C157.737 87.1326 157.61 86.8145 157.388 86.5892C155.118 84.293 152.836 82.0077 150.543 79.7335C150.315 79.5067 149.983 79.3839 149.698 79.2138C150.032 80.825 149.459 81.9621 148.375 82.9669C147.317 83.9465 146.331 84.997 145.4 85.9215L151.201 91.7488C152.162 90.7817 153.209 89.7817 154.189 88.7201C155.168 87.6586 156.313 87.109 157.794 87.5437ZM144.027 87.4602L142.545 88.8603L148.236 94.5474L149.703 93.1788C149.598 93.0654 149.514 92.9709 149.426 92.8827L144.027 87.4602Z" fill="#C4C4C4"/>
</g>
<g clip-path="url(#clip13_421_153)">
<path d="M127.326 67.772C126.485 66.8681 125.917 65.8215 125.908 64.572C125.882 61.027 125.806 57.4787 125.927 53.938C126.024 51.1395 128.085 49.2395 130.893 49.1948C134.228 49.1374 137.565 49.1623 140.901 49.1795C142.186 49.1795 143.123 49.7984 143.673 50.9852C143.76 51.1668 143.904 51.3148 144.083 51.4065C145.379 52.0007 145.932 53.0328 145.932 54.4181C145.924 56.2644 145.921 58.1107 145.925 59.9571C145.924 61.2789 145.914 62.6008 145.924 63.9227C145.934 65.3402 145.362 66.3878 144.043 66.9864C143.853 67.1009 143.704 67.2724 143.618 67.4764C143.088 68.555 142.23 69.1822 141.041 69.1944C137.599 69.2278 134.158 69.23 130.72 69.2011C130.087 69.2012 129.461 69.0748 128.878 68.8294C128.296 68.584 127.768 68.2245 127.326 67.772ZM128.642 66.4145C129.336 67.1093 130.197 67.3467 131.161 67.3436C134.285 67.3328 137.408 67.3278 140.532 67.3288C140.784 67.3395 141.035 67.3126 141.279 67.2492C141.494 67.1895 141.682 67.0574 141.812 66.8753C141.941 66.6932 142.004 66.4721 141.99 66.2494C141.998 66.0264 141.93 65.8074 141.798 65.6281C141.665 65.4487 141.476 65.3197 141.261 65.2619C141.019 65.1989 140.768 65.1739 140.518 65.188C137.453 65.1877 134.39 65.1896 131.33 65.1938C130.167 65.1936 129.902 64.9246 129.904 63.7407L129.915 54.6845C129.917 53.4595 130.165 53.2111 131.387 53.2123C134.508 53.2044 137.631 53.1995 140.758 53.1975C141.515 53.1857 141.99 52.7703 142.004 52.1561C142.024 51.4895 141.561 51.0582 140.758 51.0567C137.486 51.0506 134.215 51.0379 130.946 51.0807C129.079 51.1002 127.803 52.3475 127.781 54.2035C127.741 57.536 127.763 60.8674 127.76 64.2054C127.751 65.0303 128.068 65.8248 128.643 66.4156L128.642 66.4145ZM143.633 64.9995L143.809 64.9838C143.884 64.6688 144.019 64.3538 144.021 64.0378C144.039 60.8088 144.042 57.5794 144.028 54.3496C144.027 54.0281 143.88 53.7066 143.799 53.3851C142.895 54.7601 141.687 55.1595 140.209 55.1029C138.768 55.0474 137.328 55.0931 136.016 55.0887L135.998 63.3115C137.361 63.307 138.809 63.3402 140.252 63.2822C141.695 63.2242 142.893 63.6449 143.633 64.9995ZM133.958 55.2062L131.919 55.1479L131.922 63.1937L133.927 63.2632C133.933 63.1086 133.941 62.9828 133.941 62.8582L133.958 55.2062Z" fill="#C4C4C4"/>
</g>
<g clip-path="url(#clip14_421_153)">
<path d="M207.628 17.3336C208.862 17.3777 210.004 17.7163 210.893 18.5935C213.418 21.0819 215.981 23.5372 218.399 26.1265C220.309 28.1739 220.196 30.9741 218.242 32.9916C215.924 35.3903 213.547 37.7322 211.176 40.0789C210.268 40.9876 209.167 41.2128 207.939 40.7624C207.749 40.6954 207.543 40.6926 207.351 40.7545C206.015 41.2506 204.894 40.912 203.914 39.9324C202.615 38.621 201.311 37.3138 200.003 36.0108C199.069 35.0753 198.141 34.1335 197.199 33.2058C196.19 32.2104 195.854 31.0655 196.363 29.7094C196.416 29.4943 196.4 29.2677 196.317 29.0621C195.929 27.925 196.093 26.8745 196.924 26.0257C199.335 23.5677 201.766 21.1334 204.218 18.7227C204.665 18.2752 205.197 17.9217 205.783 17.6832C206.368 17.4446 206.996 17.3258 207.628 17.3336ZM207.658 19.2235C206.675 19.2235 205.898 19.6645 205.219 20.348C203.018 22.5645 200.813 24.7767 198.603 26.9848C198.418 27.155 198.259 27.352 198.132 27.5691C198.022 27.7635 197.982 27.99 198.019 28.2103C198.056 28.4306 198.168 28.6313 198.336 28.7787C198.488 28.9421 198.691 29.0491 198.911 29.0823C199.132 29.1155 199.357 29.0728 199.55 28.9613C199.766 28.8349 199.96 28.6754 200.127 28.4889C202.294 26.3217 204.459 24.1546 206.62 21.9875C207.442 21.1654 207.82 21.1685 208.656 22.0064L215.052 28.418C215.917 29.2858 215.917 29.637 215.052 30.5001C212.851 32.7123 210.645 34.9246 208.436 37.1369C207.909 37.6802 207.867 38.3102 208.291 38.7543C208.749 39.2394 209.381 39.2174 209.95 38.6504C212.268 36.3415 214.59 34.0374 216.871 31.6954C218.177 30.3615 218.198 28.5771 216.901 27.2494C214.572 24.8649 212.201 22.5246 209.843 20.1622C209.266 19.5723 208.48 19.2348 207.656 19.2235L207.658 19.2235ZM198.058 30.8245L197.945 30.9599C198.114 31.2356 198.242 31.5537 198.463 31.7789C200.734 34.0752 203.016 36.3604 205.309 38.6346C205.537 38.8614 205.869 38.9843 206.153 39.1544C205.82 37.5432 206.392 36.4061 207.477 35.4013C208.535 34.4217 209.521 33.3712 210.452 32.4467L204.65 26.6194C203.689 27.5864 202.642 28.5865 201.663 29.648C200.683 30.7095 199.539 31.2592 198.058 30.8245ZM211.824 30.908L213.307 29.5079L207.615 23.8207L206.148 25.1894C206.254 25.3028 206.337 25.3973 206.425 25.4855L211.824 30.908Z" fill="#C4C4C4"/>
</g>
<g clip-path="url(#clip15_421_153)">
<path d="M228.521 50.5952C229.363 51.4991 229.93 52.5456 229.939 53.7952C229.965 57.3402 230.041 60.8885 229.92 64.4292C229.823 67.2277 227.763 69.1277 224.955 69.1724C221.62 69.2298 218.283 69.2049 214.947 69.1877C213.662 69.1877 212.724 68.5688 212.175 67.382C212.088 67.2004 211.944 67.0523 211.764 66.9607C210.469 66.3665 209.915 65.3344 209.916 63.9491C209.924 62.1028 209.926 60.2564 209.923 58.4101C209.924 57.0882 209.934 55.7664 209.924 54.4445C209.914 53.0269 210.486 51.9794 211.805 51.3808C211.994 51.2663 212.143 51.0948 212.23 50.8908C212.76 49.8122 213.618 49.185 214.806 49.1728C218.249 49.1394 221.69 49.1372 225.128 49.1661C225.76 49.166 226.387 49.2924 226.969 49.5378C227.552 49.7832 228.08 50.1427 228.521 50.5952ZM227.206 51.9527C226.511 51.2579 225.65 51.0205 224.687 51.0236C221.563 51.0344 218.439 51.0394 215.315 51.0384C215.064 51.0277 214.812 51.0546 214.569 51.118C214.354 51.1777 214.165 51.3098 214.036 51.4919C213.906 51.674 213.844 51.895 213.858 52.1178C213.85 52.3408 213.918 52.5598 214.05 52.7391C214.182 52.9185 214.372 53.0475 214.587 53.1052C214.829 53.1683 215.079 53.1932 215.329 53.1792C218.394 53.1795 221.457 53.1776 224.518 53.1734C225.681 53.1735 225.945 53.4426 225.944 54.6265L225.933 63.6827C225.931 64.9077 225.682 65.1561 224.461 65.1549C221.34 65.1628 218.216 65.1677 215.09 65.1697C214.333 65.1815 213.858 65.5969 213.844 66.2111C213.824 66.8776 214.287 67.309 215.09 67.3105C218.361 67.3166 221.633 67.3293 224.902 67.2864C226.769 67.267 228.045 66.0197 228.067 64.1637C228.106 60.8312 228.085 57.4998 228.088 54.1617C228.097 53.3369 227.78 52.5424 227.205 51.9516L227.206 51.9527ZM212.215 53.3677L212.039 53.3834C211.964 53.6983 211.829 54.0134 211.827 54.3294C211.808 57.5584 211.806 60.7878 211.819 64.0175C211.82 64.3391 211.968 64.6606 212.049 64.982C212.952 63.6071 214.161 63.2077 215.639 63.2643C217.08 63.3198 218.519 63.274 219.831 63.2785L219.85 55.0557C218.487 55.0602 217.039 55.027 215.596 55.085C214.153 55.143 212.955 54.7223 212.215 53.3677ZM221.89 63.161L223.928 63.2193L223.925 55.1734L221.92 55.104C221.915 55.2586 221.907 55.3844 221.907 55.509L221.89 63.161Z" fill="#C4C4C4"/>
</g>
<circle cx="118.973" cy="178.804" r="26.2931" stroke="#C4C4C4" stroke-width="2"/>
<g clip-path="url(#clip16_421_153)">
<path d="M160.822 207.599C160.778 208.833 160.439 209.974 159.562 210.864C157.073 213.389 154.618 215.952 152.029 218.37C149.981 220.28 147.181 220.167 145.164 218.213C142.765 215.895 140.423 213.518 138.076 211.147C137.168 210.238 136.942 209.138 137.393 207.91C137.46 207.72 137.463 207.513 137.401 207.322C136.905 205.985 137.243 204.864 138.223 203.885C139.534 202.585 140.841 201.281 142.144 199.973C143.08 199.039 144.022 198.112 144.949 197.17C145.945 196.161 147.09 195.824 148.446 196.334C148.661 196.387 148.888 196.371 149.093 196.288C150.23 195.9 151.281 196.063 152.13 196.895C154.588 199.306 157.022 201.737 159.433 204.188C159.88 204.636 160.234 205.168 160.472 205.754C160.711 206.339 160.83 206.966 160.822 207.599ZM158.932 207.628C158.932 206.646 158.491 205.869 157.807 205.19C155.591 202.989 153.379 200.784 151.17 198.574C151 198.389 150.803 198.23 150.586 198.102C150.392 197.992 150.165 197.953 149.945 197.99C149.725 198.027 149.524 198.139 149.377 198.307C149.213 198.459 149.106 198.661 149.073 198.882C149.04 199.102 149.082 199.327 149.194 199.521C149.32 199.736 149.48 199.931 149.666 200.098C151.834 202.265 154.001 204.43 156.168 206.591C156.99 207.413 156.987 207.79 156.149 208.627L149.737 215.023C148.869 215.887 148.518 215.887 147.655 215.023C145.443 212.822 143.231 210.616 141.018 208.407C140.475 207.88 139.845 207.838 139.401 208.262C138.916 208.72 138.938 209.352 139.505 209.921C141.814 212.238 144.118 214.56 146.46 216.842C147.794 218.148 149.578 218.169 150.906 216.872C153.29 214.543 155.631 212.172 157.993 209.814C158.583 209.237 158.92 208.451 158.932 207.627V207.628ZM147.331 198.028L147.195 197.915C146.92 198.085 146.602 198.212 146.376 198.434C144.08 200.704 141.795 202.986 139.521 205.28C139.294 205.508 139.171 205.839 139.001 206.124C140.612 205.791 141.749 206.363 142.754 207.448C143.734 208.506 144.784 209.492 145.709 210.422L151.536 204.621C150.569 203.66 149.569 202.613 148.507 201.634C147.446 200.654 146.896 199.51 147.331 198.028ZM147.247 211.795L148.647 213.277L154.335 207.586L152.966 206.119C152.853 206.224 152.758 206.308 152.67 206.396L147.247 211.795Z" fill="#C4C4C4"/>
</g>
<g clip-path="url(#clip17_421_153)">
<path d="M127.563 228.491C126.659 229.333 125.613 229.9 124.363 229.909C120.818 229.935 117.27 230.011 113.729 229.89C110.931 229.793 109.031 227.733 108.986 224.924C108.928 221.59 108.953 218.253 108.97 214.917C108.97 213.632 109.589 212.694 110.776 212.144C110.958 212.058 111.106 211.913 111.198 211.734C111.792 210.438 112.824 209.885 114.209 209.885C116.055 209.894 117.902 209.896 119.748 209.892C121.07 209.893 122.392 209.904 123.714 209.894C125.131 209.884 126.179 210.455 126.777 211.774C126.892 211.964 127.063 212.113 127.267 212.2C128.346 212.729 128.973 213.588 128.985 214.776C129.019 218.219 129.021 221.659 128.992 225.097C128.992 225.73 128.866 226.356 128.62 226.939C128.375 227.522 128.015 228.05 127.563 228.491ZM126.205 227.176C126.9 226.481 127.138 225.62 127.135 224.656C127.124 221.533 127.119 218.409 127.12 215.285C127.13 215.034 127.104 214.782 127.04 214.539C126.98 214.323 126.848 214.135 126.666 214.006C126.484 213.876 126.263 213.813 126.04 213.828C125.817 213.82 125.598 213.887 125.419 214.02C125.24 214.152 125.111 214.341 125.053 214.557C124.99 214.799 124.965 215.049 124.979 215.299C124.979 218.364 124.981 221.427 124.985 224.488C124.985 225.65 124.716 225.915 123.532 225.914L114.476 225.903C113.25 225.901 113.002 225.652 113.003 224.43C112.995 221.31 112.99 218.186 112.989 215.059C112.977 214.303 112.561 213.827 111.947 213.813C111.281 213.794 110.849 214.256 110.848 215.06C110.842 218.331 110.829 221.602 110.872 224.871C110.891 226.739 112.138 228.015 113.994 228.036C117.327 228.076 120.658 228.054 123.996 228.057C124.821 228.067 125.616 227.749 126.207 227.175L126.205 227.176ZM124.791 212.184L124.775 212.009C124.46 211.934 124.145 211.799 123.829 211.796C120.6 211.778 117.37 211.776 114.141 211.789C113.819 211.79 113.498 211.938 113.176 212.019C114.551 212.922 114.95 214.131 114.894 215.608C114.838 217.049 114.884 218.489 114.88 219.801L123.103 219.819C123.098 218.456 123.131 217.009 123.073 215.565C123.015 214.122 123.436 212.924 124.791 212.184ZM114.997 221.86L114.939 223.898L122.985 223.895L123.054 221.89C122.9 221.884 122.774 221.876 122.649 221.876L114.997 221.86Z" fill="#C4C4C4"/>
</g>
<g clip-path="url(#clip18_421_153)">
<path d="M77.1236 148.19C77.1677 146.956 77.5063 145.815 78.3835 144.925C80.872 142.4 83.3273 139.837 85.9165 137.419C87.9639 135.509 90.7642 135.622 92.7817 137.576C95.1803 139.894 97.5222 142.271 99.8689 144.642C100.778 145.551 101.003 146.651 100.552 147.879C100.485 148.069 100.483 148.276 100.545 148.467C101.041 149.804 100.702 150.925 99.7224 151.904C98.411 153.204 97.1038 154.508 95.8008 155.816C94.8653 156.75 93.9235 157.677 92.9959 158.619C92.0005 159.628 90.8555 159.965 89.4995 159.455C89.2843 159.402 89.0577 159.418 88.8522 159.501C87.7151 159.889 86.6646 159.726 85.8157 158.894C83.3577 156.483 80.9234 154.052 78.5127 151.601C78.0652 151.153 77.7118 150.621 77.4732 150.036C77.2347 149.45 77.1158 148.823 77.1236 148.19ZM79.0135 148.161C79.0135 149.143 79.4545 149.92 80.138 150.599C82.3545 152.8 84.5668 155.006 86.7748 157.215C86.9451 157.4 87.142 157.559 87.3591 157.687C87.5536 157.797 87.78 157.836 88.0003 157.799C88.2206 157.762 88.4214 157.65 88.5687 157.482C88.7321 157.33 88.8392 157.128 88.8723 156.907C88.9055 156.687 88.8629 156.462 88.7514 156.269C88.6249 156.053 88.4655 155.858 88.2789 155.692C86.1118 153.524 83.9447 151.36 81.7775 149.198C80.9554 148.376 80.9586 147.999 81.7964 147.162L88.208 140.766C89.0758 139.902 89.427 139.902 90.2901 140.766C92.5024 142.968 94.7146 145.173 96.9269 147.382C97.4703 147.909 98.1002 147.951 98.5444 147.527C99.0294 147.069 99.0074 146.437 98.4404 145.868C96.1316 143.551 93.8274 141.229 91.4855 138.947C90.1515 137.641 88.3671 137.62 87.0394 138.918C84.655 141.246 82.3146 143.617 79.9522 145.975C79.3623 146.552 79.0249 147.338 79.0135 148.162L79.0135 148.161ZM90.6145 157.761L90.75 157.874C91.0256 157.704 91.3437 157.577 91.569 157.355C93.8652 155.085 96.1505 152.803 98.4247 150.509C98.6515 150.282 98.7743 149.95 98.9444 149.665C97.3332 149.999 96.1961 149.426 95.1913 148.341C94.2117 147.283 93.1612 146.298 92.2367 145.367L86.4094 151.168C87.3765 152.129 88.3765 153.176 89.4381 154.155C90.4996 155.135 91.0492 156.28 90.6145 157.761ZM90.698 143.994L89.2979 142.512L83.6108 148.203L84.9794 149.67C85.0928 149.565 85.1873 149.481 85.2755 149.393L90.698 143.994Z" fill="#C4C4C4"/>
</g>
<g clip-path="url(#clip19_421_153)">
<path d="M110.382 127.298C111.286 126.457 112.333 125.889 113.582 125.88C117.127 125.854 120.676 125.778 124.216 125.899C127.015 125.996 128.915 128.056 128.96 130.865C129.017 134.199 128.992 137.536 128.975 140.872C128.975 142.157 128.356 143.095 127.169 143.645C126.987 143.731 126.839 143.876 126.748 144.055C126.154 145.351 125.121 145.904 123.736 145.904C121.89 145.895 120.044 145.893 118.197 145.897C116.875 145.896 115.553 145.886 114.232 145.896C112.814 145.905 111.767 145.334 111.168 144.015C111.053 143.825 110.882 143.676 110.678 143.589C109.599 143.06 108.972 142.201 108.96 141.013C108.927 137.57 108.924 134.13 108.953 130.692C108.953 130.059 109.079 129.433 109.325 128.85C109.57 128.267 109.93 127.74 110.382 127.298ZM111.74 128.613C111.045 129.308 110.808 130.169 110.811 131.133C110.822 134.256 110.826 137.38 110.825 140.504C110.815 140.755 110.842 141.007 110.905 141.251C110.965 141.466 111.097 141.654 111.279 141.783C111.461 141.913 111.682 141.976 111.905 141.961C112.128 141.969 112.347 141.902 112.526 141.769C112.706 141.637 112.835 141.448 112.892 141.232C112.955 140.99 112.98 140.74 112.966 140.49C112.967 137.425 112.965 134.362 112.961 131.302C112.961 130.139 113.23 129.874 114.414 129.875L123.47 129.886C124.695 129.889 124.943 130.137 124.942 131.359C124.95 134.479 124.955 137.603 124.957 140.73C124.969 141.486 125.384 141.962 125.998 141.976C126.665 141.995 127.096 141.533 127.098 140.729C127.104 137.458 127.116 134.187 127.074 130.918C127.054 129.051 125.807 127.774 123.951 127.753C120.618 127.713 117.287 127.735 113.949 127.732C113.124 127.722 112.329 128.04 111.739 128.614L111.74 128.613ZM113.155 143.605L113.171 143.781C113.485 143.855 113.8 143.99 114.116 143.993C117.346 144.011 120.575 144.014 123.805 144C124.126 143.999 124.448 143.851 124.769 143.771C123.394 142.867 122.995 141.658 123.051 140.181C123.107 138.74 123.061 137.3 123.066 135.988L114.843 135.97C114.847 137.333 114.814 138.78 114.872 140.224C114.93 141.667 114.509 142.865 113.155 143.605ZM122.948 133.929L123.006 131.891L114.961 131.894L114.891 133.899C115.046 133.905 115.171 133.913 115.296 133.913L122.948 133.929Z" fill="#C4C4C4"/>
</g>
<g clip-path="url(#clip20_421_153)">
<path d="M89.2706 219.745C88.0364 219.7 86.8949 219.362 86.0051 218.485C83.4801 215.996 80.9174 213.541 78.4993 210.952C76.589 208.904 76.7022 206.104 78.6565 204.087C80.974 201.688 83.3511 199.346 85.7221 196.999C86.6308 196.091 87.7313 195.865 88.9593 196.316C89.1491 196.383 89.3557 196.386 89.5473 196.324C90.8837 195.828 92.0046 196.166 92.9841 197.146C94.2838 198.457 95.5877 199.764 96.8958 201.067C97.8297 202.003 98.7573 202.945 99.6991 203.872C100.708 204.868 101.045 206.013 100.536 207.369C100.482 207.584 100.498 207.81 100.581 208.016C100.969 209.153 100.806 210.204 99.9742 211.052C97.5635 213.51 95.1323 215.945 92.6807 218.355C92.2334 218.803 91.7013 219.156 91.1156 219.395C90.53 219.633 89.9027 219.752 89.2706 219.745ZM89.2407 217.855C90.2233 217.855 91 217.414 91.6792 216.73C93.8803 214.514 96.0856 212.301 98.2951 210.093C98.4804 209.923 98.6393 209.726 98.7668 209.509C98.8767 209.315 98.9164 209.088 98.8792 208.868C98.842 208.648 98.7301 208.447 98.5624 208.299C98.4105 208.136 98.2078 208.029 97.9873 207.996C97.7669 207.963 97.5417 208.005 97.3486 208.117C97.1329 208.243 96.9383 208.403 96.7716 208.589C94.604 210.756 92.4396 212.923 90.2783 215.091C89.4561 215.913 89.0787 215.91 88.2423 215.072L81.8465 208.66C80.9818 207.792 80.9818 207.441 81.8465 206.578C84.0476 204.366 86.2529 202.154 88.4624 199.941C88.9891 199.398 89.0316 198.768 88.6071 198.324C88.1496 197.839 87.5175 197.861 86.9484 198.428C84.6309 200.737 82.3088 203.041 80.0275 205.383C78.721 206.717 78.7005 208.501 79.9976 209.829C82.3261 212.213 84.697 214.554 87.0553 216.916C87.6319 217.506 88.4181 217.843 89.2423 217.855L89.2407 217.855ZM98.8407 206.254L98.9539 206.118C98.7841 205.843 98.6567 205.524 98.435 205.299C96.1647 203.003 93.8829 200.718 91.5896 198.443C91.3616 198.217 91.0299 198.094 90.7453 197.924C91.0786 199.535 90.5063 200.672 89.4215 201.677C88.3634 202.656 87.3776 203.707 86.4468 204.631L92.2483 210.459C93.209 209.492 94.2561 208.492 95.2356 207.43C96.215 206.369 97.3596 205.819 98.8407 206.254ZM85.0743 206.17L83.5917 207.57L89.2831 213.257L90.75 211.889C90.6447 211.775 90.5613 211.681 90.4733 211.593L85.0743 206.17Z" fill="#C4C4C4"/>
</g>
<g clip-path="url(#clip21_421_153)">
<path d="M68.3772 186.483C67.5356 185.579 66.968 184.532 66.959 183.283C66.9332 179.738 66.8572 176.19 66.9782 172.649C67.0752 169.85 69.1354 167.95 71.9438 167.906C75.2786 167.848 78.6155 167.873 81.9514 167.89C83.2365 167.89 84.174 168.509 84.7237 169.696C84.8106 169.878 84.9547 170.026 85.1339 170.117C86.4297 170.712 86.9829 171.744 86.9829 173.129C86.9746 174.975 86.9722 176.822 86.9758 178.668C86.9747 179.99 86.9647 181.312 86.9746 182.634C86.9845 184.051 86.4128 185.099 85.0938 185.697C84.9039 185.812 84.755 185.983 84.6683 186.187C84.1388 187.266 83.2804 187.893 82.092 187.905C78.6494 187.939 75.2089 187.941 71.7707 187.912C71.138 187.912 70.5119 187.786 69.9291 187.54C69.3463 187.295 68.8187 186.935 68.3772 186.483ZM69.6924 185.125C70.3873 185.82 71.2483 186.058 72.2119 186.055C75.3356 186.044 78.4593 186.039 81.5829 186.04C81.8343 186.05 82.086 186.024 82.3296 185.96C82.5448 185.9 82.733 185.768 82.8625 185.586C82.992 185.404 83.0548 185.183 83.0404 184.96C83.0485 184.737 82.9809 184.518 82.8485 184.339C82.7161 184.16 82.5267 184.031 82.3113 183.973C82.0694 183.91 81.819 183.885 81.5692 183.899C78.5041 183.899 75.4413 183.901 72.3806 183.905C71.2179 183.905 70.9533 183.636 70.9543 182.452L70.9655 173.395C70.9676 172.17 71.216 171.922 72.4377 171.923C75.5584 171.915 78.6821 171.91 81.8088 171.908C82.5654 171.897 83.0409 171.481 83.0548 170.867C83.0743 170.2 82.6118 169.769 81.8084 169.768C78.5371 169.762 75.2658 169.749 71.9967 169.792C70.1296 169.811 68.8534 171.058 68.8318 172.914C68.7922 176.247 68.8138 179.578 68.8109 182.916C68.8015 183.741 69.1188 184.536 69.6935 185.127L69.6924 185.125ZM84.6838 183.71L84.8596 183.695C84.9344 183.38 85.0693 183.065 85.0718 182.749C85.0902 179.52 85.0926 176.29 85.0791 173.061C85.0783 172.739 84.9306 172.418 84.8496 172.096C83.946 173.471 82.7373 173.87 81.2597 173.814C79.8188 173.758 78.379 173.804 77.0671 173.8L77.0489 182.022C78.4119 182.018 79.8595 182.051 81.3027 181.993C82.7459 181.935 83.9439 182.356 84.6838 183.71ZM75.0085 173.917L72.9701 173.859L72.9732 181.905L74.9782 181.974C74.9839 181.819 74.9918 181.694 74.9919 181.569L75.0085 173.917Z" fill="#C4C4C4"/>
</g>
<g clip-path="url(#clip22_421_153)">
<path d="M148.675 136.044C149.909 136.089 151.05 136.427 151.94 137.304C154.465 139.793 157.028 142.248 159.446 144.837C161.356 146.885 161.243 149.685 159.289 151.703C156.971 154.101 154.594 156.443 152.223 158.79C151.315 159.699 150.214 159.924 148.986 159.473C148.796 159.406 148.59 159.404 148.398 159.465C147.062 159.962 145.941 159.623 144.961 158.643C143.661 157.332 142.358 156.025 141.049 154.722C140.116 153.786 139.188 152.844 138.246 151.917C137.237 150.921 136.9 149.776 137.41 148.42C137.463 148.205 137.447 147.979 137.364 147.773C136.976 146.636 137.139 145.585 137.971 144.737C140.382 142.279 142.813 139.844 145.265 137.434C145.712 136.986 146.244 136.633 146.83 136.394C147.415 136.156 148.043 136.037 148.675 136.044ZM148.705 137.934C147.722 137.934 146.945 138.375 146.266 139.059C144.065 141.275 141.86 143.488 139.65 145.696C139.465 145.866 139.306 146.063 139.179 146.28C139.069 146.474 139.029 146.701 139.066 146.921C139.103 147.142 139.215 147.342 139.383 147.49C139.535 147.653 139.738 147.76 139.958 147.793C140.178 147.826 140.404 147.784 140.597 147.672C140.812 147.546 141.007 147.386 141.174 147.2C143.341 145.033 145.506 142.866 147.667 140.698C148.489 139.876 148.867 139.879 149.703 140.717L156.099 147.129C156.963 147.997 156.963 148.348 156.099 149.211C153.898 151.423 151.692 153.636 149.483 155.848C148.956 156.391 148.914 157.021 149.338 157.465C149.796 157.95 150.428 157.928 150.997 157.361C153.314 155.052 155.637 152.748 157.918 150.406C159.224 149.072 159.245 147.288 157.948 145.96C155.619 143.576 153.248 141.235 150.89 138.873C150.313 138.283 149.527 137.946 148.703 137.934L148.705 137.934ZM139.105 149.535L138.991 149.671C139.161 149.946 139.289 150.265 139.51 150.49C141.781 152.786 144.062 155.071 146.356 157.346C146.584 157.572 146.915 157.695 147.2 157.865C146.867 156.254 147.439 155.117 148.524 154.112C149.582 153.133 150.568 152.082 151.498 151.158L145.697 145.33C144.736 146.297 143.689 147.297 142.71 148.359C141.73 149.42 140.586 149.97 139.105 149.535ZM152.871 149.619L154.354 148.219L148.662 142.532L147.195 143.9C147.301 144.014 147.384 144.108 147.472 144.196L152.871 149.619Z" fill="#C4C4C4"/>
</g>
<g clip-path="url(#clip23_421_153)">
<path d="M169.572 169.306C170.414 170.21 170.981 171.257 170.99 172.506C171.016 176.051 171.092 179.599 170.971 183.14C170.874 185.939 168.814 187.839 166.005 187.883C162.671 187.941 159.334 187.916 155.998 187.899C154.713 187.899 153.775 187.28 153.225 186.093C153.139 185.911 152.995 185.763 152.815 185.672C151.52 185.077 150.966 184.045 150.966 182.66C150.975 180.814 150.977 178.967 150.973 177.121C150.975 175.799 150.985 174.477 150.975 173.155C150.965 171.738 151.536 170.69 152.855 170.092C153.045 169.977 153.194 169.806 153.281 169.602C153.81 168.523 154.669 167.896 155.857 167.884C159.3 167.85 162.74 167.848 166.178 167.877C166.811 167.877 167.437 168.003 168.02 168.249C168.603 168.494 169.131 168.854 169.572 169.306ZM168.257 170.664C167.562 169.969 166.701 169.731 165.737 169.735C162.614 169.745 159.49 169.75 156.366 169.749C156.115 169.739 155.863 169.766 155.62 169.829C155.404 169.889 155.216 170.021 155.087 170.203C154.957 170.385 154.894 170.606 154.909 170.829C154.901 171.052 154.968 171.271 155.101 171.45C155.233 171.629 155.422 171.758 155.638 171.816C155.88 171.879 156.13 171.904 156.38 171.89C159.445 171.89 162.508 171.888 165.569 171.884C166.731 171.884 166.996 172.154 166.995 173.337L166.984 182.394C166.982 183.619 166.733 183.867 165.511 183.866C162.391 183.874 159.267 183.879 156.14 183.881C155.384 183.892 154.908 184.308 154.894 184.922C154.875 185.589 155.337 186.02 156.141 186.021C159.412 186.028 162.683 186.04 165.953 185.997C167.82 185.978 169.096 184.731 169.117 182.875C169.157 179.542 169.135 176.211 169.138 172.873C169.148 172.048 168.83 171.253 168.256 170.663L168.257 170.664ZM153.265 172.079L153.09 172.094C153.015 172.409 152.88 172.724 152.877 173.04C152.859 176.269 152.857 179.499 152.87 182.728C152.871 183.05 153.019 183.371 153.1 183.693C154.003 182.318 155.212 181.919 156.69 181.975C158.13 182.031 159.57 181.985 160.882 181.989L160.9 173.767C159.537 173.771 158.09 173.738 156.647 173.796C155.203 173.854 154.005 173.433 153.265 172.079ZM162.941 181.872L164.979 181.93L164.976 173.884L162.971 173.815C162.965 173.97 162.957 174.095 162.957 174.22L162.941 181.872Z" fill="#C4C4C4"/>
</g>
<defs>
<clipPath id="clip0_421_153">
<rect width="23.654" height="23.654" fill="white" transform="translate(77.4883 77.3799)"/>
</clipPath>
<clipPath id="clip1_421_153">
<rect width="23.654" height="23.654" fill="white" transform="translate(59.293 84.916) rotate(45)"/>
</clipPath>
<clipPath id="clip2_421_153">
<rect width="23.654" height="23.654" fill="white" transform="translate(41.0977 40.9883) rotate(180)"/>
</clipPath>
<clipPath id="clip3_421_153">
<rect width="23.654" height="23.654" fill="white" transform="translate(59.293 33.4521) rotate(-135)"/>
</clipPath>
<clipPath id="clip4_421_153">
<rect width="23.654" height="23.654" fill="white" transform="translate(41.0977 77.3799) rotate(90)"/>
</clipPath>
<clipPath id="clip5_421_153">
<rect width="23.654" height="23.654" fill="white" transform="translate(33.5625 59.1836) rotate(135)"/>
</clipPath>
<clipPath id="clip6_421_153">
<rect width="23.654" height="23.654" fill="white" transform="translate(77.4883 40.9883) rotate(-90)"/>
</clipPath>
<clipPath id="clip7_421_153">
<rect width="23.654" height="23.654" fill="white" transform="translate(85.0273 59.1836) rotate(-45)"/>
</clipPath>
<clipPath id="clip8_421_153">
<rect width="23.654" height="23.654" fill="white" transform="translate(196.121 77.3799)"/>
</clipPath>
<clipPath id="clip9_421_153">
<rect width="23.654" height="23.654" fill="white" transform="translate(177.926 84.916) rotate(45)"/>
</clipPath>
<clipPath id="clip10_421_153">
<rect width="23.654" height="23.654" fill="white" transform="translate(159.73 40.9883) rotate(180)"/>
</clipPath>
<clipPath id="clip11_421_153">
<rect width="23.654" height="23.654" fill="white" transform="translate(177.926 33.4521) rotate(-135)"/>
</clipPath>
<clipPath id="clip12_421_153">
<rect width="23.654" height="23.654" fill="white" transform="translate(159.73 77.3799) rotate(90)"/>
</clipPath>
<clipPath id="clip13_421_153">
<rect width="23.654" height="23.654" fill="white" transform="translate(152.191 59.1836) rotate(135)"/>
</clipPath>
<clipPath id="clip14_421_153">
<rect width="23.654" height="23.654" fill="white" transform="translate(196.121 40.9883) rotate(-90)"/>
</clipPath>
<clipPath id="clip15_421_153">
<rect width="23.654" height="23.654" fill="white" transform="translate(203.656 59.1836) rotate(-45)"/>
</clipPath>
<clipPath id="clip16_421_153">
<rect width="23.654" height="23.654" fill="white" transform="translate(137.168 196.09)"/>
</clipPath>
<clipPath id="clip17_421_153">
<rect width="23.654" height="23.654" fill="white" transform="translate(118.973 203.627) rotate(45)"/>
</clipPath>
<clipPath id="clip18_421_153">
<rect width="23.654" height="23.654" fill="white" transform="translate(100.777 159.699) rotate(180)"/>
</clipPath>
<clipPath id="clip19_421_153">
<rect width="23.654" height="23.654" fill="white" transform="translate(118.973 152.162) rotate(-135)"/>
</clipPath>
<clipPath id="clip20_421_153">
<rect width="23.654" height="23.654" fill="white" transform="translate(100.777 196.09) rotate(90)"/>
</clipPath>
<clipPath id="clip21_421_153">
<rect width="23.654" height="23.654" fill="white" transform="translate(93.2422 177.895) rotate(135)"/>
</clipPath>
<clipPath id="clip22_421_153">
<rect width="23.654" height="23.654" fill="white" transform="translate(137.168 159.699) rotate(-90)"/>
</clipPath>
<clipPath id="clip23_421_153">
<rect width="23.654" height="23.654" fill="white" transform="translate(144.707 177.895) rotate(-45)"/>
</clipPath>
</defs>
</svg>
