<svg width="261" height="261" viewBox="0 0 261 261" fill="none" xmlns="http://www.w3.org/2000/svg">
<circle cx="130.109" cy="132.107" r="58" stroke="#C4C4C4" stroke-width="4"/>
<g clip-path="url(#clip0_421_119)">
<path d="M222.109 195.41C222.012 198.123 221.267 200.633 219.339 202.589C213.869 208.14 208.471 213.773 202.779 219.089C198.278 223.289 192.122 223.04 187.687 218.744C182.414 213.649 177.265 208.423 172.106 203.211C170.109 201.213 169.614 198.794 170.604 196.094C170.751 195.677 170.757 195.223 170.621 194.802C169.531 191.864 170.275 189.4 172.428 187.246C175.311 184.389 178.185 181.523 181.05 178.647C183.106 176.594 185.177 174.555 187.216 172.484C189.404 170.266 191.921 169.526 194.902 170.646C195.375 170.763 195.873 170.728 196.325 170.545C198.825 169.692 201.134 170.051 203 171.88C208.404 177.179 213.755 182.524 219.055 187.913C220.039 188.897 220.816 190.067 221.34 191.354C221.865 192.641 222.126 194.02 222.109 195.41ZM217.954 195.476C217.954 193.316 216.985 191.608 215.482 190.115C210.609 185.276 205.746 180.428 200.892 175.571C200.518 175.164 200.085 174.814 199.607 174.534C199.18 174.292 198.682 174.205 198.198 174.287C197.714 174.369 197.272 174.615 196.948 174.983C196.589 175.317 196.354 175.763 196.281 176.247C196.208 176.732 196.302 177.227 196.547 177.652C196.825 178.126 197.175 178.554 197.585 178.92C202.349 183.685 207.114 188.443 211.878 193.195C213.685 195.002 213.678 195.832 211.836 197.671L197.741 211.731C195.833 213.632 195.061 213.632 193.164 211.731C188.301 206.892 183.437 202.044 178.574 197.187C177.38 196.029 175.995 195.935 175.018 196.869C173.952 197.874 174 199.264 175.247 200.515C180.322 205.61 185.388 210.715 190.536 215.73C193.469 218.602 197.392 218.647 200.31 215.795C205.552 210.677 210.697 205.464 215.89 200.28C217.187 199.012 217.929 197.284 217.954 195.472V195.476ZM192.451 174.372L192.153 174.123C191.547 174.496 190.848 174.776 190.353 175.263C185.305 180.254 180.281 185.27 175.281 190.312C174.783 190.813 174.513 191.542 174.139 192.168C177.681 191.435 180.181 192.693 182.389 195.078C184.543 197.404 186.852 199.571 188.885 201.618L201.695 188.864C199.569 186.752 197.371 184.45 195.037 182.297C192.704 180.144 191.495 177.627 192.451 174.372ZM192.267 204.635L195.345 207.894L207.848 195.382L204.839 192.158C204.59 192.389 204.382 192.572 204.188 192.766L192.267 204.635Z" fill="#C4C4C4"/>
</g>
<g clip-path="url(#clip1_421_119)">
<path d="M148.989 241.338C147.002 243.188 144.702 244.436 141.955 244.456C134.161 244.512 126.361 244.679 118.577 244.413C112.425 244.2 108.248 239.671 108.15 233.497C108.024 226.166 108.079 218.83 108.116 211.497C108.116 208.672 109.477 206.611 112.086 205.402C112.485 205.211 112.811 204.895 113.012 204.501C114.318 201.652 116.587 200.436 119.633 200.436C123.692 200.454 127.75 200.459 131.809 200.451C134.715 200.454 137.621 200.476 140.527 200.454C143.643 200.432 145.946 201.689 147.262 204.589C147.514 205.006 147.891 205.334 148.339 205.524C150.711 206.688 152.09 208.575 152.116 211.188C152.19 218.756 152.195 226.319 152.131 233.878C152.131 235.269 151.853 236.645 151.314 237.926C150.774 239.207 149.984 240.367 148.989 241.338ZM146.005 238.447C147.533 236.919 148.054 235.026 148.048 232.908C148.024 226.041 148.013 219.174 148.015 212.307C148.039 211.754 147.979 211.201 147.84 210.665C147.709 210.192 147.418 209.779 147.018 209.494C146.618 209.209 146.132 209.071 145.642 209.103C145.152 209.085 144.67 209.234 144.276 209.525C143.882 209.816 143.598 210.232 143.471 210.706C143.333 211.238 143.278 211.788 143.309 212.337C143.308 219.075 143.312 225.809 143.321 232.537C143.321 235.093 142.73 235.675 140.127 235.672L120.218 235.648C117.525 235.643 116.979 235.097 116.982 232.411C116.965 225.551 116.954 218.684 116.949 211.81C116.924 210.147 116.01 209.102 114.66 209.071C113.195 209.028 112.247 210.045 112.243 211.811C112.23 219.003 112.202 226.194 112.296 233.381C112.339 237.485 115.081 240.291 119.161 240.339C126.487 240.426 133.811 240.378 141.149 240.385C142.962 240.405 144.709 239.708 146.007 238.444L146.005 238.447ZM142.894 205.49L142.86 205.104C142.168 204.939 141.475 204.643 140.78 204.637C133.682 204.597 126.582 204.591 119.482 204.621C118.775 204.623 118.069 204.948 117.362 205.126C120.385 207.112 121.263 209.769 121.138 213.018C121.016 216.185 121.117 219.35 121.107 222.234L139.184 222.274C139.174 219.278 139.247 216.096 139.119 212.923C138.992 209.75 139.917 207.117 142.894 205.49ZM121.365 226.76L121.237 231.241L138.925 231.234L139.077 226.827C138.737 226.814 138.461 226.797 138.187 226.796L121.365 226.76Z" fill="#C4C4C4"/>
</g>
<g clip-path="url(#clip2_421_119)">
<path d="M38.11 64.8048C38.207 62.0916 38.9513 59.5823 40.8798 57.626C46.3502 52.0752 51.7479 46.4415 57.4399 41.1257C61.9409 36.9263 68.0968 37.1751 72.532 41.4713C77.8051 46.5659 82.9535 51.7918 88.1123 57.0039C90.11 59.0016 90.6051 61.421 89.6149 64.1204C89.4676 64.5378 89.4615 64.9919 89.5976 65.4131C90.6882 68.3509 89.9438 70.8153 87.7903 72.9685C84.9074 75.8257 82.0337 78.6922 79.1692 81.5678C77.1126 83.6209 75.0422 85.6601 73.0029 87.7304C70.8147 89.9493 68.2976 90.689 65.3166 89.5691C64.8436 89.452 64.3455 89.4871 63.8936 89.6694C61.3939 90.5231 59.0845 90.1636 57.2183 88.3352C51.8149 83.0356 46.4633 77.691 41.1637 72.3015C40.18 71.3181 39.4031 70.1483 38.8786 68.8609C38.3542 67.5735 38.0929 66.1944 38.11 64.8048ZM42.2647 64.7391C42.2647 66.8993 43.2342 68.6067 44.7368 70.0998C49.6094 74.9386 54.4728 79.7867 59.3269 84.6439C59.7011 85.0512 60.1341 85.4007 60.6114 85.6808C61.0388 85.9225 61.5366 86.0098 62.0209 85.928C62.5052 85.8461 62.9465 85.6002 63.2704 85.2315C63.6297 84.8976 63.865 84.452 63.938 83.9674C64.0109 83.4828 63.9172 82.9878 63.672 82.5632C63.394 82.0891 63.0435 81.6611 62.6333 81.2948C57.8692 76.5297 53.1052 71.7715 48.3411 67.0203C46.5337 65.2126 46.5407 64.3831 48.3826 62.5443L62.4775 48.4841C64.3853 46.5832 65.1574 46.5832 67.0547 48.4841C71.918 53.3229 76.7814 58.171 81.6447 63.0282C82.8392 64.1861 84.2241 64.2794 85.2005 63.3462C86.2669 62.3404 86.2184 60.951 84.972 59.6998C79.8963 54.6052 74.831 49.5003 69.6826 44.4852C66.75 41.613 62.8272 41.5681 59.9085 44.4195C54.6666 49.5383 49.5217 54.7504 44.3283 59.9348C43.0315 61.2025 42.2897 62.9308 42.2647 64.7426L42.2647 64.7391ZM67.7679 85.8433L68.0657 86.0921C68.6716 85.7188 69.3709 85.4389 69.8661 84.9515C74.9141 79.9606 79.9378 74.9444 84.9374 69.9028C85.4359 69.4016 85.706 68.6724 86.0799 68.0468C82.538 68.7795 80.0382 67.5214 77.8293 65.1366C75.6758 62.8105 73.3664 60.6434 71.3341 58.5973L58.5236 71.351C60.6495 73.4628 62.848 75.7647 65.1816 77.918C67.5152 80.0712 68.7235 82.5874 67.7679 85.8433ZM67.9514 55.5799L64.8734 52.3206L52.3711 64.8324L55.3799 68.0571C55.6292 67.8256 55.8369 67.6424 56.0308 67.4488L67.9514 55.5799Z" fill="#C4C4C4"/>
</g>
<g clip-path="url(#clip3_421_119)">
<path d="M111.229 18.8779C113.216 17.0279 115.517 15.7799 118.264 15.7603C126.057 15.7034 133.858 15.5365 141.641 15.8025C147.793 16.0158 151.97 20.5446 152.069 26.7186C152.195 34.0497 152.14 41.3854 152.102 48.7188C152.102 51.544 150.742 53.6049 148.133 54.8134C147.733 55.0044 147.408 55.3212 147.207 55.7152C145.9 58.5638 143.631 59.78 140.586 59.7798C136.527 59.7616 132.468 59.7565 128.409 59.7644C125.503 59.7619 122.597 59.7398 119.692 59.7617C116.575 59.7835 114.272 58.5267 112.956 55.6269C112.705 55.2096 112.328 54.8822 111.879 54.6916C109.508 53.5276 108.129 51.6405 108.102 49.0281C108.029 41.4598 108.024 33.8965 108.088 26.3382C108.087 24.9472 108.365 23.5707 108.905 22.2895C109.444 21.0084 110.235 19.8484 111.229 18.8779ZM114.214 21.7693C112.686 23.2968 112.164 25.1896 112.171 27.3079C112.195 34.1749 112.206 41.0419 112.204 47.9089C112.18 48.4615 112.239 49.0148 112.379 49.5503C112.51 50.0235 112.8 50.4372 113.201 50.7218C113.601 51.0064 114.087 51.1445 114.577 51.1128C115.067 51.1308 115.548 50.9821 115.943 50.691C116.337 50.3999 116.62 49.9836 116.747 49.5101C116.886 48.9782 116.941 48.4278 116.91 47.8787C116.911 41.1405 116.906 34.4073 116.897 27.6789C116.898 25.1227 117.489 24.5411 120.092 24.5433L140 24.5679C142.693 24.5727 143.239 25.1186 143.237 27.8044C143.254 34.6649 143.265 41.5319 143.269 48.4054C143.295 50.0687 144.209 51.114 145.559 51.1445C147.024 51.1874 147.972 50.1706 147.976 48.4045C147.989 41.2131 148.017 34.0216 147.923 26.8349C147.88 22.7304 145.138 19.9248 141.058 19.8772C133.732 19.7902 126.408 19.8376 119.07 19.8313C117.257 19.8107 115.51 20.5083 114.211 21.7717L114.214 21.7693ZM117.324 54.7256L117.359 55.1121C118.051 55.2766 118.744 55.5732 119.438 55.5787C126.537 55.6191 133.636 55.6244 140.737 55.5947C141.443 55.5928 142.15 55.2681 142.857 55.0902C139.834 53.1038 138.956 50.4466 139.081 47.1983C139.203 44.0307 139.102 40.8654 139.112 37.9815L121.035 37.9414C121.045 40.9378 120.972 44.1201 121.099 47.2928C121.227 50.4655 120.302 53.0991 117.324 54.7256ZM138.853 33.456L138.982 28.9749L121.294 28.9816L121.141 33.3893C121.481 33.4018 121.758 33.4192 122.032 33.4194L138.853 33.456Z" fill="#C4C4C4"/>
</g>
<g clip-path="url(#clip4_421_119)">
<path d="M64.8087 222.108C62.0955 222.011 59.5862 221.266 57.6299 219.338C52.0791 213.868 46.4454 208.47 41.1296 202.778C36.9302 198.277 37.179 192.121 41.4752 187.686C46.5698 182.413 51.7957 177.264 57.0078 172.105C59.0055 170.108 61.425 169.613 64.1243 170.603C64.5417 170.75 64.9958 170.756 65.417 170.62C68.3548 169.53 70.8192 170.274 72.9724 172.427C75.8297 175.31 78.6961 178.184 81.5717 181.049C83.6248 183.105 85.664 185.176 87.7343 187.215C89.9532 189.403 90.6929 191.92 89.573 194.901C89.4559 195.374 89.491 195.872 89.6733 196.324C90.527 198.824 90.1675 201.133 88.3391 202.999C83.0395 208.403 77.6949 213.754 72.3054 219.054C71.322 220.038 70.1522 220.815 68.8648 221.339C67.5774 221.864 66.1983 222.125 64.8087 222.108ZM64.743 217.953C66.9032 217.953 68.6106 216.984 70.1037 215.481C74.9425 210.608 79.7906 205.745 84.6478 200.891C85.0551 200.517 85.4046 200.084 85.6847 199.606C85.9264 199.179 86.0137 198.681 85.9319 198.197C85.85 197.713 85.6041 197.271 85.2354 196.947C84.9015 196.588 84.4559 196.353 83.9713 196.28C83.4867 196.207 82.9917 196.301 82.5671 196.546C82.093 196.824 81.665 197.174 81.2987 197.584C76.5336 202.349 71.7754 207.113 67.0242 211.877C65.2165 213.684 64.387 213.677 62.5482 211.835L48.488 197.74C46.5871 195.833 46.5871 195.06 48.488 193.163C53.3268 188.3 58.1749 183.436 63.0321 178.573C64.19 177.379 64.2833 175.994 63.3501 175.017C62.3443 173.951 60.9549 173.999 59.7037 175.246C54.6091 180.321 49.5042 185.387 44.4891 190.535C41.6169 193.468 41.572 197.391 44.4234 200.309C49.5422 205.551 54.7543 210.696 59.9387 215.89C61.2064 217.186 62.9347 217.928 64.7465 217.953L64.743 217.953ZM85.8472 192.45L86.096 192.152C85.7227 191.546 85.4428 190.847 84.9554 190.352C79.9645 185.304 74.9483 180.28 69.9067 175.28C69.4055 174.782 68.6763 174.512 68.0507 174.138C68.7834 177.68 67.5253 180.18 65.1405 182.388C62.8144 184.542 60.6473 186.851 58.6012 188.884L71.3549 201.694C73.4667 199.568 75.7686 197.37 77.9219 195.036C80.0751 192.703 82.5913 191.494 85.8472 192.45ZM55.5838 192.266L52.3245 195.344L64.8363 207.847L68.061 204.838C67.8295 204.589 67.6463 204.381 67.4527 204.187L55.5838 192.266Z" fill="#C4C4C4"/>
</g>
<g clip-path="url(#clip5_421_119)">
<path d="M18.8769 148.985C17.0269 146.998 15.779 144.698 15.7593 141.951C15.7025 134.158 15.5355 126.357 15.8016 118.573C16.0148 112.421 20.5437 108.244 26.7177 108.146C34.0487 108.02 41.3845 108.075 48.7178 108.112C51.543 108.112 53.6039 109.473 54.8125 112.082C55.0034 112.481 55.3202 112.807 55.7143 113.008C58.5628 114.315 59.779 116.583 59.7788 119.629C59.7606 123.688 59.7555 127.747 59.7634 131.805C59.7609 134.711 59.7388 137.617 59.7607 140.523C59.7825 143.64 58.5257 145.942 55.6259 147.258C55.2086 147.51 54.8813 147.887 54.6906 148.336C53.5267 150.707 51.6395 152.086 49.0271 152.112C41.4588 152.186 33.8955 152.191 26.3372 152.127C24.9462 152.127 23.5697 151.85 22.2885 151.31C21.0074 150.771 19.8474 149.98 18.8769 148.985ZM21.7683 146.001C23.2958 147.529 25.1886 148.05 27.3069 148.044C34.1739 148.02 41.0409 148.009 47.9079 148.011C48.4606 148.035 49.0138 147.976 49.5494 147.836C50.0225 147.705 50.4362 147.415 50.7208 147.014C51.0054 146.614 51.1435 146.128 51.1119 145.638C51.1298 145.148 50.9811 144.667 50.69 144.272C50.3989 143.878 49.9826 143.594 49.5091 143.467C48.9772 143.329 48.4268 143.274 47.8777 143.305C41.1396 143.304 34.4063 143.308 27.6779 143.318C25.1218 143.317 24.5401 142.726 24.5424 140.123L24.5669 120.215C24.5717 117.521 25.1176 116.975 27.8034 116.978C34.6639 116.961 41.5309 116.95 48.4044 116.946C50.0678 116.92 51.113 116.006 51.1435 114.656C51.1864 113.191 50.1696 112.243 48.4036 112.239C41.2121 112.226 34.0206 112.198 26.8339 112.292C22.7294 112.335 19.9238 115.077 19.8762 119.157C19.7892 126.483 19.8367 133.807 19.8303 141.145C19.8097 142.958 20.5073 144.705 21.7707 146.004L21.7683 146.001ZM54.7247 142.891L55.1112 142.856C55.2757 142.164 55.5722 141.471 55.5777 140.776C55.6181 133.678 55.6234 126.578 55.5937 119.478C55.5919 118.771 55.2671 118.065 55.0892 117.358C53.1028 120.381 50.4456 121.259 47.1973 121.134C44.0297 121.012 40.8644 121.113 37.9805 121.103L37.9404 139.18C40.9368 139.17 44.1191 139.243 47.2918 139.115C50.4645 138.988 53.0981 139.913 54.7247 142.891ZM33.455 121.361L28.9739 121.233L28.9806 138.921L33.3883 139.074C33.4008 138.734 33.4182 138.457 33.4184 138.183L33.455 121.361Z" fill="#C4C4C4"/>
</g>
<g clip-path="url(#clip6_421_119)">
<path d="M195.41 38.1071C198.123 38.204 200.633 38.9484 202.589 40.8769C208.14 46.3473 213.773 51.745 219.089 57.437C223.289 61.938 223.04 68.0939 218.744 72.5291C213.649 77.8021 208.423 82.9505 203.211 88.1093C201.213 90.1071 198.794 90.6022 196.094 89.612C195.677 89.4647 195.223 89.4586 194.802 89.5947C191.864 90.6853 189.4 89.9409 187.246 87.7874C184.389 84.9044 181.523 82.0307 178.647 79.1663C176.594 77.1097 174.555 75.0392 172.484 73C170.266 70.8118 169.526 68.2947 170.646 65.3137C170.763 64.8406 170.728 64.3426 170.545 63.8907C169.692 61.3909 170.051 59.0816 171.88 57.2154C177.179 51.8119 182.524 46.4604 187.913 41.1608C188.897 40.1771 190.067 39.4001 191.354 38.8757C192.641 38.3513 194.02 38.09 195.41 38.1071ZM195.476 42.2618C193.316 42.2618 191.608 43.2313 190.115 44.7339C185.276 49.6065 180.428 54.4698 175.571 59.3239C175.164 59.6982 174.814 60.1311 174.534 60.6084C174.292 61.0358 174.205 61.5336 174.287 62.018C174.369 62.5023 174.615 62.9436 174.983 63.2675C175.317 63.6268 175.763 63.8621 176.247 63.935C176.732 64.008 177.227 63.9142 177.652 63.6691C178.126 63.391 178.554 63.0406 178.92 62.6304C183.685 57.8663 188.443 53.1022 193.195 48.3381C195.002 46.5308 195.832 46.5377 197.67 48.3797L211.731 62.4746C213.632 64.3823 213.632 65.1544 211.731 67.0518C206.892 71.9151 202.044 76.7785 197.187 81.6418C196.029 82.8363 195.935 84.2212 196.869 85.1976C197.874 86.264 199.264 86.2155 200.515 84.9691C205.61 79.8934 210.715 74.828 215.73 69.6796C218.602 66.7471 218.647 62.8243 215.795 59.9056C210.677 54.6637 205.464 49.5188 200.28 44.3253C199.012 43.0285 197.284 42.2867 195.472 42.2618L195.476 42.2618ZM174.372 67.765L174.123 68.0627C174.496 68.6686 174.776 69.368 175.263 69.8631C180.254 74.9111 185.27 79.9349 190.312 84.9344C190.813 85.433 191.542 85.7031 192.168 86.077C191.435 82.5351 192.693 80.0353 195.078 77.8264C197.404 75.6728 199.571 73.3635 201.618 71.3311L188.864 58.5207C186.752 60.6465 184.45 62.8451 182.297 65.1787C180.144 67.5122 177.627 68.7206 174.372 67.765ZM204.635 67.9485L207.894 64.8705L195.382 52.3682L192.158 55.3769C192.389 55.6262 192.572 55.834 192.766 56.0278L204.635 67.9485Z" fill="#C4C4C4"/>
</g>
<g clip-path="url(#clip7_421_119)">
<path d="M241.338 111.229C243.188 113.216 244.436 115.517 244.456 118.264C244.512 126.057 244.679 133.858 244.413 141.641C244.2 147.793 239.671 151.97 233.497 152.069C226.166 152.195 218.83 152.14 211.497 152.102C208.672 152.102 206.611 150.742 205.402 148.133C205.211 147.733 204.895 147.408 204.501 147.207C201.652 145.9 200.436 143.631 200.436 140.586C200.454 136.527 200.459 132.468 200.451 128.409C200.454 125.503 200.476 122.597 200.454 119.692C200.432 116.575 201.689 114.272 204.589 112.956C205.006 112.705 205.334 112.328 205.524 111.879C206.688 109.508 208.575 108.129 211.188 108.102C218.756 108.029 226.319 108.024 233.878 108.088C235.269 108.088 236.645 108.365 237.926 108.905C239.207 109.444 240.367 110.235 241.338 111.229ZM238.447 114.214C236.919 112.686 235.026 112.164 232.908 112.171C226.041 112.195 219.174 112.206 212.307 112.204C211.754 112.18 211.201 112.239 210.665 112.379C210.192 112.51 209.779 112.8 209.494 113.201C209.209 113.601 209.071 114.087 209.103 114.577C209.085 115.067 209.234 115.548 209.525 115.943C209.816 116.337 210.232 116.62 210.706 116.747C211.238 116.886 211.788 116.941 212.337 116.91C219.075 116.911 225.809 116.906 232.537 116.897C235.093 116.898 235.675 117.489 235.672 120.092L235.648 140C235.643 142.693 235.097 143.239 232.411 143.237C225.551 143.254 218.684 143.265 211.81 143.269C210.147 143.295 209.102 144.209 209.071 145.559C209.028 147.024 210.045 147.972 211.811 147.976C219.003 147.989 226.194 148.017 233.381 147.923C237.485 147.88 240.291 145.138 240.339 141.058C240.426 133.732 240.378 126.408 240.385 119.07C240.405 117.257 239.708 115.51 238.444 114.211L238.447 114.214ZM205.49 117.324L205.104 117.359C204.939 118.051 204.643 118.744 204.637 119.438C204.597 126.537 204.591 133.636 204.621 140.737C204.623 141.443 204.948 142.15 205.126 142.857C207.112 139.834 209.769 138.956 213.018 139.081C216.185 139.203 219.35 139.102 222.234 139.112L222.274 121.035C219.278 121.045 216.096 120.972 212.923 121.099C209.75 121.227 207.117 120.302 205.49 117.324ZM226.76 138.853L231.241 138.982L231.234 121.294L226.827 121.141C226.814 121.481 226.797 121.758 226.796 122.032L226.76 138.853Z" fill="#C4C4C4"/>
</g>
<defs>
<clipPath id="clip0_421_119">
<rect width="52" height="52" fill="white" transform="translate(170.109 170.107)"/>
</clipPath>
<clipPath id="clip1_421_119">
<rect width="52" height="52" fill="white" transform="translate(130.109 186.677) rotate(45)"/>
</clipPath>
<clipPath id="clip2_421_119">
<rect width="52" height="52" fill="white" transform="translate(90.1094 90.1074) rotate(180)"/>
</clipPath>
<clipPath id="clip3_421_119">
<rect width="52" height="52" fill="white" transform="translate(130.109 73.5391) rotate(-135)"/>
</clipPath>
<clipPath id="clip4_421_119">
<rect width="52" height="52" fill="white" transform="translate(90.1094 170.107) rotate(90)"/>
</clipPath>
<clipPath id="clip5_421_119">
<rect width="52" height="52" fill="white" transform="translate(73.5391 130.107) rotate(135)"/>
</clipPath>
<clipPath id="clip6_421_119">
<rect width="52" height="52" fill="white" transform="translate(170.109 90.1074) rotate(-90)"/>
</clipPath>
<clipPath id="clip7_421_119">
<rect width="52" height="52" fill="white" transform="translate(186.676 130.107) rotate(-45)"/>
</clipPath>
</defs>
</svg>
