<svg width="113" height="228" viewBox="0 0 113 228" fill="none" xmlns="http://www.w3.org/2000/svg">
<path d="M84.6537 155.442C84.6096 156.37 84.271 157.229 83.3937 157.899C80.9053 159.799 78.45 161.728 75.8608 163.548C73.8134 164.985 71.0132 164.9 68.9957 163.429C66.597 161.685 64.2551 159.896 61.9084 158.112C60.9997 157.428 60.7745 156.6 61.2249 155.676C61.2919 155.533 61.2947 155.378 61.2328 155.233C60.7367 154.228 61.0753 153.384 62.0549 152.647C63.3663 151.669 64.6735 150.688 65.9765 149.703C66.912 149 67.8538 148.302 68.7815 147.594C69.7768 146.834 70.9218 146.581 72.2778 146.964C72.493 147.004 72.7196 146.992 72.9251 146.93C74.0622 146.638 75.1127 146.761 75.9616 147.387C78.4196 149.201 80.8539 151.03 83.2646 152.875C83.7121 153.212 84.0655 153.612 84.3041 154.053C84.5426 154.494 84.6615 154.966 84.6537 155.442ZM82.7638 155.464C82.7638 154.725 82.3228 154.14 81.6393 153.629C79.4228 151.973 77.2105 150.313 75.0025 148.65C74.8322 148.511 74.6353 148.391 74.4182 148.295C74.2238 148.213 73.9973 148.183 73.777 148.211C73.5567 148.239 73.356 148.323 73.2086 148.449C73.0452 148.563 72.9381 148.716 72.905 148.882C72.8718 149.048 72.9144 149.217 73.0259 149.363C73.1524 149.525 73.3118 149.671 73.4984 149.797C75.6655 151.428 77.8326 153.057 79.9998 154.683C80.8219 155.302 80.8187 155.586 79.9809 156.215L73.5693 161.029C72.7015 161.679 72.3503 161.679 71.4872 161.029C69.275 159.372 67.0627 157.713 64.8504 156.05C64.3071 155.653 63.6771 155.622 63.233 155.941C62.7479 156.285 62.7699 156.761 63.3369 157.189C65.6458 158.933 67.9499 160.681 70.2918 162.398C71.6258 163.381 73.4102 163.396 74.7379 162.42C77.1223 160.668 79.4627 158.884 81.8251 157.109C82.415 156.675 82.7524 156.083 82.7638 155.463V155.464ZM71.1628 148.24L71.0273 148.155C70.7517 148.282 70.4336 148.378 70.2084 148.545C67.9121 150.253 65.6269 151.971 63.3527 153.696C63.1259 153.868 63.003 154.118 62.8329 154.332C64.4441 154.081 65.5812 154.512 66.586 155.328C67.5656 156.124 68.6161 156.866 69.5406 157.567L75.3679 153.201C74.4009 152.478 73.4008 151.69 72.3393 150.953C71.2778 150.216 70.7281 149.354 71.1628 148.24ZM71.0793 158.6L72.4794 159.715L78.1665 155.432L76.7979 154.328C76.6845 154.408 76.59 154.47 76.5018 154.537L71.0793 158.6Z" fill="#C4C4C4"/>
<path d="M36.5881 120.679C35.7466 119.998 35.1789 119.211 35.1699 118.27C35.1441 115.603 35.0681 112.932 35.1892 110.268C35.2862 108.162 37.3463 106.732 40.1547 106.698C43.4895 106.655 46.8265 106.674 50.1623 106.687C51.4474 106.687 52.3849 107.153 52.9347 108.046C53.0215 108.182 53.1656 108.294 53.3449 108.363C54.6406 108.81 55.1939 109.587 55.1938 110.629C55.1855 112.019 55.1832 113.408 55.1868 114.797C55.1856 115.792 55.1756 116.787 55.1856 117.782C55.1955 118.849 54.6237 119.637 53.3047 120.087C53.1149 120.174 52.966 120.303 52.8792 120.456C52.3498 121.268 51.4913 121.74 50.303 121.749C46.8603 121.774 43.4198 121.776 39.9817 121.754C39.3489 121.754 38.7228 121.659 38.14 121.474C37.5572 121.29 37.0296 121.019 36.5881 120.679ZM37.9033 119.657C38.5982 120.18 39.4592 120.358 40.4228 120.356C43.5465 120.348 46.6702 120.344 49.7939 120.345C50.0453 120.353 50.2969 120.333 50.5405 120.285C50.7558 120.24 50.944 120.141 51.0734 120.004C51.2029 119.867 51.2657 119.7 51.2513 119.533C51.2595 119.365 51.1918 119.2 51.0594 119.065C50.927 118.93 50.7376 118.833 50.5222 118.79C50.2803 118.742 50.0299 118.723 49.7801 118.734C46.715 118.734 43.6522 118.735 40.5915 118.738C39.4288 118.738 39.1642 118.536 39.1652 117.645L39.1764 110.83C39.1786 109.908 39.4269 109.721 40.6486 109.722C43.7694 109.716 46.8931 109.712 50.0197 109.71C50.7764 109.702 51.2518 109.389 51.2657 108.927C51.2852 108.425 50.8227 108.101 50.0193 108.099C46.748 108.095 43.4767 108.085 40.2076 108.118C38.3405 108.132 37.0643 109.071 37.0427 110.468C37.0031 112.975 37.0247 115.482 37.0218 117.995C37.0124 118.615 37.3297 119.213 37.9045 119.658L37.9033 119.657ZM52.8947 118.592L53.0705 118.58C53.1454 118.343 53.2803 118.106 53.2828 117.868C53.3011 115.438 53.3036 113.008 53.29 110.578C53.2892 110.336 53.1415 110.094 53.0605 109.852C52.157 110.886 50.9482 111.187 49.4706 111.144C48.0297 111.103 46.5899 111.137 45.278 111.134L45.2598 117.322C46.6228 117.318 48.0704 117.343 49.5136 117.3C50.9568 117.256 52.1548 117.573 52.8947 118.592ZM43.2195 111.222L41.1811 111.178L41.1841 117.233L43.1891 117.285C43.1948 117.169 43.2027 117.074 43.2028 116.981L43.2195 111.222Z" fill="#C4C4C4"/>
<path d="M72.5107 64.0001C73.7449 64.0333 74.8863 64.2882 75.7762 64.9483C78.3012 66.821 80.8639 68.6687 83.2819 70.6172C85.1922 72.158 85.079 74.2654 83.1247 75.7836C80.8073 77.5887 78.4301 79.3511 76.0592 81.1171C75.1504 81.801 74.0499 81.9705 72.822 81.6315C72.6321 81.5811 72.4256 81.579 72.234 81.6256C70.8976 81.9989 69.7766 81.7441 68.7971 81.0069C67.4974 80.02 66.1935 79.0363 64.8854 78.0557C63.9515 77.3517 63.0239 76.6429 62.0822 75.9448C61.0728 75.1958 60.7363 74.3341 61.2457 73.3136C61.299 73.1517 61.2831 72.9812 61.2002 72.8265C60.8118 71.9708 60.9753 71.1802 61.807 70.5414C64.2178 68.6917 66.6489 66.8597 69.1005 65.0455C69.5479 64.7087 70.08 64.4428 70.6656 64.2633C71.2512 64.0837 71.8785 63.9943 72.5107 64.0001ZM72.5406 65.4224C71.5579 65.4224 70.7812 65.7543 70.102 66.2687C67.9009 67.9367 65.6956 69.6015 63.4862 71.2632C63.3009 71.3913 63.1419 71.5395 63.0145 71.7029C62.9045 71.8492 62.8648 72.0196 62.9021 72.1854C62.9393 72.3512 63.0512 72.5023 63.2189 72.6132C63.3708 72.7362 63.5735 72.8167 63.7939 72.8417C64.0143 72.8666 64.2395 72.8346 64.4326 72.7506C64.6483 72.6555 64.843 72.5355 65.0096 72.3951C67.1772 70.7642 69.3416 69.1333 71.5029 67.5025C72.3252 66.8838 72.7025 66.8862 73.5389 67.5167L79.9347 72.3417C80.7994 72.9948 80.7994 73.2591 79.9347 73.9086C77.7336 75.5734 75.5283 77.2383 73.3188 78.9031C72.7921 79.312 72.7497 79.7861 73.1742 80.1204C73.6317 80.4854 74.2637 80.4688 74.8328 80.0421C77.1503 78.3046 79.4725 76.5706 81.7537 74.8082C83.0603 73.8043 83.0807 72.4614 81.7836 71.4623C79.4552 69.6679 77.0843 67.9066 74.7259 66.1288C74.1493 65.6849 73.3631 65.4309 72.539 65.4224L72.5406 65.4224ZM62.9406 74.1528L62.8274 74.2547C62.9972 74.4621 63.1245 74.7015 63.3462 74.871C65.6165 76.5991 67.8983 78.3188 70.1917 80.0303C70.4196 80.2009 70.7514 80.2934 71.0359 80.4214C70.7026 79.2089 71.2749 78.3532 72.3597 77.597C73.4179 76.8598 74.4036 76.0693 75.3344 75.3735L69.5329 70.9882C68.5723 71.7159 67.5252 72.4686 66.5457 73.2674C65.5662 74.0662 64.4216 74.4799 62.9406 74.1528ZM76.7069 74.2156L78.1895 73.1619L72.4981 68.8821L71.0312 69.912C71.1366 69.9974 71.2199 70.0685 71.3079 70.1349L76.7069 74.2156Z" fill="#C4C4C4"/>
<rect x="1.10938" y="1" width="27" height="226" stroke="#C4C4C4" stroke-width="2"/>
<rect x="1.10937" y="28" width="27" height="110" transform="rotate(-90 1.10937 28)" stroke="#C4C4C4" stroke-width="2"/>
</svg>
