<svg width="41" height="58" viewBox="0 0 41 58" fill="none" xmlns="http://www.w3.org/2000/svg">
<path d="M11.5234 42.8155C13.2963 45.0303 15.0949 47.8053 16.0404 49.4856C17.1915 51.6696 17.6643 53.1444 18.5225 55.7755C19.0261 57.2246 19.4988 57.6666 20.5009 57.6666C21.5954 57.6666 22.0939 56.9266 22.4793 55.7755C23.2758 53.2935 23.8976 51.4075 24.8688 49.6038C26.7856 46.1506 29.2111 43.0776 31.5698 40.1279C32.2173 39.3006 36.354 34.429 38.2142 30.5646C38.2142 30.5646 40.4856 26.3406 40.4856 20.4361C40.4856 14.917 38.2399 11.0784 38.2399 11.0784L31.7445 12.8204L27.7877 23.211L26.8113 24.6293L26.6057 24.8966L26.3385 25.2203L25.8966 25.7496L25.2491 26.3971L21.7342 29.2594L12.9674 34.3365L11.5234 42.8155Z" fill="#34A853"/>
<path d="M2.45898 29.8555C4.61213 34.7579 8.71801 39.0385 11.5238 42.8155L26.3748 25.2203C26.3748 25.2203 24.2782 27.9644 20.5012 27.9644C16.2771 27.9644 12.8547 24.5985 12.8547 20.3487C12.8547 17.4248 14.5968 15.4207 14.5968 15.4207L4.52477 18.1082L2.45898 29.8555Z" fill="#FBBC04"/>
<path d="M26.5517 1.24792C31.4797 2.84094 35.7038 6.17601 38.2424 11.1092L26.3718 25.2511C26.3718 25.2511 28.1138 23.2162 28.1138 20.323C28.1138 15.9808 24.455 12.7074 20.4982 12.7074C16.7469 12.7074 14.5938 15.4258 14.5938 15.4258V6.50489L26.5517 1.24792Z" fill="#4285F4"/>
<path d="M5.17188 7.47616C8.12153 3.96123 13.2911 0.333252 20.434 0.333252C23.8873 0.333252 26.5132 1.24796 26.5132 1.24796L14.5912 15.4207H6.14824L5.17188 7.47616Z" fill="#1A73E8"/>
<path d="M2.45932 29.8556C2.45932 29.8556 0.511719 25.986 0.511719 20.4105C0.511719 15.1278 2.57751 10.5183 5.20343 7.50696L14.6228 15.4464L2.45932 29.8556Z" fill="#EA4335"/>
</svg>
