<svg width="62" height="62" viewBox="0 0 62 62" fill="none" xmlns="http://www.w3.org/2000/svg">
<path d="M31 3.875C18.159 3.875 7.75 14.284 7.75 27.125C7.75 33.5432 10.3505 39.3545 14.5564 43.5616C18.7635 47.771 28.675 53.8625 29.2563 60.2563C29.3434 61.2149 30.0375 62 31 62C31.9625 62 32.6566 61.2149 32.7437 60.2563C33.325 53.8625 43.2365 47.771 47.4436 43.5616C51.6495 39.3545 54.25 33.5432 54.25 27.125C54.25 14.284 43.841 3.875 31 3.875Z" fill="#FF4433"/>
<path d="M31.0008 35.263C35.495 35.263 39.1382 31.6197 39.1382 27.1255C39.1382 22.6313 35.495 18.988 31.0008 18.988C26.5066 18.988 22.8633 22.6313 22.8633 27.1255C22.8633 31.6197 26.5066 35.263 31.0008 35.263Z" fill="white"/>
</svg>
