<svg width="48" height="59" viewBox="0 0 48 59" fill="none" xmlns="http://www.w3.org/2000/svg">
<path d="M24 0.875C11.159 0.875 0.75 11.284 0.75 24.125C0.75 30.5432 3.35051 36.3545 7.55644 40.5616C11.7635 44.771 21.675 50.8625 22.2563 57.2563C22.3434 58.2149 23.0374 59 24 59C24.9626 59 25.6566 58.2149 25.7437 57.2563C26.325 50.8625 36.2365 44.771 40.4436 40.5616C44.6495 36.3545 47.25 30.5432 47.25 24.125C47.25 11.284 36.841 0.875 24 0.875Z" fill="#FF4433"/>
<path d="M24.0008 32.263C28.495 32.263 32.1382 28.6197 32.1382 24.1255C32.1382 19.6313 28.495 15.988 24.0008 15.988C19.5066 15.988 15.8633 19.6313 15.8633 24.1255C15.8633 28.6197 19.5066 32.263 24.0008 32.263Z" fill="white"/>
</svg>
